<?xml version="1.0" encoding="UTF-8"?>
<svg id="Layer_1" xmlns="http://www.w3.org/2000/svg" viewBox="0 0 1440 893.38">
  <defs>
    <style>
      .cls-1 {
        fill: #abaaaf;
      }

      .cls-2 {
        fill: #fff;
      }

      .cls-3 {
        fill: #45444c;
      }

      .cls-4 {
        fill: #57565f;
      }
    </style>
  </defs>
  <g>
    <path class="cls-4" d="M1057.13,61.66h-40.59l-28.71,28.6v40.46l28.71,28.61h40.59l3.19-3.18c-2-1.61-3.97-3.21-5.93-4.81-5.39,2.3-11.33,3.58-17.56,3.58-24.59,0-44.6-19.86-44.6-44.26,0-12.71,5.42-24.18,14.09-32.24,1.91-1.8,3.99-3.42,6.2-4.85,6.35-4.11,13.81-6.66,21.83-7.1.82-.05,1.65-.07,2.48-.07.88,0,1.76.03,2.63.08,23.37,1.35,41.97,20.65,41.97,44.18,0,4.45-.66,8.75-1.9,12.8,2.1,1.86,4.2,3.67,6.3,5.46v-38.66l-28.7-28.6ZM1057.13,61.66h-40.59l-28.71,28.6v40.46l28.71,28.61h40.59l3.19-3.18c-2-1.61-3.97-3.21-5.93-4.81-5.39,2.3-11.33,3.58-17.56,3.58-24.59,0-44.6-19.86-44.6-44.26,0-12.71,5.42-24.18,14.09-32.24,1.91-1.8,3.99-3.42,6.2-4.85,6.35-4.11,13.81-6.66,21.83-7.1.82-.05,1.65-.07,2.48-.07.88,0,1.76.03,2.63.08,23.37,1.35,41.97,20.65,41.97,44.18,0,4.45-.66,8.75-1.9,12.8,2.1,1.86,4.2,3.67,6.3,5.46v-38.66l-28.7-28.6ZM1057.13,61.66h-40.59l-28.71,28.6v40.46l28.71,28.61h40.59l3.19-3.18c-2-1.61-3.97-3.21-5.93-4.81-5.39,2.3-11.33,3.58-17.56,3.58-24.59,0-44.6-19.86-44.6-44.26,0-12.71,5.42-24.18,14.09-32.24,1.91-1.8,3.99-3.42,6.2-4.85,6.35-4.11,13.81-6.66,21.83-7.1.82-.05,1.65-.07,2.48-.07.88,0,1.76.03,2.63.08,23.37,1.35,41.97,20.65,41.97,44.18,0,4.45-.66,8.75-1.9,12.8,2.1,1.86,4.2,3.67,6.3,5.46v-38.66l-28.7-28.6ZM1057.13,61.66h-40.59l-28.71,28.6v40.46l28.71,28.61h40.59l3.19-3.18c-2-1.61-3.97-3.21-5.93-4.81-5.39,2.3-11.33,3.58-17.56,3.58-24.59,0-44.6-19.86-44.6-44.26,0-12.71,5.42-24.18,14.09-32.24,1.91-1.8,3.99-3.42,6.2-4.85,6.35-4.11,13.81-6.66,21.83-7.1.82-.05,1.65-.07,2.48-.07.88,0,1.76.03,2.63.08,23.37,1.35,41.97,20.65,41.97,44.18,0,4.45-.66,8.75-1.9,12.8,2.1,1.86,4.2,3.67,6.3,5.46v-38.66l-28.7-28.6ZM1037.35,72.41c-.17,0-.35,0-.52,0-.39,0-.78,0-1.17.02-.35,0-.69.03-1.03.05h0s-.07,0-.1,0c-.23.01-.47.02-.7.04-.53.04-1.05.09-1.57.15t-.02,0s-.07,0-.1,0h-.03c-.09.01-.18.02-.27.04-.22.03-.45.06-.67.09-.26.04-.53.08-.79.13,1.11-.18,2.27-.3,3.46-.37.97-.07,1.97-.09,3-.08.18,0,.36,0,.54,0-.01-.03-.01-.06-.02-.09ZM1019.48,119.57c-5.72-6.22-9.83-13.15-12.2-20.62-1.2-3.8-1.83-7.21-2.02-10.26-4.43,6.22-7.03,13.8-7.03,21.98,0,21.1,17.32,38.26,38.6,38.26,4.27,0,8.39-.69,12.24-1.97-11.08-9.24-21.22-18.3-29.59-27.39ZM1040.95,72.62c1.08,5.81,3.19,14.67,8.09,20.3,8.77,10.09,17.15,18.46,25.47,26.05.6-2.67.92-5.46.92-8.31,0-19.72-15.13-36-34.48-38.04ZM1057.13,61.66h-40.59l-28.71,28.6v40.46l28.71,28.61h40.59l3.19-3.18c-2-1.61-3.97-3.21-5.93-4.81-5.39,2.3-11.33,3.58-17.56,3.58-24.59,0-44.6-19.86-44.6-44.26,0-12.71,5.42-24.18,14.09-32.24,1.91-1.8,3.99-3.42,6.2-4.85,6.35-4.11,13.81-6.66,21.83-7.1.82-.05,1.65-.07,2.48-.07.88,0,1.76.03,2.63.08,23.37,1.35,41.97,20.65,41.97,44.18,0,4.45-.66,8.75-1.9,12.8,2.1,1.86,4.2,3.67,6.3,5.46v-38.66l-28.7-28.6ZM1057.13,61.66h-40.59l-28.71,28.6v40.46l28.71,28.61h40.59l3.19-3.18c-2-1.61-3.97-3.21-5.93-4.81-5.39,2.3-11.33,3.58-17.56,3.58-24.59,0-44.6-19.86-44.6-44.26,0-12.71,5.42-24.18,14.09-32.24,1.91-1.8,3.99-3.42,6.2-4.85,6.35-4.11,13.81-6.66,21.83-7.1.82-.05,1.65-.07,2.48-.07.88,0,1.76.03,2.63.08,23.37,1.35,41.97,20.65,41.97,44.18,0,4.45-.66,8.75-1.9,12.8,2.1,1.86,4.2,3.67,6.3,5.46v-38.66l-28.7-28.6ZM1057.13,61.66h-40.59l-28.71,28.6v40.46l28.71,28.61h40.59l3.19-3.18c-2-1.61-3.97-3.21-5.93-4.81-5.39,2.3-11.33,3.58-17.56,3.58-24.59,0-44.6-19.86-44.6-44.26,0-12.71,5.42-24.18,14.09-32.24,1.91-1.8,3.99-3.42,6.2-4.85,6.35-4.11,13.81-6.66,21.83-7.1.82-.05,1.65-.07,2.48-.07.88,0,1.76.03,2.63.08,23.37,1.35,41.97,20.65,41.97,44.18,0,4.45-.66,8.75-1.9,12.8,2.1,1.86,4.2,3.67,6.3,5.46v-38.66l-28.7-28.6ZM1057.13,61.66h-40.59l-28.71,28.6v40.46l28.71,28.61h40.59l3.19-3.18c-2-1.61-3.97-3.21-5.93-4.81-5.39,2.3-11.33,3.58-17.56,3.58-24.59,0-44.6-19.86-44.6-44.26,0-12.71,5.42-24.18,14.09-32.24,1.91-1.8,3.99-3.42,6.2-4.85,6.35-4.11,13.81-6.66,21.83-7.1.82-.05,1.65-.07,2.48-.07.88,0,1.76.03,2.63.08,23.37,1.35,41.97,20.65,41.97,44.18,0,4.45-.66,8.75-1.9,12.8,2.1,1.86,4.2,3.67,6.3,5.46v-38.66l-28.7-28.6ZM1057.13,61.66h-40.59l-28.71,28.6v40.46l28.71,28.61h40.59l3.19-3.18c-2-1.61-3.97-3.21-5.93-4.81-5.39,2.3-11.33,3.58-17.56,3.58-24.59,0-44.6-19.86-44.6-44.26,0-12.71,5.42-24.18,14.09-32.24,1.91-1.8,3.99-3.42,6.2-4.85,6.35-4.11,13.81-6.66,21.83-7.1.82-.05,1.65-.07,2.48-.07.88,0,1.76.03,2.63.08,23.37,1.35,41.97,20.65,41.97,44.18,0,4.45-.66,8.75-1.9,12.8,2.1,1.86,4.2,3.67,6.3,5.46v-38.66l-28.7-28.6Z"/>
    <path class="cls-2" d="M1116,110.49c0,13.02-3.19,25.31-8.85,36.14-.79-.65-1.57-1.3-2.34-1.94-.8-.66-1.61-1.32-2.4-1.97,4.86-9.71,7.59-20.66,7.59-32.23,0-40.07-32.75-72.66-73-72.66s-73,32.59-73,72.66,32.75,72.67,73,72.67c15.26,0,29.43-4.68,41.15-12.69.82.66,1.65,1.32,2.47,1.99.8.64,1.6,1.29,2.4,1.93-12.96,9.3-28.86,14.77-46.02,14.77-43.56,0-79-35.29-79-78.67s35.44-78.66,79-78.66,79,35.29,79,78.66Z"/>
  </g>
  <g>
    <path class="cls-1" d="M1037.35,72.41c-.17,0-.35,0-.52,0-.39,0-.78,0-1.17.02-.35,0-.69.03-1.03.05h0s-.07,0-.1,0c-.23.01-.47.02-.7.04-.53.04-1.05.09-1.57.15t-.02,0s-.07,0-.1,0h-.03c-.09.01-.18.02-.27.04-.22.03-.45.06-.67.09-.26.04-.53.08-.79.13,1.11-.18,2.27-.3,3.46-.37.97-.07,1.97-.09,3-.08.18,0,.36,0,.54,0-.01-.03-.01-.06-.02-.09ZM1019.48,119.57c-5.72-6.22-9.83-13.15-12.2-20.62-1.2-3.8-1.83-7.21-2.02-10.26-4.43,6.22-7.03,13.8-7.03,21.98,0,21.1,17.32,38.26,38.6,38.26,4.27,0,8.39-.69,12.24-1.97-11.08-9.24-21.22-18.3-29.59-27.39ZM1040.95,72.62c1.08,5.81,3.19,14.67,8.09,20.3,8.77,10.09,17.15,18.46,25.47,26.05.6-2.67.92-5.46.92-8.31,0-19.72-15.13-36-34.48-38.04ZM1057.13,61.66h-40.59l-28.71,28.6v40.46l28.71,28.61h40.59l3.19-3.18c-2-1.61-3.97-3.21-5.93-4.81-5.39,2.3-11.33,3.58-17.56,3.58-24.59,0-44.6-19.86-44.6-44.26,0-12.71,5.42-24.18,14.09-32.24,1.91-1.8,3.99-3.42,6.2-4.85,6.35-4.11,13.81-6.66,21.83-7.1.82-.05,1.65-.07,2.48-.07.88,0,1.76.03,2.63.08,23.37,1.35,41.97,20.65,41.97,44.18,0,4.45-.66,8.75-1.9,12.8,2.1,1.86,4.2,3.67,6.3,5.46v-38.66l-28.7-28.6Z"/>
    <path class="cls-2" d="M1091.83,87.79v45.43l-.42.42c-.86-.72-1.72-1.44-2.58-2.17-1-.84-2-1.68-3-2.54v-38.66l-28.7-28.6h-40.59l-28.71,28.6v40.46l28.71,28.61h40.59l3.19-3.18c.78.63,1.56,1.26,2.34,1.9.78.62,1.57,1.25,2.36,1.89l-5.41,5.39h-45.57l-1.75-1.77-30.46-30.35v-45.44l32.21-32.11h45.57l1.76,1.75,30.46,30.37Z"/>
  </g>
  <g>
    <g>
      <path class="cls-3" d="M1037.37,72.5c-.18,0-.36,0-.54,0-1.03,0-2.03,0-3,.08-1.19.07-2.35.19-3.46.37.26-.05.53-.09.79-.13.22-.03.45-.06.67-.09.09-.02.18-.03.27-.04h.03s.07,0,.1,0t.02,0c.52-.06,1.04-.11,1.57-.15.23-.02.47-.03.7-.04.03,0,.07,0,.1,0h0c.34-.02.68-.04,1.03-.05.39,0,.78-.02,1.17-.02.17,0,.35,0,.52,0,0,.03,0,.06.02.09Z"/>
      <path class="cls-3" d="M1049.07,146.95c-3.85,1.28-7.97,1.97-12.24,1.97-21.28,0-38.6-17.16-38.6-38.26,0-8.18,2.6-15.76,7.03-21.98.19,3.05.82,6.46,2.02,10.26,2.37,7.47,6.48,14.4,12.2,20.62,8.37,9.09,18.51,18.15,29.59,27.39Z"/>
      <path class="cls-3" d="M1075.43,110.66c0,2.85-.32,5.64-.92,8.31-8.32-7.59-16.7-15.96-25.47-26.05-4.9-5.63-7.01-14.49-8.09-20.3,19.35,2.04,34.48,18.32,34.48,38.04Z"/>
    </g>
    <g>
      <path class="cls-2" d="M1081.43,110.66c0,4.45-.66,8.75-1.9,12.8-.83-.72-1.66-1.45-2.49-2.2-.85-.76-1.69-1.52-2.53-2.29.6-2.67.92-5.46.92-8.31,0-19.72-15.13-36-34.48-38.04-1.18-.13-2.38-.2-3.6-.21-.17,0-.35,0-.52,0-.39,0-.78,0-1.17.02-.35,0-.69.03-1.03.05h0s-.07,0-.1,0c-.23.01-.47.02-.7.04-.53.04-1.05.09-1.57.15t-.02,0s-.07,0-.1,0h-.03c-.09.01-.18.02-.27.04-.22.03-.45.06-.67.09-.26.04-.53.08-.79.13-.4.06-.8.13-1.19.22-.03,0-.05,0-.08,0-.12.03-.24.05-.36.08-.02,0-.05,0-.07.02-.25.04-.49.1-.73.16-.39.1-.77.19-1.15.29-.4.1-.79.21-1.17.33-.39.11-.77.23-1.15.37-.36.11-.72.24-1.08.38-.05.02-.11.04-.16.06-.27.1-.53.2-.8.31-.43.17-.86.35-1.28.54-.42.18-.84.37-1.26.58-.21.1-.42.21-.62.31-.21.11-.41.21-.61.32-.41.21-.81.43-1.21.67-.06.03-.11.07-.17.1-.07.04-.15.08-.22.13-.22.12-.44.25-.65.39-.39.24-.78.49-1.16.74t-.02,0c-.28.19-.56.39-.83.58,0,0-.03.02-.04.03,0,0,0,0,0,0-.17.12-.34.24-.51.37-.29.21-.57.42-.85.64-1.5,1.17-2.9,2.44-4.2,3.81-.37.39-.73.78-1.08,1.18-.15.17-.31.35-.45.53-.03.04-.07.08-.09.12-.28.31-.54.63-.78.95-.01.01-.02.02-.03.04-.12.15-.24.31-.36.46-.05.07-.1.13-.15.2,0,.01-.02.01-.02.02-.19.26-.39.52-.57.78-4.43,6.22-7.03,13.8-7.03,21.98,0,21.1,17.32,38.26,38.6,38.26,4.27,0,8.39-.69,12.24-1.97.89.74,1.79,1.48,2.69,2.23.87.72,1.75,1.44,2.63,2.16-5.39,2.3-11.33,3.58-17.56,3.58-24.59,0-44.6-19.86-44.6-44.26,0-12.71,5.42-24.18,14.09-32.24,1.91-1.8,3.99-3.42,6.2-4.85,6.35-4.11,13.81-6.66,21.83-7.1.82-.05,1.65-.07,2.48-.07.88,0,1.76.03,2.63.08,23.37,1.35,41.97,20.65,41.97,44.18Z"/>
      <path class="cls-2" d="M1032.13,72.68s.07,0,.1,0c-.02,0-.05,0-.07,0h-.03Z"/>
      <path class="cls-2" d="M1034.43,72.47h.09c-.23.01-.47.02-.7.04.2-.02.41-.03.61-.04Z"/>
    </g>
  </g>
  <g>
    <g>
      <g>
        <path class="cls-4" d="M1034.63,72.47h0s-.07,0-.1,0c-.23.01-.47.02-.7.04-.53.04-1.05.09-1.57.15t-.02,0s-.07,0-.1,0h-.03c-.09.01-.18.02-.27.04-.51.07-.99.14-1.46.22,1.11-.18,2.27-.3,3.46-.37.97-.07,1.97-.09,3-.08-.76-.02-1.48-.04-2.2-.02ZM1034.63,72.47h0s-.07,0-.1,0c-.23.01-.47.02-.7.04-.53.04-1.05.09-1.57.15t-.02,0s-.07,0-.1,0h-.03c-.09.01-.18.02-.27.04-.51.07-.99.14-1.46.22,1.11-.18,2.27-.3,3.46-.37.97-.07,1.97-.09,3-.08-.76-.02-1.48-.04-2.2-.02ZM1034.63,72.47h0s-.07,0-.1,0c-.23.01-.47.02-.7.04-.53.04-1.05.09-1.57.15t-.02,0s-.07,0-.1,0h-.03c-.09.01-.18.02-.27.04-.51.07-.99.14-1.46.22,1.11-.18,2.27-.3,3.46-.37.97-.07,1.97-.09,3-.08-.76-.02-1.48-.04-2.2-.02ZM1034.63,72.47h0s-.07,0-.1,0c-.23.01-.47.02-.7.04-.53.04-1.05.09-1.57.15t-.02,0s-.07,0-.1,0h-.03c-.09.01-.18.02-.27.04-.51.07-.99.14-1.46.22,1.11-.18,2.27-.3,3.46-.37.97-.07,1.97-.09,3-.08-.76-.02-1.48-.04-2.2-.02ZM1034.63,72.47h0s-.07,0-.1,0c-.23.01-.47.02-.7.04-.53.04-1.05.09-1.57.15t-.02,0s-.07,0-.1,0h-.03c-.09.01-.18.02-.27.04-.51.07-.99.14-1.46.22,1.11-.18,2.27-.3,3.46-.37.97-.07,1.97-.09,3-.08-.76-.02-1.48-.04-2.2-.02ZM1034.63,72.47h0s-.07,0-.1,0c-.23.01-.47.02-.7.04-.53.04-1.05.09-1.57.15t-.02,0s-.07,0-.1,0h-.03c-.09.01-.18.02-.27.04-.51.07-.99.14-1.46.22,1.11-.18,2.27-.3,3.46-.37.97-.07,1.97-.09,3-.08-.76-.02-1.48-.04-2.2-.02Z"/>
        <path class="cls-4" d="M1329.05,518.33c-13.15-57.76-49.12-130.39-69.4-168.55-28.62-53.86-62.53-108.31-86.4-138.7-.03-.04-.06-.08-.09-.12-26.1-30.4-47.28-48.8-66.01-64.32-.79-.65-1.57-1.3-2.34-1.94-.8-.66-1.61-1.32-2.4-1.97,4.86-9.71,7.59-20.66,7.59-32.23,0-40.07-32.75-72.66-73-72.66s-73,32.59-73,72.66,32.75,72.67,73,72.67c15.26,0,29.43-4.68,41.15-12.69.82.66,1.65,1.32,2.47,1.99.8.64,1.6,1.29,2.4,1.93,16.53,13.38,32.78,27.12,45.64,41.2,34.86,38.18,72.39,91.58,104,152.24,31.62,60.66,57.31,128.57,68.51,195.78,16.52,99.09-8.18,192.58-28.02,228.19v10.6c12.15-17.17,24.69-52.29,32.09-90.07,6.86-34.99,12.91-89.4,2.83-149.88-22.63-135.82-103.82-274.45-174.24-351.58-12.86-14.07-28.86-27.68-45.17-40.91-.78-.64-1.57-1.27-2.35-1.9-.8-.65-1.6-1.3-2.41-1.94-2.74-2.21-5.48-4.41-8.21-6.59-1.91-1.53-3.81-3.05-5.69-4.56-.79-.63-1.57-1.26-2.35-1.89-.79-.64-1.57-1.27-2.35-1.9-1.42-1.14-2.82-2.28-4.21-3.41-.82-.66-1.63-1.32-2.43-1.98-.83-.68-1.65-1.36-2.47-2.04-11.92-9.83-22.8-19.41-31.56-28.93-5.03-5.46-8.62-11.51-10.68-18-.03-.09-.06-.18-.08-.27-.5-1.59-.87-3.08-1.13-4.48-.34-1.81.28-3.66,1.6-4.94,3.07-2.96,8.45-6.84,16.37-8.18,2.37-.4,4.65,1.04,5.32,3.34,1.53,5.19,3.91,10.83,7.72,15.22,9.81,11.29,19.11,20.44,28.33,28.71.79.71,1.57,1.41,2.36,2.1.77.69,1.54,1.37,2.32,2.04,1.69,1.47,3.37,2.92,5.06,4.36.77.65,1.53,1.3,2.3,1.94.77.65,1.54,1.29,2.31,1.94,3.17,2.64,6.36,5.27,9.58,7.92.97.8,1.94,1.6,2.91,2.4.79.64,1.57,1.29,2.36,1.95.77.63,1.54,1.26,2.31,1.9,18.83,15.63,38.81,33.1,64.2,62.68,47.76,60.86,133.68,213.25,154.44,304.43,21.42,94.1,10.39,156.52,10.28,157.14l-.03.18c-2.4,18.33-7.39,56.48-17.86,91.67-10.57,35.48-24.5,60.93-41.47,75.8v9.01c48.01-36.09,60.78-133.55,66.26-175.5.52-2.97,11-66.06-10.36-159.86ZM1091.83,133.21l-.42.42c-.86-.72-1.72-1.44-2.58-2.17-1-.84-2-1.68-3-2.54-2.1-1.79-4.2-3.6-6.3-5.46-.83-.72-1.66-1.45-2.49-2.2-.85-.76-1.69-1.52-2.53-2.29-8.32-7.59-16.7-15.96-25.47-26.05-4.9-5.63-7.01-14.49-8.09-20.3-1.18-.13-2.38-.2-3.6-.21,0,.03,0,.06.02.09-.18,0-.36,0-.54,0-1.03,0-2.03,0-3,.08-1.19.07-2.35.19-3.46.37-.4.07-.79.14-1.19.22-.03,0-.05,0-.08,0-.12.03-.24.05-.36.08-.02,0-.05,0-.07.02-.25.05-.49.11-.73.16-.39.1-.77.19-1.15.29-.4.1-.79.21-1.17.33-.39.12-.77.24-1.15.37-.36.12-.72.25-1.08.38-.05.02-.11.04-.16.06-.27.1-.53.2-.8.31-.43.17-.86.35-1.28.54-.43.19-.85.38-1.26.58-.21.1-.42.21-.62.31-.21.11-.41.21-.61.32-.41.22-.81.44-1.21.67-.06.03-.11.07-.17.1-.07.04-.15.08-.22.13-.22.12-.44.25-.65.39-.39.24-.78.49-1.16.74t-.02,0c-.28.19-.56.39-.83.58,0,0-.03.02-.04.03,0,0,0,0,0,0-.17.12-.34.24-.51.37-.29.21-.57.42-.85.64-1.5,1.17-2.9,2.44-4.2,3.81-.37.39-.73.78-1.08,1.18-.15.17-.31.35-.45.53-.03.04-.07.08-.09.12-.27.31-.53.63-.78.95-.01.01-.02.02-.03.04-.12.15-.24.31-.36.46-.05.07-.1.13-.15.2,0,.01-.02.01-.02.02-.19.26-.39.52-.57.78.19,3.05.82,6.46,2.02,10.26,2.37,7.47,6.48,14.4,12.2,20.62,8.37,9.09,18.51,18.15,29.59,27.39.89.74,1.79,1.48,2.69,2.23.87.72,1.75,1.44,2.63,2.16,1.96,1.6,3.93,3.2,5.93,4.81.78.63,1.56,1.26,2.34,1.9.78.62,1.57,1.25,2.36,1.89l-5.41,5.39h-45.57l-1.75-1.77-30.46-30.35v-45.44l32.21-32.11h45.57l1.76,1.75,30.46,30.37v45.43Z"/>
      </g>
      <path class="cls-2" d="M1037.37,72.5c-.18,0-.36,0-.54,0-1.03,0-2.03,0-3,.08-1.19.07-2.35.19-3.46.37.26-.05.53-.09.79-.13.22-.03.45-.06.67-.09.09-.02.18-.03.27-.04h.03s.07,0,.1,0t.02,0c.52-.06,1.04-.11,1.57-.15.23-.02.47-.03.7-.04.03,0,.07,0,.1,0h0c.34-.02.68-.04,1.03-.05.39,0,.78-.02,1.17-.02.17,0,.35,0,.52,0,0,.03,0,.06.02.09Z"/>
      <path class="cls-2" d="M1332.51,677.03l-.03.18c-2.4,18.33-7.39,56.48-17.86,91.67-10.57,35.48-24.5,60.93-41.47,75.8v42.34h-6v-163.59h6v78.98c12.15-17.17,24.69-52.29,32.09-90.07,6.86-34.99,12.91-89.4,2.83-149.88-22.63-135.82-103.82-274.45-174.24-351.58-12.86-14.07-28.86-27.68-45.17-40.91-.78-.64-1.57-1.27-2.35-1.9-.8-.65-1.6-1.3-2.41-1.94-2.74-2.21-5.48-4.41-8.21-6.59-1.91-1.53-3.81-3.05-5.69-4.56-.79-.63-1.57-1.26-2.35-1.89-.79-.64-1.57-1.27-2.35-1.9-1.42-1.14-2.82-2.28-4.21-3.41-.82-.66-1.63-1.32-2.43-1.98-.83-.68-1.65-1.36-2.47-2.04-11.92-9.83-22.8-19.41-31.56-28.93-5.03-5.46-8.62-11.51-10.68-18-.03-.09-.06-.18-.08-.27-.5-1.59-.87-3.08-1.13-4.48-.34-1.81.28-3.66,1.6-4.94,3.07-2.96,8.45-6.84,16.37-8.18,2.37-.4,4.65,1.04,5.32,3.34,1.53,5.19,3.91,10.83,7.72,15.22,9.81,11.29,19.11,20.44,28.33,28.71.79.71,1.57,1.41,2.36,2.1.77.69,1.54,1.37,2.32,2.04,1.69,1.47,3.37,2.92,5.06,4.36.77.65,1.53,1.3,2.3,1.94.77.65,1.54,1.29,2.31,1.94,3.17,2.64,6.36,5.27,9.58,7.92.97.8,1.94,1.6,2.91,2.4.79.64,1.57,1.29,2.36,1.95.77.63,1.54,1.26,2.31,1.9,18.83,15.63,38.81,33.1,64.2,62.68,47.76,60.86,133.68,213.25,154.44,304.43,21.42,94.1,10.39,156.52,10.28,157.14Z"/>
    </g>
    <path class="cls-4" d="M1037.35,72.41c-.17,0-.35,0-.52,0-.39,0-.78,0-1.17.02-.35,0-.69.03-1.03.05h0s-.07,0-.1,0c-.23.01-.47.02-.7.04,0,.02.01.04.01.06.97-.07,1.97-.09,3-.08.18,0,.36,0,.54,0-.01-.03-.01-.06-.02-.09Z"/>
  </g>
</svg>