<svg width="958" height="116" viewBox="0 0 958 116" fill="none" xmlns="http://www.w3.org/2000/svg">
<path d="M58 112.522C88.3626 112.522 113 88.0175 113 57.7609C113 27.5043 88.3626 3 58 3C27.6374 3 3 27.5043 3 57.7609C3 88.0175 27.6374 112.522 58 112.522Z" fill="#57565F" stroke="white" stroke-width="6" stroke-miterlimit="10"/>
<path d="M74.4586 20.8497L73.5806 19.9746H72.3409H43.4237H42.1841L41.306 20.8497L20.8589 41.2267L19.9766 42.106V43.3517V72.1699V73.4156L20.8589 74.2949L41.306 94.672L42.1841 95.547H43.4237H72.3409H73.5806L74.4586 94.672L94.9057 74.2949L95.7881 73.4156V72.1699V43.3517V42.106L94.9057 41.2267L74.4586 20.8497Z" fill="#ABAAAF" stroke="white" stroke-width="6" stroke-miterlimit="10"/>
<path d="M57.881 88.1353C74.6977 88.1353 88.3752 74.6143 88.3752 57.8802C88.3752 41.146 74.6977 27.625 57.881 27.625C41.0642 27.625 27.3867 41.146 27.3867 57.8802C27.3867 74.6143 41.0642 88.1353 57.881 88.1353Z" fill="#45444C" stroke="white" stroke-width="6" stroke-miterlimit="10"/>
<path d="M412 112.522C442.363 112.522 467 88.0175 467 57.7609C467 27.5043 442.363 3 412 3C381.637 3 357 27.5043 357 57.7609C357 88.0175 381.637 112.522 412 112.522Z" fill="#57565F" stroke="white" stroke-width="6" stroke-miterlimit="10"/>
<path d="M428.459 20.8497L427.581 19.9746H426.341H397.424H396.184L395.306 20.8497L374.859 41.2267L373.977 42.106V43.3517V72.1699V73.4156L374.859 74.2949L395.306 94.672L396.184 95.547H397.424H426.341H427.581L428.459 94.672L448.906 74.2949L449.788 73.4156V72.1699V43.3517V42.106L448.906 41.2267L428.459 20.8497Z" fill="#ABAAAF" stroke="white" stroke-width="6" stroke-miterlimit="10"/>
<path d="M411.881 88.1353C428.698 88.1353 442.375 74.6143 442.375 57.8802C442.375 41.146 428.698 27.625 411.881 27.625C395.064 27.625 381.387 41.146 381.387 57.8802C381.387 74.6143 395.064 88.1353 411.881 88.1353Z" fill="#45444C" stroke="white" stroke-width="6" stroke-miterlimit="10"/>
<path d="M675 112.522C705.363 112.522 730 88.0175 730 57.7609C730 27.5043 705.363 3 675 3C644.637 3 620 27.5043 620 57.7609C620 88.0175 644.637 112.522 675 112.522Z" fill="#57565F" stroke="white" stroke-width="6" stroke-miterlimit="10"/>
<path d="M691.459 20.8497L690.581 19.9746H689.341H660.424H659.184L658.306 20.8497L637.859 41.2267L636.977 42.106V43.3517V72.1699V73.4156L637.859 74.2949L658.306 94.672L659.184 95.547H660.424H689.341H690.581L691.459 94.672L711.906 74.2949L712.788 73.4156V72.1699V43.3517V42.106L711.906 41.2267L691.459 20.8497Z" fill="#ABAAAF" stroke="white" stroke-width="6" stroke-miterlimit="10"/>
<path d="M674.881 88.1353C691.698 88.1353 705.375 74.6143 705.375 57.8802C705.375 41.146 691.698 27.625 674.881 27.625C658.064 27.625 644.387 41.146 644.387 57.8802C644.387 74.6143 658.064 88.1353 674.881 88.1353Z" fill="#45444C" stroke="white" stroke-width="6" stroke-miterlimit="10"/>
<path d="M900 112.522C930.363 112.522 955 88.0175 955 57.7609C955 27.5043 930.363 3 900 3C869.637 3 845 27.5043 845 57.7609C845 88.0175 869.637 112.522 900 112.522Z" fill="#57565F" stroke="white" stroke-width="6" stroke-miterlimit="10"/>
<path d="M916.459 20.8497L915.581 19.9746H914.341H885.424H884.184L883.306 20.8497L862.859 41.2267L861.977 42.106V43.3517V72.1699V73.4156L862.859 74.2949L883.306 94.672L884.184 95.547H885.424H914.341H915.581L916.459 94.672L936.906 74.2949L937.788 73.4156V72.1699V43.3517V42.106L936.906 41.2267L916.459 20.8497Z" fill="#ABAAAF" stroke="white" stroke-width="6" stroke-miterlimit="10"/>
<path d="M899.881 88.1353C916.698 88.1353 930.375 74.6143 930.375 57.8802C930.375 41.146 916.698 27.625 899.881 27.625C883.064 27.625 869.387 41.146 869.387 57.8802C869.387 74.6143 883.064 88.1353 899.881 88.1353Z" fill="#45444C" stroke="white" stroke-width="6" stroke-miterlimit="10"/>
</svg>
