<svg width="962" height="1874" viewBox="0 0 962 1874" fill="none" xmlns="http://www.w3.org/2000/svg">
<rect x="67" y="525" width="7" height="478" fill="#57565F"/>
<rect x="884" y="525" width="11" height="479" fill="#57565F"/>
<rect x="72" y="247" width="822" height="961" fill="#57565F"/>
<path d="M895.958 521.257V1007.12L895.94 1007.41C893.366 1007.22 890.676 1007.12 887.851 1007.12H71.6055V521.257H894.149C894.752 521.257 895.355 521.248 895.958 521.23V521.257Z" fill="#57565F"/>
<path d="M958.535 581.819V946.56C958.535 980.004 930.292 1007.12 895.957 1007.12V521.257C930.292 521.257 958.535 548.6 958.535 581.819Z" fill="#57565F"/>
<path d="M956.735 67.6381V456.619C956.735 491.457 929.482 520.222 895.957 521.23C895.354 521.248 894.751 521.257 894.148 521.257H71.6047C37.3871 521.095 9.29688 491.988 9.29688 456.619V67.6381C9.29688 32.1699 37.5401 3 71.8836 3H894.148C928.492 3 956.735 32.1699 956.735 67.6381Z" fill="#57565F"/>
<path d="M950.438 1114.8V1763.21C950.438 1822.43 950.438 1870.88 887.852 1870.88H65.5867C3 1870.88 3 1822.43 3 1763.21V1114.8C3 1055.57 3 1007.12 65.5867 1007.12H887.852C890.677 1007.12 893.367 1007.22 895.94 1007.41C950.438 1011.51 950.438 1058.25 950.438 1114.8Z" fill="#57565F"/>
<path d="M71.6047 521.257V1006.22C37.4141 1006.22 9.29688 978.933 9.29688 945.769V581.711C9.29688 548.321 37.4141 521.257 71.6047 521.257Z" fill="#57565F"/>
<path d="M71.8836 521.257H71.6047C37.3871 521.095 9.29688 491.988 9.29688 456.619V67.6381C9.29688 32.1699 37.5401 3 71.8836 3H894.148C928.492 3 956.735 32.1699 956.735 67.6381V456.619C956.735 491.457 929.482 520.222 895.957 521.23C895.354 521.248 894.751 521.257 894.148 521.257" fill="#57565F"/>
<path d="M71.8836 521.257H71.6047C37.3871 521.095 9.29688 491.988 9.29688 456.619V67.6381C9.29688 32.1699 37.5401 3 71.8836 3H894.148C928.492 3 956.735 32.1699 956.735 67.6381V456.619C956.735 491.457 929.482 520.222 895.957 521.23C895.354 521.248 894.751 521.257 894.148 521.257" stroke="white" stroke-width="6" stroke-miterlimit="10"/>
<path d="M895.957 521.257C930.292 521.257 958.535 548.6 958.535 581.819V946.56C958.535 980.004 930.292 1007.12 895.957 1007.12" fill="#57565F"/>
<path d="M895.957 521.257C930.292 521.257 958.535 548.6 958.535 581.819V946.56C958.535 980.004 930.292 1007.12 895.957 1007.12" stroke="white" stroke-width="6" stroke-miterlimit="10"/>
<path d="M71.6047 1006.22C37.4141 1006.22 9.29688 978.933 9.29688 945.769V581.711C9.29688 548.321 37.4141 521.257 71.6047 521.257" fill="#57565F"/>
<path d="M71.6047 1006.22C37.4141 1006.22 9.29688 978.933 9.29688 945.769V581.711C9.29688 548.321 37.4141 521.257 71.6047 521.257" stroke="white" stroke-width="6" stroke-miterlimit="10"/>
<path d="M71.5 1006C8.91329 1006 3 1055.57 3 1114.8V1763.21C3 1822.43 3 1870.88 65.5867 1870.88H887.852C950.438 1870.88 950.438 1822.43 950.438 1763.21V1114.8C950.438 1058.25 950.438 1011.51 895.94 1007.41C893.367 1007.22 890.677 1007.12 887.852 1007.12" fill="#57565F"/>
<path d="M71.5 1006C8.91329 1006 3 1055.57 3 1114.8V1763.21C3 1822.43 3 1870.88 65.5867 1870.88H887.852C950.438 1870.88 950.438 1822.43 950.438 1763.21V1114.8C950.438 1058.25 950.438 1011.51 895.94 1007.41C893.367 1007.22 890.677 1007.12 887.852 1007.12" stroke="white" stroke-width="6" stroke-miterlimit="10"/>
<circle cx="180.312" cy="317.435" r="104.5" fill="#45444C" stroke="white" stroke-width="6"/>
<circle cx="7.5" cy="7.5" r="4.5" transform="matrix(1 0 0 -1 274.812 246.935)" fill="white" stroke="white" stroke-width="6"/>
<circle cx="7.5" cy="7.5" r="4.5" transform="matrix(1 0 0 -1 233.812 212.935)" fill="white" stroke="white" stroke-width="6"/>
<circle cx="7.5" cy="7.5" r="4.5" transform="matrix(1 0 0 -1 169.812 197.935)" fill="white" stroke="white" stroke-width="6"/>
<circle cx="7.5" cy="7.5" r="4.5" transform="matrix(1 0 0 -1 111.812 212.935)" fill="white" stroke="white" stroke-width="6"/>
<circle cx="7.5" cy="7.5" r="4.5" transform="matrix(1 0 0 -1 67.8125 246.935)" fill="white" stroke="white" stroke-width="6"/>
<circle cx="7.5" cy="7.5" r="4.5" transform="matrix(1 0 0 -1 40.8125 299.935)" fill="white" stroke="white" stroke-width="6"/>
<circle cx="7.5" cy="7.5" r="4.5" transform="matrix(1 0 0 -1 39.8125 357.935)" fill="white" stroke="white" stroke-width="6"/>
<circle cx="7.5" cy="7.5" r="4.5" transform="matrix(1 0 0 -1 303.812 357.935)" fill="white" stroke="white" stroke-width="6"/>
<circle cx="7.5" cy="7.5" r="4.5" transform="matrix(1 0 0 -1 283.812 410.935)" fill="white" stroke="white" stroke-width="6"/>
<circle cx="7.5" cy="7.5" r="4.5" transform="matrix(1 0 0 -1 63.8125 414.935)" fill="white" stroke="white" stroke-width="6"/>
<circle cx="7.5" cy="7.5" r="4.5" transform="matrix(1 0 0 -1 103.812 448.935)" fill="white" stroke="white" stroke-width="6"/>
<circle cx="7.5" cy="7.5" r="4.5" transform="matrix(1 0 0 -1 241.812 448.935)" fill="white" stroke="white" stroke-width="6"/>
<circle cx="7.5" cy="7.5" r="4.5" transform="matrix(1 0 0 -1 301.812 299.935)" fill="white" stroke="white" stroke-width="6"/>
<path d="M271.431 341.442L174.466 209.047C171.54 205.051 166.332 203.399 161.48 204.857C115.075 218.33 86.4597 252.838 75.8256 267.814C72.8864 271.988 72.9255 277.499 75.8519 281.495L172.603 413.598C175.529 417.594 180.772 419.295 185.588 417.789C203.16 412.181 244.731 395.361 271.507 355.087C274.325 350.852 274.307 345.475 271.381 341.479L271.431 341.442Z" fill="#57565F" stroke="white" stroke-width="6" stroke-miterlimit="10"/>
<rect x="106.175" y="235.257" width="20.0928" height="83.9752" rx="9" transform="rotate(-37.0782 106.175 235.257)" fill="#ABAAAF" stroke="white" stroke-width="6"/>
<circle cx="779.312" cy="317.435" r="104.5" fill="#45444C" stroke="white" stroke-width="6"/>
<circle cx="7.5" cy="7.5" r="4.5" transform="matrix(1 0 0 -1 874.812 246.935)" fill="white" stroke="white" stroke-width="6"/>
<circle cx="7.5" cy="7.5" r="4.5" transform="matrix(1 0 0 -1 832.812 212.935)" fill="white" stroke="white" stroke-width="6"/>
<circle cx="7.5" cy="7.5" r="4.5" transform="matrix(1 0 0 -1 769.812 197.935)" fill="white" stroke="white" stroke-width="6"/>
<circle cx="7.5" cy="7.5" r="4.5" transform="matrix(1 0 0 -1 711.812 212.935)" fill="white" stroke="white" stroke-width="6"/>
<circle cx="7.5" cy="7.5" r="4.5" transform="matrix(1 0 0 -1 667.812 246.935)" fill="white" stroke="white" stroke-width="6"/>
<circle cx="7.5" cy="7.5" r="4.5" transform="matrix(1 0 0 -1 640.812 299.935)" fill="white" stroke="white" stroke-width="6"/>
<circle cx="7.5" cy="7.5" r="4.5" transform="matrix(1 0 0 -1 639.812 357.935)" fill="white" stroke="white" stroke-width="6"/>
<circle cx="7.5" cy="7.5" r="4.5" transform="matrix(1 0 0 -1 903.812 357.935)" fill="white" stroke="white" stroke-width="6"/>
<circle cx="7.5" cy="7.5" r="4.5" transform="matrix(1 0 0 -1 881.812 412.935)" fill="white" stroke="white" stroke-width="6"/>
<circle cx="7.5" cy="7.5" r="4.5" transform="matrix(1 0 0 -1 663.812 414.935)" fill="white" stroke="white" stroke-width="6"/>
<circle cx="7.5" cy="7.5" r="4.5" transform="matrix(1 0 0 -1 703.812 448.935)" fill="white" stroke="white" stroke-width="6"/>
<circle cx="7.5" cy="7.5" r="4.5" transform="matrix(1 0 0 -1 841.812 448.935)" fill="white" stroke="white" stroke-width="6"/>
<circle cx="7.5" cy="7.5" r="4.5" transform="matrix(1 0 0 -1 901.812 299.935)" fill="white" stroke="white" stroke-width="6"/>
<path d="M761.003 411.565L888.879 308.713C892.738 305.609 894.153 300.333 892.478 295.551C876.92 249.803 841.153 222.777 825.712 212.83C821.41 210.083 815.906 210.371 812.046 213.475L684.452 316.1C680.593 319.204 679.131 324.518 680.854 329.261C687.25 346.562 705.932 387.33 747.375 412.258C751.733 414.881 757.104 414.62 760.964 411.516L761.003 411.565Z" fill="#57565F" stroke="white" stroke-width="6" stroke-miterlimit="10"/>
<rect x="859.606" y="241.679" width="20.0928" height="83.9752" rx="9" transform="rotate(50.3306 859.606 241.679)" fill="#ABAAAF" stroke="white" stroke-width="6"/>
<path d="M339.812 695.935L295.871 820.787C293.189 828.449 289.902 835.675 286.01 842.467C282.117 849.345 276.927 855.091 270.44 859.88C263.952 864.668 255.562 867.629 245.182 868.935L242.587 856.223C251.15 854.656 257.897 852.305 262.828 849.171C267.672 846.036 271.564 842.031 274.332 837.155C277.1 832.28 279.609 826.533 281.771 819.829H276.927L232.812 696.022H248.469L287.221 807.292L324.675 696.022H339.812V695.935Z" fill="white"/>
<path d="M137.952 810.456C148.673 810.456 157.002 808.456 163.116 804.456C169.23 800.456 172.243 795.152 172.243 788.543C172.243 784.456 171.623 780.978 170.294 777.935C168.964 774.891 166.129 772.195 161.787 769.848C157.445 767.5 150.8 765.239 141.762 763.065C132.724 760.891 124.926 758.456 118.369 755.761C111.812 753.065 106.673 749.587 103.129 745.326C99.5846 741.065 97.7239 735.326 97.7239 728.195C97.7239 721.065 99.6733 715.587 103.661 710.804C107.648 706.022 113.053 702.282 119.964 699.761C126.876 697.239 134.673 695.935 143.357 695.935C153.192 695.935 161.699 697.239 168.964 699.848C176.23 702.456 182.344 705.587 187.306 709.239L180.395 720.022C175.787 716.804 170.648 714.195 164.977 712.022C159.306 709.935 152.129 708.891 143.445 708.891C132.369 708.891 124.572 710.63 120.142 714.022C115.711 717.5 113.407 721.848 113.407 727.065C113.407 731.152 114.471 734.456 116.686 737.065C118.901 739.674 122.445 742.022 127.496 744.022C132.547 746.022 139.281 748.108 147.787 750.456C156.028 752.543 163.205 755.152 169.319 758.108C175.433 761.065 180.218 764.978 183.673 769.761C187.129 774.543 188.812 780.717 188.812 788.282C188.812 796.978 186.331 803.935 181.369 809.152C176.407 814.369 170.028 818.108 162.142 820.456C154.344 822.804 146.192 823.935 137.775 823.935C126.699 823.935 117.306 822.369 109.775 819.152C102.154 815.935 95.8631 812.195 90.8125 807.848L100.028 797.152C104.99 801.239 110.661 804.456 117.129 806.978C123.597 809.413 130.509 810.717 137.952 810.717V810.456Z" fill="white"/>
<path d="M444.813 696.656V804.807C444.813 817.286 441.75 827.858 435.626 836.524C429.502 845.103 420.754 852.036 409.293 857.322C397.92 862.522 384.185 866.421 368.262 868.935L365.812 857.582C377.973 855.762 388.909 852.903 398.62 848.916C408.331 844.93 416.03 839.471 421.629 832.451C427.315 825.432 430.115 816.593 430.115 805.847V709.309H376.223V696.656H444.813ZM427.84 640.935C431.602 640.935 434.664 642.061 436.939 644.314C439.213 646.567 440.351 649.341 440.351 652.547C440.351 656.013 439.213 658.873 436.939 661.213C434.664 663.553 431.69 664.679 427.84 664.679C424.253 664.679 421.454 663.553 419.267 661.213C417.079 658.873 416.03 656.013 416.03 652.547C416.03 649.341 417.079 646.567 419.267 644.314C421.454 642.061 424.341 640.935 427.84 640.935Z" stroke="white" stroke-width="6" stroke-miterlimit="10"/>
<path opacity="0.5" d="M274.312 845.935C285.634 845.935 294.812 836.756 294.812 825.435C294.812 814.113 285.634 804.935 274.312 804.935C262.991 804.935 253.812 814.113 253.812 825.435C253.812 836.756 262.991 845.935 274.312 845.935Z" fill="white"/>
<path opacity="0.5" d="M96.3125 823.935C107.634 823.935 116.812 814.756 116.812 803.435C116.812 792.113 107.634 782.935 96.3125 782.935C84.9907 782.935 75.8125 792.113 75.8125 803.435C75.8125 814.756 84.9907 823.935 96.3125 823.935Z" fill="white"/>
<path opacity="0.5" d="M183.312 736.935C194.634 736.935 203.812 727.756 203.812 716.435C203.812 705.113 194.634 695.935 183.312 695.935C171.991 695.935 162.812 705.113 162.812 716.435C162.812 727.756 171.991 736.935 183.312 736.935Z" fill="#A2FF88"/>
<path opacity="0.5" d="M369.312 884.935C380.634 884.935 389.812 875.756 389.812 864.435C389.812 853.113 380.634 843.935 369.312 843.935C357.991 843.935 348.812 853.113 348.812 864.435C348.812 875.756 357.991 884.935 369.312 884.935Z" fill="white"/>
<path d="M516.21 765.705C516.465 776.032 518.252 784.537 521.655 791.132C525.057 797.727 529.566 802.587 535.181 805.798C540.795 808.922 546.92 810.484 553.47 810.484C560.021 810.484 565.465 809.529 570.484 807.707C575.418 805.798 580.608 802.934 586.052 799.116L593.538 810.05C587.924 814.476 581.628 817.86 574.568 820.29C567.507 822.72 560.701 823.935 553.981 823.935C542.837 823.935 533.309 821.244 525.398 815.951C517.486 810.657 511.361 803.194 507.108 793.562C502.854 783.929 500.812 772.821 500.812 759.978C500.812 747.135 502.939 736.374 507.278 726.741C511.616 717.109 517.571 709.559 525.227 704.092C532.884 698.625 541.731 695.935 551.854 695.935C561.977 695.935 570.059 698.364 577.12 703.224C584.095 708.084 589.455 714.939 593.198 723.878C596.941 732.729 598.812 743.403 598.812 755.639C598.812 757.722 598.812 759.631 598.727 761.366C598.727 763.015 598.557 764.491 598.472 765.792H516.21V765.705ZM552.28 709.559C542.497 709.559 534.33 713.117 527.694 720.146C521.059 727.175 517.316 738.023 516.465 752.602H585.201C584.861 738.109 581.714 727.349 575.674 720.233C569.634 713.117 561.807 709.559 552.28 709.559Z" fill="white"/>
<path opacity="0.5" d="M591.312 825.935C602.634 825.935 611.812 816.756 611.812 805.435C611.812 794.113 602.634 784.935 591.312 784.935C579.991 784.935 570.812 794.113 570.812 805.435C570.812 816.756 579.991 825.935 591.312 825.935Z" fill="#A2FF88"/>
<path d="M190.812 724.935V917.935H335.812" stroke="white" stroke-width="4" stroke-miterlimit="10"/>
<path d="M94.8125 814.935V917.935H190.813" stroke="white" stroke-width="4" stroke-miterlimit="10"/>
<path d="M365.812 875.935V895.935" stroke="white" stroke-width="4" stroke-miterlimit="10"/>
<path d="M588.812 819.935V916.935H570.812" stroke="white" stroke-width="4" stroke-miterlimit="10"/>
<path d="M264.813 823.935H216.812V672.935" stroke="white" stroke-width="4" stroke-miterlimit="10"/>
<path d="M743.812 777.935V1000.74H297.812V1099.93" stroke="white" stroke-width="4" stroke-miterlimit="10"/>
<path d="M640.941 841.07L628.555 834.833L735.437 655.96L747.303 661.937L641.027 840.983L640.941 841.07ZM674.374 778.01V764.41H760.642V778.01H674.374ZM700.358 734.872V721.273H760.555V734.872H700.358Z" fill="white"/>
<path opacity="0.5" d="M755.965 734.872V721.272H868.564V734.872H755.965ZM755.965 778.009V764.41H868.564V778.009H755.965Z" fill="white"/>
<g opacity="0.5">
<path d="M704.254 735.132L686.671 764.67H756.136V778.27H678.616L641.198 841.243L628.812 835.093L735.608 656.22L747.474 662.197L712.309 721.533H756.136V735.132H704.254Z" fill="white"/>
</g>
<path d="M424.85 1132.27L441.968 1142.84V1146.02L424.85 1156.71L407.769 1146.02V1142.84L424.85 1132.27ZM424.85 1153.4L439.306 1144.45L424.85 1135.58L410.431 1144.45L424.85 1153.4Z" fill="#ABAAAF"/>
<path d="M536.454 1159.84L533.939 1158.73L549.764 1126.09L552.241 1127.31L536.454 1159.84ZM499.481 1159.84L496.967 1158.73L512.791 1126.09L515.268 1127.31L499.481 1159.84ZM517.967 1159.84L515.453 1158.73L531.277 1126.09L533.755 1127.31L517.967 1159.84Z" fill="white"/>
<path d="M607.15 1083.76V1081.06H625.1V1083.76H607.15ZM607.15 1090.79V1088.09H625.1V1090.79H607.15Z" fill="#ABAAAF"/>
<path d="M624.332 1083.76V1081.06H649.695V1083.76H624.332ZM624.332 1090.79V1088.09H649.695V1090.79H624.332ZM644.87 1074.66L654.927 1085.92L644.87 1097.19L642.559 1095.23L644.888 1092.71C645.172 1092.38 645.486 1092.05 645.831 1091.73C646.164 1091.41 646.608 1091.1 647.162 1090.79L649.066 1088.09L651.044 1085.92L649.066 1083.76L647.162 1081.06C646.608 1080.75 646.164 1080.44 645.831 1080.12C645.486 1079.79 645.172 1079.46 644.888 1079.14L642.559 1076.62L644.87 1074.66ZM654.483 1074.66L664.539 1085.92L654.483 1097.19L652.191 1095.23L660.657 1085.92L652.191 1076.62L654.483 1074.66Z" fill="#ABAAAF"/>
<path d="M721.607 1129.7H724.417V1159.34H721.607L700.274 1146.02V1142.84L721.607 1129.7ZM721.607 1155.99V1132.97L702.936 1144.45L721.607 1155.99Z" fill="#ABAAAF"/>
<path d="M836.836 1055.19H839.831L836.466 1074.66H832.048L829.534 1060.37L826.465 1074.66H822.01L819.718 1060.37L817.352 1074.66H812.767L810.308 1060.37L807.665 1074.66H803.191L800.695 1060.37L798.126 1074.66H793.541L791.083 1060.37L788.365 1074.66H784.076L780.545 1055.19H783.707L786.202 1072.74L789.308 1057.67H792.987L795.87 1072.74L798.865 1057.67H802.636L805.483 1072.74L808.515 1057.67H812.212L815.059 1072.74L817.906 1057.67H821.677L824.265 1072.74L827.759 1057.67H831.438L834.34 1072.74L836.836 1055.19Z" fill="#ABAAAF"/>
<path d="M907.856 1134.06L909.353 1136.45L896.302 1144.45L914.178 1155.49L912.515 1157.77L893.64 1146.02V1142.84L907.856 1134.06ZM912.515 1161.52L910 1160.39L926.638 1126.09L929.115 1127.31L912.515 1161.52Z" fill="#ABAAAF"/>
<path d="M58.3023 1232.14H75.4946V1234.82H56.4537L49.7802 1223.19L44.7704 1231.96H41.4429L48.4307 1220.4H51.2036L58.3023 1232.14ZM56.4537 1241.85V1239.15H75.4946V1241.85H56.4537Z" fill="#ABAAAF"/>
<path d="M151.512 1251.8L149.035 1250.56L166.19 1221.82L168.593 1223.03L151.512 1251.8ZM188.189 1228.59V1231.27H129.439V1228.59H188.189ZM188.189 1242.63V1245.33H129.439V1242.63H188.189ZM188.189 1235.62V1238.3H129.439V1235.62H188.189Z" fill="#ABAAAF"/>
<path d="M241.016 1234.75V1232.05H258.966V1234.75H241.016ZM241.016 1241.78V1239.08H258.966V1241.78H241.016Z" fill="#ABAAAF"/>
<path d="M258.212 1234.75V1232.05H281.135V1234.75H258.212ZM258.212 1241.78V1239.08H281.135V1241.78H258.212ZM262.372 1251.8L259.895 1250.56L277.05 1221.82L279.453 1223.03L262.372 1251.8Z" fill="#ABAAAF"/>
<path d="M280.381 1234.75V1232.05H298.332V1234.75H280.381ZM280.381 1241.78V1239.08H298.332V1241.78H280.381Z" fill="#ABAAAF"/>
<path d="M368.651 1226.98L369.89 1229.39L355.23 1236.91L369.89 1244.46L368.633 1246.84L352.309 1238.49V1235.34L368.651 1226.98ZM387.137 1226.98L388.376 1229.39L373.716 1236.91L388.376 1244.46L387.119 1246.84L370.795 1238.49V1235.34L387.137 1226.98Z" fill="#ABAAAF"/>
<path d="M463.543 1224.8V1228.09L449.216 1236.91L463.543 1245.77V1249.08L446.554 1238.49V1235.3L463.543 1224.8ZM474.782 1224.8L491.845 1235.3V1238.49L474.782 1249.14V1245.77L489.183 1236.91L474.782 1228.07V1224.8ZM470.568 1221.73V1252.24H467.795V1221.73H470.568Z" fill="#ABAAAF"/>
<path d="M569.333 1234.75H556.393V1232.05H569.333V1234.75ZM569.333 1241.78H556.393V1239.08H569.333V1241.78ZM561.366 1225.65L563.658 1227.61L561.347 1230.13C561.064 1230.45 560.75 1230.77 560.404 1231.11C560.072 1231.43 559.628 1231.74 559.073 1232.05L557.169 1234.75L555.191 1236.91L557.169 1239.08L559.073 1241.78C559.628 1242.09 560.072 1242.4 560.404 1242.72C560.75 1243.04 561.064 1243.37 561.347 1243.7L563.658 1246.21L561.366 1248.18L551.309 1236.91L561.366 1225.65Z" fill="#ABAAAF"/>
<path d="M568.58 1234.75V1232.05H591.503V1234.75H568.58ZM568.58 1241.78V1239.08H591.503V1241.78H568.58Z" fill="#ABAAAF"/>
<path d="M590.749 1232.05H600.879V1234.75H590.749V1232.05ZM590.749 1239.08H600.879V1241.78H590.749V1239.08ZM597.57 1234.75L605.704 1225.65L607.996 1227.61L601.508 1234.75H597.57ZM597.57 1239.08H601.508L607.996 1246.21L605.704 1248.18L597.57 1239.08Z" fill="#ABAAAF"/>
<path d="M692.554 1217.11V1222.51C693.552 1222.61 694.582 1222.8 695.641 1223.08C696.701 1223.36 697.736 1223.72 698.747 1224.15C699.758 1224.57 700.682 1225.05 701.52 1225.6V1228.87C700.041 1227.92 698.747 1227.18 697.638 1226.65C696.516 1226.11 695.543 1225.71 694.717 1225.45C693.891 1225.19 693.17 1225.02 692.554 1224.95V1233.68C693.491 1233.99 694.427 1234.37 695.364 1234.84C696.301 1235.31 697.163 1235.88 697.952 1236.54C698.741 1237.21 699.376 1237.99 699.856 1238.89C700.337 1239.78 700.577 1240.79 700.577 1241.92C700.577 1243.1 700.38 1244.17 699.986 1245.16C699.579 1246.13 699.012 1247 698.285 1247.75C697.558 1248.49 696.707 1249.09 695.734 1249.56C694.76 1250.03 693.7 1250.34 692.554 1250.51V1254.15H690.059V1250.62C688.999 1250.65 688.044 1250.61 687.193 1250.49C686.343 1250.38 685.468 1250.15 684.568 1249.8C683.668 1249.46 682.602 1248.96 681.37 1248.32V1244.99C682.824 1245.86 684.051 1246.49 685.049 1246.9C686.035 1247.31 686.916 1247.56 687.692 1247.68C688.469 1247.77 689.258 1247.81 690.059 1247.77V1236.01C687.902 1235.29 686.238 1234.37 685.067 1233.25C683.884 1232.12 683.293 1230.69 683.293 1228.98C683.293 1227.98 683.545 1227.02 684.05 1226.1C684.543 1225.17 685.295 1224.38 686.306 1223.73C687.304 1223.06 688.555 1222.66 690.059 1222.51V1217.11H692.554ZM692.554 1236.88V1247.6C693.38 1247.43 694.15 1247.14 694.865 1246.73C695.567 1246.33 696.134 1245.74 696.566 1244.98C696.997 1244.2 697.213 1243.19 697.213 1241.96C697.213 1240.96 696.788 1240.01 695.937 1239.11C695.087 1238.2 693.959 1237.46 692.554 1236.88ZM690.059 1225.04C689.048 1225.21 688.222 1225.65 687.581 1226.34C686.928 1227.03 686.602 1227.89 686.602 1228.92C686.602 1229.79 686.842 1230.52 687.323 1231.13C687.791 1231.73 688.703 1232.31 690.059 1232.86V1225.04ZM679.836 1226.54L679.281 1230.2L668.319 1236.91L681.37 1244.99V1248.32L665.657 1238.49V1235.3L679.836 1226.54ZM701.52 1225.6L717.233 1235.3V1238.49L703.535 1247.12L704.348 1243.11L714.571 1236.91L701.52 1228.87V1225.6Z" fill="white"/>
<path d="M787.124 1222.34L789.12 1223.64L771.614 1249.23L769.673 1247.93L787.124 1222.34ZM784.591 1239.04C783.864 1239.04 783.248 1239.34 782.742 1239.93C782.237 1240.51 781.984 1241.44 781.984 1242.74C781.984 1243.93 782.231 1244.87 782.724 1245.53C783.217 1246.2 783.839 1246.53 784.591 1246.53C785.33 1246.53 785.94 1246.23 786.421 1245.62C786.914 1245.02 787.161 1244.06 787.161 1242.74C787.161 1241.41 786.914 1240.46 786.421 1239.89C785.94 1239.32 785.33 1239.04 784.591 1239.04ZM774.608 1224.84C773.881 1224.84 773.265 1225.14 772.76 1225.74C772.254 1226.35 772.002 1227.28 772.002 1228.54C772.002 1229.74 772.248 1230.68 772.741 1231.35C773.234 1232 773.857 1232.33 774.608 1232.33C775.348 1232.33 775.958 1232.03 776.439 1231.42C776.932 1230.82 777.178 1229.86 777.178 1228.54C777.178 1227.21 776.932 1226.26 776.439 1225.69C775.958 1225.12 775.348 1224.84 774.608 1224.84ZM774.608 1222.62C775.767 1222.62 776.747 1222.89 777.548 1223.43C778.349 1223.98 778.959 1224.7 779.378 1225.6C779.809 1226.5 780.025 1227.48 780.025 1228.54C780.025 1229.57 779.809 1230.55 779.378 1231.46C778.959 1232.37 778.349 1233.11 777.548 1233.68C776.747 1234.23 775.767 1234.51 774.608 1234.51C773.462 1234.51 772.483 1234.23 771.669 1233.68C770.856 1233.11 770.233 1232.37 769.802 1231.46C769.371 1230.55 769.155 1229.57 769.155 1228.54C769.155 1227.46 769.371 1226.48 769.802 1225.6C770.233 1224.7 770.856 1223.98 771.669 1223.43C772.483 1222.89 773.462 1222.62 774.608 1222.62ZM784.591 1236.8C785.749 1236.8 786.729 1237.08 787.53 1237.63C788.331 1238.18 788.941 1238.9 789.36 1239.8C789.792 1240.7 790.007 1241.68 790.007 1242.74C790.007 1243.79 789.792 1244.77 789.36 1245.68C788.941 1246.58 788.331 1247.31 787.53 1247.88C786.729 1248.43 785.749 1248.71 784.591 1248.71C783.445 1248.71 782.465 1248.43 781.652 1247.88C780.838 1247.31 780.216 1246.58 779.785 1245.68C779.353 1244.77 779.138 1243.79 779.138 1242.74C779.138 1241.67 779.353 1240.68 779.785 1239.78C780.216 1238.88 780.838 1238.16 781.652 1237.62C782.465 1237.07 783.445 1236.8 784.591 1236.8Z" fill="#ABAAAF"/>
<path d="M809.293 1222.34L811.289 1223.64L793.783 1249.23L791.842 1247.93L809.293 1222.34ZM806.76 1239.04C806.033 1239.04 805.417 1239.34 804.911 1239.93C804.406 1240.51 804.154 1241.44 804.154 1242.74C804.154 1243.93 804.4 1244.87 804.893 1245.53C805.386 1246.2 806.008 1246.53 806.76 1246.53C807.5 1246.53 808.11 1246.23 808.59 1245.62C809.083 1245.02 809.33 1244.06 809.33 1242.74C809.33 1241.41 809.083 1240.46 808.59 1239.89C808.11 1239.32 807.5 1239.04 806.76 1239.04ZM796.778 1224.84C796.05 1224.84 795.434 1225.14 794.929 1225.74C794.424 1226.35 794.171 1227.28 794.171 1228.54C794.171 1229.74 794.417 1230.68 794.91 1231.35C795.403 1232 796.026 1232.33 796.778 1232.33C797.517 1232.33 798.127 1232.03 798.608 1231.42C799.101 1230.82 799.347 1229.86 799.347 1228.54C799.347 1227.21 799.101 1226.26 798.608 1225.69C798.127 1225.12 797.517 1224.84 796.778 1224.84ZM796.778 1222.62C797.936 1222.62 798.916 1222.89 799.717 1223.43C800.518 1223.98 801.128 1224.7 801.547 1225.6C801.978 1226.5 802.194 1227.48 802.194 1228.54C802.194 1229.57 801.978 1230.55 801.547 1231.46C801.128 1232.37 800.518 1233.11 799.717 1233.68C798.916 1234.23 797.936 1234.51 796.778 1234.51C795.631 1234.51 794.652 1234.23 793.838 1233.68C793.025 1233.11 792.402 1232.37 791.971 1231.46C791.54 1230.55 791.324 1229.57 791.324 1228.54C791.324 1227.46 791.54 1226.48 791.971 1225.6C792.402 1224.7 793.025 1223.98 793.838 1223.43C794.652 1222.89 795.631 1222.62 796.778 1222.62ZM806.76 1236.8C807.919 1236.8 808.898 1237.08 809.699 1237.63C810.5 1238.18 811.111 1238.9 811.53 1239.8C811.961 1240.7 812.177 1241.68 812.177 1242.74C812.177 1243.79 811.961 1244.77 811.53 1245.68C811.111 1246.58 810.5 1247.31 809.699 1247.88C808.898 1248.43 807.919 1248.71 806.76 1248.71C805.614 1248.71 804.634 1248.43 803.821 1247.88C803.007 1247.31 802.385 1246.58 801.954 1245.68C801.522 1244.77 801.307 1243.79 801.307 1242.74C801.307 1241.67 801.522 1240.68 801.954 1239.78C802.385 1238.88 803.007 1238.16 803.821 1237.62C804.634 1237.07 805.614 1236.8 806.76 1236.8Z" fill="#ABAAAF"/>
<path d="M831.462 1222.34L833.458 1223.64L815.952 1249.23L814.011 1247.93L831.462 1222.34ZM828.929 1239.04C828.202 1239.04 827.586 1239.34 827.081 1239.93C826.575 1240.51 826.323 1241.44 826.323 1242.74C826.323 1243.93 826.569 1244.87 827.062 1245.53C827.555 1246.2 828.177 1246.53 828.929 1246.53C829.669 1246.53 830.279 1246.23 830.759 1245.62C831.252 1245.02 831.499 1244.06 831.499 1242.74C831.499 1241.41 831.252 1240.46 830.759 1239.89C830.279 1239.32 829.669 1239.04 828.929 1239.04ZM818.947 1224.84C818.219 1224.84 817.603 1225.14 817.098 1225.74C816.593 1226.35 816.34 1227.28 816.34 1228.54C816.34 1229.74 816.587 1230.68 817.079 1231.35C817.572 1232 818.195 1232.33 818.947 1232.33C819.686 1232.33 820.296 1232.03 820.777 1231.42C821.27 1230.82 821.516 1229.86 821.516 1228.54C821.516 1227.21 821.27 1226.26 820.777 1225.69C820.296 1225.12 819.686 1224.84 818.947 1224.84ZM818.947 1222.62C820.105 1222.62 821.085 1222.89 821.886 1223.43C822.687 1223.98 823.297 1224.7 823.716 1225.6C824.147 1226.5 824.363 1227.48 824.363 1228.54C824.363 1229.57 824.147 1230.55 823.716 1231.46C823.297 1232.37 822.687 1233.11 821.886 1233.68C821.085 1234.23 820.105 1234.51 818.947 1234.51C817.8 1234.51 816.821 1234.23 816.007 1233.68C815.194 1233.11 814.571 1232.37 814.14 1231.46C813.709 1230.55 813.493 1229.57 813.493 1228.54C813.493 1227.46 813.709 1226.48 814.14 1225.6C814.571 1224.7 815.194 1223.98 816.007 1223.43C816.821 1222.89 817.8 1222.62 818.947 1222.62ZM828.929 1236.8C830.088 1236.8 831.067 1237.08 831.868 1237.63C832.67 1238.18 833.28 1238.9 833.699 1239.8C834.13 1240.7 834.346 1241.68 834.346 1242.74C834.346 1243.79 834.13 1244.77 833.699 1245.68C833.28 1246.58 832.67 1247.31 831.868 1247.88C831.067 1248.43 830.088 1248.71 828.929 1248.71C827.783 1248.71 826.803 1248.43 825.99 1247.88C825.176 1247.31 824.554 1246.58 824.123 1245.68C823.691 1244.77 823.476 1243.79 823.476 1242.74C823.476 1241.67 823.691 1240.68 824.123 1239.78C824.554 1238.88 825.176 1238.16 825.99 1237.62C826.803 1237.07 827.783 1236.8 828.929 1236.8Z" fill="#ABAAAF"/>
<path d="M886.715 1252.3L902.502 1219.77L900.025 1218.55L884.201 1251.19L886.715 1252.3ZM908.825 1226.21H911.967L911.727 1233.7L918.752 1231.2L919.694 1234.12L912.54 1236.23L917.106 1242.15L914.629 1243.96L910.396 1237.78L906.163 1243.96L903.685 1242.15L908.251 1236.23L901.097 1234.12L902.04 1231.2L909.065 1233.7L908.825 1226.21Z" fill="white"/>
<path d="M36.8799 1315.08C38.3958 1315.08 39.696 1315.35 40.7805 1315.89C41.8774 1316.44 42.7154 1317.14 43.2947 1318.02C43.8739 1318.88 44.1635 1319.8 44.1635 1320.78C44.1635 1321.96 43.9417 1322.93 43.498 1323.68C43.0543 1324.42 42.4998 1325.05 41.8342 1325.56C41.1811 1326.07 40.5217 1326.57 39.8562 1327.06C39.1907 1327.54 38.63 1328.11 38.174 1328.76C37.7303 1329.42 37.5085 1330.26 37.5085 1331.28V1332.55H34.3843V1331.09C34.3843 1329.9 34.6 1328.91 35.0313 1328.12C35.475 1327.33 36.0234 1326.66 36.6766 1326.1C37.3298 1325.55 37.9829 1325.03 38.6361 1324.57C39.2893 1324.09 39.8377 1323.57 40.2814 1323.01C40.7251 1322.46 40.9469 1321.77 40.9469 1320.96C40.9469 1319.91 40.5279 1319.1 39.6898 1318.54C38.8518 1317.96 37.8104 1317.67 36.5657 1317.67C35.6906 1317.67 34.791 1317.88 33.8667 1318.32C32.9424 1318.74 32.0981 1319.42 31.334 1320.37L29.1157 1318.74C30.2002 1317.47 31.3895 1316.55 32.6835 1315.97C33.9899 1315.38 35.3887 1315.08 36.8799 1315.08ZM36.0296 1336.42C36.7444 1336.42 37.3421 1336.66 37.8227 1337.14C38.3034 1337.62 38.5437 1338.2 38.5437 1338.88C38.5437 1339.57 38.3034 1340.16 37.8227 1340.65C37.3421 1341.14 36.7444 1341.38 36.0296 1341.38C35.3394 1341.38 34.7602 1341.14 34.2919 1340.65C33.8235 1340.16 33.5894 1339.57 33.5894 1338.88C33.5894 1338.2 33.8235 1337.62 34.2919 1337.14C34.7602 1336.66 35.3394 1336.42 36.0296 1336.42Z" fill="#ABAAAF"/>
<path d="M59.049 1315.08C60.5649 1315.08 61.8651 1315.35 62.9496 1315.89C64.0465 1316.44 64.8845 1317.14 65.4637 1318.02C66.043 1318.88 66.3326 1319.8 66.3326 1320.78C66.3326 1321.96 66.1108 1322.93 65.6671 1323.68C65.2234 1324.42 64.6688 1325.05 64.0033 1325.56C63.3502 1326.07 62.6908 1326.57 62.0253 1327.06C61.3598 1327.54 60.799 1328.11 60.3431 1328.76C59.8994 1329.42 59.6775 1330.26 59.6775 1331.28V1332.55H56.5534V1331.09C56.5534 1329.9 56.769 1328.91 57.2004 1328.12C57.6441 1327.33 58.1925 1326.66 58.8457 1326.1C59.4988 1325.55 60.152 1325.03 60.8052 1324.57C61.4584 1324.09 62.0068 1323.57 62.4505 1323.01C62.8942 1322.46 63.116 1321.77 63.116 1320.96C63.116 1319.91 62.697 1319.1 61.8589 1318.54C61.0209 1317.96 59.9795 1317.67 58.7347 1317.67C57.8597 1317.67 56.9601 1317.88 56.0358 1318.32C55.1114 1318.74 54.2672 1319.42 53.5031 1320.37L51.2848 1318.74C52.3693 1317.47 53.5586 1316.55 54.8526 1315.97C56.159 1315.38 57.5578 1315.08 59.049 1315.08ZM58.1986 1336.42C58.9134 1336.42 59.5112 1336.66 59.9918 1337.14C60.4725 1337.62 60.7128 1338.2 60.7128 1338.88C60.7128 1339.57 60.4725 1340.16 59.9918 1340.65C59.5112 1341.14 58.9134 1341.38 58.1986 1341.38C57.5085 1341.38 56.9293 1341.14 56.4609 1340.65C55.9926 1340.16 55.7585 1339.57 55.7585 1338.88C55.7585 1338.2 55.9926 1337.62 56.4609 1337.14C56.9293 1336.66 57.5085 1336.42 58.1986 1336.42Z" fill="#ABAAAF"/>
<path d="M81.2181 1315.08C82.734 1315.08 84.0342 1315.35 85.1187 1315.89C86.2156 1316.44 87.0536 1317.14 87.6328 1318.02C88.2121 1318.88 88.5017 1319.8 88.5017 1320.78C88.5017 1321.96 88.2799 1322.93 87.8362 1323.68C87.3925 1324.42 86.8379 1325.05 86.1724 1325.56C85.5192 1326.07 84.8599 1326.57 84.1944 1327.06C83.5289 1327.54 82.9681 1328.11 82.5121 1328.76C82.0685 1329.42 81.8466 1330.26 81.8466 1331.28V1332.55H78.7225V1331.09C78.7225 1329.9 78.9381 1328.91 79.3695 1328.12C79.8131 1327.33 80.3616 1326.66 81.0148 1326.1C81.6679 1325.55 82.3211 1325.03 82.9743 1324.57C83.6275 1324.09 84.1759 1323.57 84.6196 1323.01C85.0633 1322.46 85.2851 1321.77 85.2851 1320.96C85.2851 1319.91 84.8661 1319.1 84.028 1318.54C83.19 1317.96 82.1486 1317.67 80.9038 1317.67C80.0288 1317.67 79.1292 1317.88 78.2048 1318.32C77.2805 1318.74 76.4363 1319.42 75.6722 1320.37L73.4539 1318.74C74.5384 1317.47 75.7277 1316.55 77.0217 1315.97C78.3281 1315.38 79.7269 1315.08 81.2181 1315.08ZM80.3677 1336.42C81.0825 1336.42 81.6803 1336.66 82.1609 1337.14C82.6415 1337.62 82.8819 1338.2 82.8819 1338.88C82.8819 1339.57 82.6415 1340.16 82.1609 1340.65C81.6803 1341.14 81.0825 1341.38 80.3677 1341.38C79.6776 1341.38 79.0983 1341.14 78.63 1340.65C78.1617 1340.16 77.9275 1339.57 77.9275 1338.88C77.9275 1338.2 78.1617 1337.62 78.63 1337.14C79.0983 1336.66 79.6776 1336.42 80.3677 1336.42Z" fill="#ABAAAF"/>
<path d="M149.796 1327.21V1324.51H159.205V1327.21H149.796ZM145.544 1334.24V1331.54H159.205V1334.24H145.544ZM140.442 1344.26L137.965 1343.02L155.12 1314.28L157.523 1315.49L140.442 1344.26Z" fill="white"/>
<path d="M158.451 1327.21V1324.51H176.402V1327.21H158.451ZM158.451 1334.24V1331.54H176.402V1334.24H158.451Z" fill="white"/>
<path d="M665.697 1324.09L664.606 1332.28H679.709V1334.68H664.255L663.479 1340.95H660.816L661.648 1334.68H656.269L655.455 1340.95H652.793L653.625 1334.68H650.704V1332.28H653.94L655.067 1324.09H652.072V1321.66H655.381L656.195 1315.49H658.857L657.97 1321.66H663.405L664.218 1315.49H666.88L666.011 1321.66H679.709V1324.09H665.697ZM656.583 1332.28H661.963L663.09 1324.09H657.674L656.583 1332.28ZM685.403 1310.05V1312.49C684.503 1312.49 683.684 1312.58 682.945 1312.77C682.217 1312.94 681.65 1313.24 681.244 1313.67C680.849 1314.11 680.683 1314.7 680.745 1315.45L681.521 1323.03C681.632 1324.07 681.57 1324.92 681.336 1325.6C681.102 1326.28 680.708 1326.81 680.153 1327.19C679.611 1327.57 678.914 1327.85 678.064 1328.01C678.927 1328.15 679.635 1328.41 680.19 1328.78C680.745 1329.14 681.133 1329.66 681.355 1330.34C681.577 1331 681.632 1331.88 681.521 1332.98L680.745 1340.56C680.683 1341.33 680.849 1341.92 681.244 1342.36C681.638 1342.79 682.205 1343.09 682.945 1343.26C683.684 1343.43 684.503 1343.52 685.403 1343.52V1345.96C684.368 1345.96 683.376 1345.87 682.427 1345.68C681.478 1345.51 680.64 1345.21 679.913 1344.78C679.186 1344.35 678.637 1343.75 678.267 1343C677.898 1342.26 677.775 1341.33 677.898 1340.19L678.637 1333.17C678.736 1332.31 678.656 1331.6 678.397 1331.02C678.15 1330.44 677.608 1330 676.77 1329.71C675.944 1329.4 674.706 1329.24 673.054 1329.24V1326.77C674.706 1326.77 675.944 1326.62 676.77 1326.32C677.608 1326.03 678.15 1325.59 678.397 1325.01C678.656 1324.43 678.736 1323.72 678.637 1322.88L677.898 1315.82C677.775 1314.69 677.898 1313.75 678.267 1313.01C678.637 1312.26 679.179 1311.66 679.894 1311.23C680.621 1310.8 681.459 1310.5 682.408 1310.33C683.37 1310.14 684.368 1310.05 685.403 1310.05Z" fill="#ABAAAF"/>
<path d="M754.373 1324.09L753.282 1332.28H765.428V1334.68H752.931L752.155 1340.95H749.493L750.325 1334.68H744.945L744.132 1340.95H741.47L742.302 1334.68H739.381V1332.28H742.616L743.744 1324.09H740.749V1321.66H744.058L744.871 1315.49H747.533L746.646 1321.66H752.081L752.894 1315.49H755.556L754.687 1321.66H765.428V1324.09H754.373ZM745.259 1332.28H750.639L751.767 1324.09H746.35L745.259 1332.28ZM765.243 1328.01C765.243 1329.93 765.409 1331.65 765.742 1333.18C766.075 1334.7 766.568 1336.09 767.221 1337.36C767.874 1338.62 768.694 1339.82 769.68 1340.95C770.678 1342.1 771.837 1343.26 773.155 1344.43L771.528 1346.13C769.532 1344.49 767.819 1342.81 766.389 1341.1C764.972 1339.38 763.881 1337.47 763.117 1335.37C762.365 1333.26 761.99 1330.8 761.99 1328.01C761.99 1325.19 762.365 1322.74 763.117 1320.63C763.881 1318.52 764.972 1316.61 766.389 1314.89C767.819 1313.18 769.532 1311.51 771.528 1309.88L773.155 1311.58C771.824 1312.77 770.66 1313.93 769.661 1315.08C768.675 1316.21 767.856 1317.41 767.203 1318.67C766.549 1319.91 766.057 1321.3 765.724 1322.83C765.403 1324.34 765.243 1326.07 765.243 1328.01Z" fill="white"/>
<path d="M840.587 1310.05V1312.49C839.687 1312.49 838.868 1312.58 838.128 1312.77C837.401 1312.94 836.834 1313.24 836.427 1313.67C836.033 1314.11 835.867 1314.7 835.928 1315.45L836.705 1323.03C836.816 1324.07 836.754 1324.92 836.52 1325.6C836.286 1326.28 835.891 1326.81 835.337 1327.19C834.794 1327.57 834.098 1327.85 833.248 1328.01C834.11 1328.15 834.819 1328.41 835.374 1328.78C835.928 1329.14 836.316 1329.66 836.538 1330.34C836.76 1331 836.816 1331.88 836.705 1332.98L835.928 1340.56C835.867 1341.33 836.033 1341.92 836.427 1342.36C836.822 1342.79 837.389 1343.09 838.128 1343.26C838.868 1343.43 839.687 1343.52 840.587 1343.52V1345.96C839.552 1345.96 838.559 1345.87 837.61 1345.68C836.662 1345.51 835.824 1345.21 835.096 1344.78C834.369 1344.35 833.821 1343.75 833.451 1343C833.081 1342.26 832.958 1341.33 833.081 1340.19L833.821 1333.17C833.919 1332.31 833.839 1331.6 833.581 1331.02C833.334 1330.44 832.792 1330 831.954 1329.71C831.128 1329.4 829.889 1329.24 828.238 1329.24V1326.77C829.889 1326.77 831.128 1326.62 831.954 1326.32C832.792 1326.03 833.334 1325.59 833.581 1325.01C833.839 1324.43 833.919 1323.72 833.821 1322.88L833.081 1315.82C832.958 1314.69 833.081 1313.75 833.451 1313.01C833.821 1312.26 834.363 1311.66 835.078 1311.23C835.805 1310.8 836.643 1310.5 837.592 1310.33C838.553 1310.14 839.552 1310.05 840.587 1310.05Z" fill="#ABAAAF"/>
<path d="M849.742 1330.72V1328.02H864.568V1330.72H849.742Z" fill="#ABAAAF"/>
<path d="M914.511 1312.23L916.988 1311.01L932.812 1343.65L930.298 1344.76L914.511 1312.23Z" fill="#ABAAAF"/>
<path d="M38.8323 1404.69L41.3094 1403.47L57.1337 1436.11L54.6195 1437.22L38.8323 1404.69Z" fill="white"/>
<path d="M61.0013 1404.69L63.4785 1403.47L79.3028 1436.11L76.7886 1437.22L61.0013 1404.69Z" fill="white"/>
<path d="M146.387 1423.19V1420.49H165.317V1423.19H146.387ZM136.719 1426.24C135.856 1426.24 135.092 1426.05 134.427 1425.66C133.749 1425.27 133.213 1424.73 132.818 1424.05C132.424 1423.36 132.227 1422.59 132.227 1421.74C132.227 1420.88 132.424 1420.12 132.818 1419.45C133.213 1418.77 133.749 1418.24 134.427 1417.86C135.092 1417.48 135.856 1417.29 136.719 1417.29C137.581 1417.29 138.352 1417.48 139.03 1417.88C139.707 1418.26 140.244 1418.79 140.638 1419.47C141.02 1420.15 141.211 1420.92 141.211 1421.78C141.211 1422.63 141.02 1423.39 140.638 1424.07C140.244 1424.75 139.707 1425.28 139.03 1425.66C138.352 1426.05 137.581 1426.24 136.719 1426.24Z" fill="white"/>
<path d="M218.847 1419.67V1416.97H236.797V1419.67H218.847ZM218.847 1426.7V1424H236.797V1426.7H218.847Z" fill="#ABAAAF"/>
<path d="M244.528 1426.46C244.528 1425.66 244.812 1424.96 245.379 1424.37C245.946 1423.78 246.654 1423.48 247.505 1423.48C248.367 1423.48 249.082 1423.78 249.649 1424.37C250.216 1424.96 250.499 1425.66 250.499 1426.46C250.499 1427.3 250.216 1428.01 249.649 1428.6C249.082 1429.18 248.367 1429.47 247.505 1429.47C246.654 1429.47 245.946 1429.18 245.379 1428.6C244.812 1428.01 244.528 1427.3 244.528 1426.46ZM244.528 1417.36C244.528 1416.81 244.658 1416.31 244.917 1415.86C245.175 1415.41 245.527 1415.05 245.97 1414.79C246.426 1414.52 246.938 1414.38 247.505 1414.38C248.072 1414.38 248.583 1414.52 249.039 1414.79C249.495 1415.05 249.852 1415.41 250.111 1415.86C250.37 1416.31 250.499 1416.81 250.499 1417.36C250.499 1418.19 250.216 1418.89 249.649 1419.49C249.082 1420.08 248.367 1420.37 247.505 1420.37C246.654 1420.37 245.946 1420.08 245.379 1419.49C244.812 1418.89 244.528 1418.19 244.528 1417.36ZM236.043 1419.67V1416.97H239.352V1419.67H236.043ZM236.043 1426.7V1424H239.352V1426.7H236.043ZM255.657 1419.67V1416.97H258.966V1419.67H255.657ZM255.657 1426.7V1424H258.966V1426.7H255.657Z" fill="#ABAAAF"/>
<path d="M258.212 1419.67V1416.97H276.162V1419.67H258.212ZM258.212 1426.7V1424H276.162V1426.7H258.212Z" fill="#ABAAAF"/>
<path d="M336.592 1425.85L356.871 1416.95L357.962 1419.36L337.701 1428.36L336.592 1425.85ZM337.276 1434.43L357.555 1425.53L358.646 1427.94L338.366 1436.94L337.276 1434.43ZM336.592 1409.87L337.701 1407.36L357.962 1416.38V1419.36L356.871 1418.78L336.592 1409.87Z" fill="#ABAAAF"/>
<path d="M421.16 1423.2V1420.47H436.319V1423.2H421.16ZM428.351 1410.57L430.644 1412.53L425.375 1418.34C424.87 1418.88 424.463 1419.3 424.155 1419.6C423.847 1419.89 423.465 1420.18 423.009 1420.47V1423.2C423.465 1423.49 423.847 1423.78 424.155 1424.07C424.463 1424.37 424.87 1424.79 425.375 1425.33L430.644 1431.14L428.351 1433.1L418.295 1421.84L428.351 1410.57Z" fill="white"/>
<path d="M435.565 1423.2V1420.47H458.488V1423.2H435.565Z" fill="white"/>
<path d="M472.893 1423.2H457.734V1420.47H472.893V1423.2ZM465.702 1410.57L475.758 1421.84L465.702 1433.1L463.409 1431.14L468.678 1425.33C469.183 1424.79 469.59 1424.37 469.898 1424.07C470.206 1423.78 470.588 1423.49 471.044 1423.2V1420.47C470.588 1420.18 470.206 1419.89 469.898 1419.6C469.59 1419.3 469.183 1418.88 468.678 1418.34L463.409 1412.53L465.702 1410.57Z" fill="white"/>
<path d="M541.77 1407.95L541.456 1425.02H538.665L538.295 1407.95H541.77ZM540.088 1428.88C540.803 1428.88 541.401 1429.12 541.881 1429.6C542.35 1430.08 542.584 1430.66 542.584 1431.34C542.584 1432.03 542.35 1432.62 541.881 1433.12C541.401 1433.6 540.803 1433.84 540.088 1433.84C539.386 1433.84 538.8 1433.6 538.332 1433.12C537.864 1432.62 537.629 1432.03 537.629 1431.34C537.629 1430.66 537.864 1430.08 538.332 1429.6C538.8 1429.12 539.386 1428.88 540.088 1428.88ZM555.081 1407.95L554.766 1425.02H551.975L551.605 1407.95H555.081ZM553.398 1428.88C554.113 1428.88 554.705 1429.12 555.173 1429.6C555.654 1430.08 555.894 1430.66 555.894 1431.34C555.894 1432.03 555.654 1432.62 555.173 1433.12C554.705 1433.6 554.113 1433.84 553.398 1433.84C552.696 1433.84 552.11 1433.6 551.642 1433.12C551.174 1432.62 550.94 1432.03 550.94 1431.34C550.94 1430.66 551.174 1430.08 551.642 1429.6C552.11 1429.12 552.696 1428.88 553.398 1428.88Z" fill="#ABAAAF"/>
<path d="M625.774 1430.82C625.774 1430.02 626.063 1429.32 626.643 1428.73C627.209 1428.14 627.912 1427.85 628.75 1427.85C629.613 1427.85 630.334 1428.14 630.913 1428.73C631.48 1429.32 631.763 1430.02 631.763 1430.82C631.763 1431.66 631.48 1432.38 630.913 1432.97C630.334 1433.55 629.613 1433.84 628.75 1433.84C627.912 1433.84 627.209 1433.55 626.643 1432.97C626.063 1432.38 625.774 1431.66 625.774 1430.82ZM625.774 1417.49C625.774 1416.92 625.903 1416.42 626.162 1415.97C626.421 1415.53 626.778 1415.18 627.234 1414.92C627.69 1414.65 628.195 1414.51 628.75 1414.51C629.613 1414.51 630.334 1414.8 630.913 1415.38C631.48 1415.96 631.763 1416.66 631.763 1417.49C631.763 1418.3 631.48 1419.01 630.913 1419.62C630.334 1420.21 629.613 1420.5 628.75 1420.5C627.912 1420.5 627.209 1420.21 626.643 1419.62C626.063 1419.01 625.774 1418.3 625.774 1417.49ZM643.521 1430.82C643.521 1430.02 643.81 1429.32 644.389 1428.73C644.956 1428.14 645.659 1427.85 646.497 1427.85C647.36 1427.85 648.08 1428.14 648.66 1428.73C649.227 1429.32 649.51 1430.02 649.51 1430.82C649.51 1431.66 649.227 1432.38 648.66 1432.97C648.08 1433.55 647.36 1433.84 646.497 1433.84C645.659 1433.84 644.956 1433.55 644.389 1432.97C643.81 1432.38 643.521 1431.66 643.521 1430.82ZM643.521 1417.49C643.521 1416.92 643.65 1416.42 643.909 1415.97C644.168 1415.53 644.525 1415.18 644.981 1414.92C645.437 1414.65 645.942 1414.51 646.497 1414.51C647.36 1414.51 648.08 1414.8 648.66 1415.38C649.227 1415.96 649.51 1416.66 649.51 1417.49C649.51 1418.3 649.227 1419.01 648.66 1419.62C648.08 1420.21 647.36 1420.5 646.497 1420.5C645.659 1420.5 644.956 1420.21 644.389 1419.62C643.81 1419.01 643.521 1418.3 643.521 1417.49ZM661.267 1430.82C661.267 1430.02 661.551 1429.32 662.118 1428.73C662.697 1428.14 663.406 1427.85 664.244 1427.85C665.106 1427.85 665.821 1428.14 666.388 1428.73C666.967 1429.32 667.257 1430.02 667.257 1430.82C667.257 1431.66 666.967 1432.38 666.388 1432.97C665.821 1433.55 665.106 1433.84 664.244 1433.84C663.406 1433.84 662.697 1433.55 662.118 1432.97C661.551 1432.38 661.267 1431.66 661.267 1430.82ZM661.267 1417.49C661.267 1416.92 661.397 1416.42 661.656 1415.97C661.914 1415.53 662.272 1415.18 662.728 1414.92C663.184 1414.65 663.689 1414.51 664.244 1414.51C665.106 1414.51 665.821 1414.8 666.388 1415.38C666.967 1415.96 667.257 1416.66 667.257 1417.49C667.257 1418.3 666.967 1419.01 666.388 1419.62C665.821 1420.21 665.106 1420.5 664.244 1420.5C663.406 1420.5 662.697 1420.21 662.118 1419.62C661.551 1419.01 661.267 1418.3 661.267 1417.49Z" fill="#ABAAAF"/>
<path d="M715.107 1419.67V1416.97H724.517V1419.67H715.107ZM710.856 1426.7V1424H724.517V1426.7H710.856ZM705.753 1436.72L703.276 1435.48L720.432 1406.75L722.835 1407.95L705.753 1436.72Z" fill="#ABAAAF"/>
<path d="M723.763 1419.67V1416.97H746.686V1419.67H723.763ZM723.763 1426.7V1424H746.686V1426.7H723.763Z" fill="#ABAAAF"/>
<path d="M745.932 1419.67V1416.97H763.882V1419.67H745.932ZM745.932 1426.7V1424H763.882V1426.7H745.932Z" fill="#ABAAAF"/>
<path d="M802.143 1425.85L822.422 1416.95L823.513 1419.36L803.252 1428.36L802.143 1425.85ZM802.827 1434.43L823.106 1425.53L824.197 1427.94L803.917 1436.94L802.827 1434.43ZM802.143 1409.87L803.252 1407.36L823.513 1416.38V1419.36L822.422 1418.78L802.143 1409.87Z" fill="white"/>
<path d="M919.768 1417.06V1419.75H899.304V1417.06H919.768ZM919.768 1424.07V1426.77H899.304V1424.07H919.768ZM887.288 1426.46C887.288 1425.66 887.571 1424.96 888.138 1424.37C888.705 1423.78 889.414 1423.48 890.264 1423.48C891.127 1423.48 891.842 1423.78 892.409 1424.37C892.976 1424.96 893.259 1425.66 893.259 1426.46C893.259 1427.3 892.976 1428.01 892.409 1428.6C891.842 1429.18 891.127 1429.47 890.264 1429.47C889.414 1429.47 888.705 1429.18 888.138 1428.6C887.571 1428.01 887.288 1427.3 887.288 1426.46ZM887.288 1417.36C887.288 1416.81 887.417 1416.31 887.676 1415.86C887.935 1415.41 888.292 1415.05 888.748 1414.79C889.192 1414.52 889.697 1414.38 890.264 1414.38C890.844 1414.38 891.361 1414.52 891.817 1414.79C892.261 1415.05 892.612 1415.41 892.871 1415.86C893.13 1416.31 893.259 1416.81 893.259 1417.36C893.259 1418.19 892.976 1418.89 892.409 1419.49C891.842 1420.08 891.127 1420.37 890.264 1420.37C889.414 1420.37 888.705 1420.08 888.138 1419.49C887.571 1418.89 887.288 1418.19 887.288 1417.36Z" fill="#ABAAAF"/>
<path d="M63.5155 1529.68L61.0013 1528.57L76.8256 1495.93L79.3028 1497.15L63.5155 1529.68Z" fill="#ABAAAF"/>
<path d="M90.7498 1504.48H93.8925L93.6521 1511.97L100.677 1509.47L101.62 1512.39L94.4655 1514.5L99.0316 1520.42L96.5545 1522.23L92.3211 1516.05L88.0878 1522.23L85.6106 1520.42L90.1767 1514.5L83.0225 1512.39L83.9653 1509.47L90.9901 1511.97L90.7498 1504.48Z" fill="#ABAAAF"/>
<path d="M112.919 1504.48H116.062L115.821 1511.97L122.846 1509.47L123.789 1512.39L116.635 1514.5L121.201 1520.42L118.724 1522.23L114.49 1516.05L110.257 1522.23L107.78 1520.42L112.346 1514.5L105.192 1512.39L106.134 1509.47L113.159 1511.97L112.919 1504.48Z" fill="#ABAAAF"/>
<path d="M204.557 1515.68V1523.01H201.655V1515.68H186.071V1523.01H183.168V1515.68H175.996V1513.08H183.168V1505.7H186.071V1513.08H201.655V1505.7H204.557V1513.08H220.141V1505.7H223.043V1513.08H230.308V1515.68H223.043V1523.01H220.141V1515.68H204.557Z" fill="white"/>
<path d="M319.158 1504.48L320.656 1506.86L307.604 1514.87L320.656 1522.95L318.992 1525.22L304.942 1516.44V1513.26L319.158 1504.48ZM279.561 1523.6C279.561 1522.99 279.703 1522.45 279.986 1521.97C280.269 1521.48 280.658 1521.09 281.151 1520.81C281.631 1520.51 282.18 1520.36 282.796 1520.36C283.424 1520.36 283.985 1520.51 284.478 1520.81C284.971 1521.09 285.359 1521.48 285.643 1521.97C285.926 1522.45 286.068 1522.99 286.068 1523.6C286.068 1524.2 285.926 1524.76 285.643 1525.26C285.359 1525.76 284.971 1526.15 284.478 1526.45C283.985 1526.73 283.424 1526.87 282.796 1526.87C282.18 1526.87 281.631 1526.73 281.151 1526.45C280.658 1526.15 280.269 1525.76 279.986 1525.26C279.703 1524.76 279.561 1524.2 279.561 1523.6ZM292.871 1523.6C292.871 1522.99 293.013 1522.45 293.296 1521.97C293.58 1521.48 293.968 1521.09 294.461 1520.81C294.941 1520.51 295.49 1520.36 296.106 1520.36C296.735 1520.36 297.295 1520.51 297.788 1520.81C298.281 1521.09 298.669 1521.48 298.953 1521.97C299.236 1522.45 299.378 1522.99 299.378 1523.6C299.378 1524.2 299.236 1524.76 298.953 1525.26C298.669 1525.76 298.281 1526.15 297.788 1526.45C297.295 1526.73 296.735 1526.87 296.106 1526.87C295.49 1526.87 294.941 1526.73 294.461 1526.45C293.968 1526.15 293.58 1525.76 293.296 1525.26C293.013 1524.76 292.871 1524.2 292.871 1523.6Z" fill="#ABAAAF"/>
<path d="M873.567 1529.87H899.651V1532.58H870.572L872.255 1519.6H866.875L866.062 1525.87H863.4L864.232 1519.6H861.311V1517.2H864.546L865.674 1509.01H862.679V1506.58H865.988L866.801 1500.41H869.463L868.576 1506.58H874.011L874.824 1500.41H877.486L876.617 1506.58H879.575V1509.01H876.303L875.212 1517.2H878.207V1519.6H874.861L873.567 1529.87ZM867.189 1517.2H872.569L873.697 1509.01H868.28L867.189 1517.2Z" fill="#ABAAAF"/>
<path d="M64.3811 1622.33H107.047L108.194 1625.05H61.3864L63.0686 1612.06H57.6891L56.8757 1618.33H54.2137L55.0456 1612.06H52.1247V1609.66H55.3598L56.4875 1601.47H53.4927V1599.05H56.8018L57.6152 1592.87H60.2772L59.3899 1599.05H64.8248L65.6382 1592.87H68.3002L67.4314 1599.05H70.3892V1601.47H67.1171L66.0264 1609.66H69.0212V1612.06H65.6752L64.3811 1622.33ZM58.0034 1609.66H63.3829L64.5105 1601.47H59.0941L58.0034 1609.66ZM100.171 1605.39C100.121 1607.43 100.325 1609.32 100.781 1611.05C101.249 1612.77 101.921 1614.37 102.796 1615.84C103.671 1617.3 104.694 1618.67 105.864 1619.92C107.035 1621.18 108.292 1622.37 109.636 1623.49L108.249 1625.05C106.721 1623.94 105.279 1622.73 103.923 1621.44C102.568 1620.15 101.366 1618.72 100.318 1617.15C99.2832 1615.57 98.4575 1613.82 97.8413 1611.9C97.2374 1609.96 96.9293 1607.79 96.917 1605.39C96.8923 1602.58 97.2559 1600.12 98.0077 1598.01C98.7718 1595.9 99.8686 1593.99 101.298 1592.28C102.74 1590.56 104.459 1588.89 106.456 1587.27L108.083 1588.97C106.752 1590.15 105.599 1591.32 104.626 1592.46C103.664 1593.6 102.863 1594.79 102.223 1596.05C101.594 1597.3 101.107 1598.68 100.762 1600.21C100.429 1601.73 100.232 1603.45 100.171 1605.39Z" fill="white"/>
<path d="M180.195 1592.92L199.957 1605.15V1608.33L185.926 1617.11L184.244 1614.82L197.295 1606.76L178.698 1595.27L180.195 1592.92ZM166.959 1622.14L164.445 1621.03L180.269 1588.39L182.746 1589.61L166.959 1622.14Z" fill="#ABAAAF"/>
<path d="M270.133 1595.44V1598.75L257.081 1606.76L270.133 1614.84V1618.17L254.419 1608.33V1605.15L270.133 1595.44ZM291.392 1595.44L307.105 1605.15V1608.33L291.392 1618.17V1614.82L304.443 1606.76L291.392 1598.71V1595.44ZM279.136 1595H282.426L282.056 1604.59L291.115 1601.34L292.058 1604.48L282.907 1607.03L289.026 1614.36L286.308 1616.47L280.873 1608.46L275.956 1616.24L273.165 1614.32L278.803 1607.03L269.43 1604.48L270.539 1601.36L279.561 1604.65L279.136 1595Z" fill="white"/>
<path d="M360.284 1589.61L362.761 1588.39L378.585 1621.03L376.071 1622.14L360.284 1589.61Z" fill="#ABAAAF"/>
<path d="M382.453 1589.61L384.93 1588.39L400.754 1621.03L398.24 1622.14L382.453 1589.61Z" fill="#ABAAAF"/>
<path d="M470.246 1596.83L471.485 1599.23L456.825 1606.76L471.485 1614.3L470.228 1616.69L453.904 1608.33V1605.18L470.246 1596.83ZM488.732 1596.83L489.971 1599.23L475.311 1606.76L489.971 1614.3L488.714 1616.69L472.391 1608.33V1605.18L488.732 1596.83ZM507.219 1596.83L508.457 1599.23L493.798 1606.76L508.457 1614.3L507.2 1616.69L490.877 1608.33V1605.18L507.219 1596.83Z" fill="#ABAAAF"/>
<path d="M594.361 1604.08L596.579 1605.22C596.222 1605.92 595.784 1606.64 595.266 1607.37C594.749 1608.08 594.114 1608.69 593.362 1609.18C592.611 1609.66 591.686 1609.9 590.589 1609.9C589.727 1609.9 588.975 1609.72 588.334 1609.35C587.706 1608.98 587.132 1608.54 586.615 1608.05C586.11 1607.56 585.604 1607.13 585.099 1606.76C584.606 1606.39 584.07 1606.2 583.491 1606.2C582.911 1606.2 582.375 1606.39 581.882 1606.76C581.389 1607.13 580.89 1607.56 580.385 1608.05C579.892 1608.54 579.337 1608.98 578.721 1609.35C578.093 1609.72 577.341 1609.9 576.466 1609.9C575.603 1609.9 574.858 1609.72 574.229 1609.35C573.588 1608.98 573.015 1608.54 572.51 1608.05C571.992 1607.56 571.487 1607.13 570.994 1606.76C570.489 1606.39 569.946 1606.2 569.367 1606.2C568.566 1606.2 567.876 1606.5 567.297 1607.11C566.717 1607.7 566.187 1608.44 565.707 1609.33L563.489 1608.24C563.858 1607.51 564.296 1606.78 564.801 1606.05C565.306 1605.33 565.941 1604.72 566.705 1604.24C567.457 1603.76 568.381 1603.52 569.478 1603.52C570.402 1603.52 571.191 1603.71 571.844 1604.08C572.485 1604.45 573.058 1604.88 573.564 1605.37C574.069 1605.86 574.556 1606.29 575.024 1606.66C575.492 1607.03 576.01 1607.22 576.577 1607.22C577.144 1607.22 577.661 1607.03 578.13 1606.66C578.586 1606.29 579.06 1605.86 579.553 1605.37C580.034 1604.88 580.594 1604.45 581.235 1604.08C581.876 1603.71 582.665 1603.52 583.602 1603.52C584.526 1603.52 585.308 1603.71 585.949 1604.08C586.603 1604.45 587.182 1604.88 587.687 1605.37C588.192 1605.86 588.679 1606.29 589.147 1606.66C589.616 1607.03 590.133 1607.22 590.7 1607.22C591.464 1607.22 592.148 1606.92 592.752 1606.31C593.356 1605.71 593.892 1604.96 594.361 1604.08Z" fill="#ABAAAF"/>
<path d="M686.993 1601.99V1604.67H666.529V1601.99H686.993ZM686.993 1608.99V1611.69H666.529V1608.99H686.993ZM657.655 1611.23C656.793 1611.23 656.028 1611.04 655.363 1610.66C654.685 1610.26 654.149 1609.73 653.755 1609.05C653.36 1608.36 653.163 1607.59 653.163 1606.74C653.163 1605.88 653.36 1605.11 653.755 1604.45C654.149 1603.77 654.685 1603.24 655.363 1602.85C656.028 1602.46 656.793 1602.26 657.655 1602.26C658.518 1602.26 659.288 1602.46 659.966 1602.85C660.644 1603.25 661.18 1603.79 661.574 1604.46C661.956 1605.14 662.147 1605.91 662.147 1606.78C662.147 1607.63 661.956 1608.39 661.574 1609.07C661.18 1609.75 660.644 1610.28 659.966 1610.66C659.288 1611.04 658.518 1611.23 657.655 1611.23Z" fill="#ABAAAF"/>
<path d="M757.771 1604.59H744.83V1601.89H757.771V1604.59ZM757.771 1611.62H744.83V1608.92H757.771V1611.62ZM749.803 1595.5L752.095 1597.46L749.784 1599.97C749.501 1600.29 749.187 1600.62 748.842 1600.95C748.509 1601.27 748.065 1601.59 747.511 1601.89L745.607 1604.59L743.629 1606.76L745.607 1608.92L747.511 1611.62C748.065 1611.93 748.509 1612.24 748.842 1612.56C749.187 1612.88 749.501 1613.21 749.784 1613.54L752.095 1616.06L749.803 1618.02L739.747 1606.76L749.803 1595.5Z" fill="white"/>
<path d="M757.017 1604.59V1601.89H779.94V1604.59H757.017ZM757.017 1611.62V1608.92H779.94V1611.62H757.017Z" fill="white"/>
<path d="M779.186 1601.89H789.316V1604.59H779.186V1601.89ZM779.186 1608.92H789.316V1611.62H779.186V1608.92ZM786.007 1604.59L794.141 1595.5L796.433 1597.46L789.945 1604.59H786.007ZM786.007 1608.92H789.945L796.433 1616.06L794.141 1618.02L786.007 1608.92Z" fill="white"/>
<path d="M864.535 1608.13V1605.39H890.785V1608.13H864.535ZM860.634 1595.5L862.926 1597.46L854.46 1606.76L862.926 1616.06L860.634 1618.02L850.577 1606.76L860.634 1595.5ZM871.855 1595.5L874.166 1597.46L868.879 1603.26C868.374 1603.8 867.973 1604.22 867.677 1604.52C867.369 1604.82 866.987 1605.1 866.531 1605.39V1608.13C866.987 1608.41 867.369 1608.7 867.677 1608.99C867.973 1609.29 868.374 1609.71 868.879 1610.25L874.166 1616.06L871.855 1618.02L861.799 1606.76L871.855 1595.5Z" fill="#ABAAAF"/>
<path d="M907.981 1608.13H890.031V1605.39H907.981V1608.13Z" fill="#ABAAAF"/>
<path d="M40.7742 1687.95L56.4875 1697.66V1700.84L40.7742 1710.68V1707.33L53.8255 1699.27L40.7742 1691.23V1687.95ZM28.5178 1687.51H31.8084L31.4386 1697.11L40.4969 1693.85L41.4397 1696.99L32.289 1699.55L38.408 1706.87L35.6905 1708.98L30.2555 1700.97L25.3382 1708.76L22.5467 1706.83L28.185 1699.55L18.8125 1696.99L19.9217 1693.87L28.943 1697.16L28.5178 1687.51Z" fill="#ABAAAF"/>
<path d="M451.622 1700.59V1697.85H469.573V1700.59H451.622Z" fill="#ABAAAF"/>
<path d="M468.819 1700.59V1697.85H477.082V1700.59H468.819ZM483.774 1687.96L486.066 1689.92L477.6 1699.22L486.066 1708.52L483.774 1710.48L473.717 1699.22L483.774 1687.96Z" fill="#ABAAAF"/>
<path d="M552.115 1714.79H578.2V1717.51H549.121L550.803 1704.52H545.423L544.61 1710.79H541.948L542.78 1704.52H539.859V1702.12H543.094L544.222 1693.93H541.227V1691.51H544.536L545.349 1685.33H548.011L547.124 1691.51H552.559L553.372 1685.33H556.035L555.166 1691.51H558.124V1693.93H554.851L553.761 1702.12H556.755V1704.52H553.409L552.115 1714.79ZM545.738 1702.12H551.117L552.245 1693.93H546.828L545.738 1702.12Z" fill="white"/>
<path d="M664.824 1694.45V1697.13H644.36V1694.45H664.824ZM664.824 1701.46V1704.16H644.36V1701.46H664.824ZM635.486 1703.69C634.624 1703.69 633.859 1703.5 633.194 1703.12C632.516 1702.73 631.98 1702.19 631.586 1701.51C631.191 1700.82 630.994 1700.05 630.994 1699.2C630.994 1698.34 631.191 1697.57 631.586 1696.91C631.98 1696.23 632.516 1695.7 633.194 1695.32C633.859 1694.92 634.624 1694.72 635.486 1694.72C636.349 1694.72 637.119 1694.92 637.797 1695.32C638.475 1695.71 639.011 1696.25 639.405 1696.92C639.787 1697.6 639.978 1698.37 639.978 1699.24C639.978 1700.09 639.787 1700.85 639.405 1701.53C639.011 1702.21 638.475 1702.74 637.797 1703.12C637.119 1703.5 636.349 1703.69 635.486 1703.69Z" fill="#ABAAAF"/>
<path d="M70.9212 1781.75L87.2631 1790.11V1793.25L70.9397 1801.61L69.6827 1799.22L84.3423 1791.68L69.6827 1784.15L70.9212 1781.75ZM52.435 1781.75L68.7768 1790.11V1793.25L52.4535 1801.61L51.1964 1799.22L65.856 1791.68L51.1964 1784.15L52.435 1781.75Z" fill="#ABAAAF"/>
<path d="M190.64 1792.25C191.133 1792.25 191.564 1792.15 191.934 1791.94C192.316 1791.72 192.68 1791.44 193.025 1791.12C193.37 1790.8 193.758 1790.49 194.189 1790.18C194.621 1789.87 195.132 1789.62 195.724 1789.42C196.328 1789.21 197.067 1789.12 197.942 1789.14V1792.21C197.338 1792.26 196.827 1792.4 196.408 1792.62C195.989 1792.84 195.601 1793.1 195.243 1793.38C194.898 1793.65 194.528 1793.93 194.134 1794.21C193.74 1794.48 193.265 1794.71 192.711 1794.9C192.168 1795.08 191.478 1795.17 190.64 1795.17C189.79 1795.17 189.063 1795.04 188.459 1794.79C187.867 1794.51 187.356 1794.19 186.924 1793.8C186.493 1793.41 186.092 1793.02 185.723 1792.64C185.353 1792.25 184.971 1791.92 184.577 1791.66C184.182 1791.39 183.739 1791.25 183.246 1791.25C182.74 1791.25 182.29 1791.38 181.896 1791.62C181.514 1791.87 181.138 1792.18 180.768 1792.55C180.399 1792.92 179.998 1793.29 179.567 1793.66C179.123 1794.03 178.606 1794.34 178.014 1794.58C177.422 1794.83 176.701 1794.95 175.851 1794.95C175.013 1794.95 174.298 1794.84 173.707 1794.62C173.115 1794.4 172.604 1794.13 172.172 1793.8C171.729 1793.47 171.322 1793.15 170.952 1792.82C170.57 1792.49 170.182 1792.21 169.788 1791.99C169.393 1791.77 168.95 1791.66 168.457 1791.66C167.939 1791.66 167.489 1791.78 167.107 1792.03C166.713 1792.26 166.331 1792.55 165.961 1792.9C165.591 1793.24 165.191 1793.6 164.759 1793.95C164.316 1794.3 163.804 1794.59 163.225 1794.82C162.633 1795.06 161.912 1795.17 161.062 1795.17C160.212 1795.17 159.491 1795.04 158.899 1794.79C158.295 1794.51 157.778 1794.19 157.346 1793.8C156.915 1793.41 156.514 1793.02 156.145 1792.64C155.775 1792.25 155.393 1791.92 154.999 1791.66C154.604 1791.39 154.161 1791.25 153.668 1791.25C153.162 1791.25 152.719 1791.38 152.337 1791.62C151.942 1791.87 151.56 1792.18 151.19 1792.55C150.821 1792.92 150.42 1793.29 149.989 1793.66C149.545 1794.03 149.028 1794.34 148.436 1794.58C147.844 1794.83 147.123 1794.95 146.273 1794.95C145.373 1794.95 144.492 1794.71 143.63 1794.23C142.767 1793.74 142.015 1793.15 141.374 1792.47C140.733 1791.8 140.29 1791.15 140.043 1790.55L142.687 1789.26C143.106 1790.08 143.636 1790.79 144.277 1791.38C144.917 1791.96 145.583 1792.25 146.273 1792.25C146.778 1792.25 147.222 1792.13 147.604 1791.88C147.986 1791.64 148.368 1791.33 148.75 1790.96C149.12 1790.59 149.52 1790.22 149.952 1789.85C150.383 1789.48 150.901 1789.17 151.505 1788.92C152.096 1788.68 152.817 1788.55 153.668 1788.55C154.518 1788.55 155.239 1788.68 155.83 1788.92C156.422 1789.17 156.94 1789.48 157.383 1789.85C157.815 1790.22 158.215 1790.59 158.585 1790.96C158.955 1791.33 159.337 1791.64 159.731 1791.88C160.113 1792.13 160.557 1792.25 161.062 1792.25C161.555 1792.25 161.999 1792.13 162.393 1791.88C162.787 1791.64 163.169 1791.33 163.539 1790.96C163.897 1790.59 164.297 1790.22 164.741 1789.85C165.185 1789.48 165.702 1789.17 166.294 1788.92C166.885 1788.68 167.606 1788.55 168.457 1788.55C169.295 1788.55 170.009 1788.68 170.601 1788.92C171.193 1789.17 171.71 1789.48 172.154 1789.85C172.585 1790.22 172.992 1790.59 173.374 1790.96C173.744 1791.33 174.126 1791.64 174.52 1791.88C174.902 1792.13 175.346 1792.25 175.851 1792.25C176.356 1792.25 176.8 1792.13 177.182 1791.88C177.564 1791.64 177.946 1791.33 178.328 1790.96C178.698 1790.59 179.098 1790.22 179.53 1789.85C179.961 1789.48 180.473 1789.17 181.064 1788.92C181.668 1788.68 182.395 1788.55 183.246 1788.55C184.084 1788.55 184.798 1788.68 185.39 1788.92C185.994 1789.17 186.511 1789.48 186.943 1789.85C187.387 1790.22 187.793 1790.59 188.163 1790.96C188.533 1791.33 188.909 1791.64 189.291 1791.88C189.685 1792.13 190.135 1792.25 190.64 1792.25ZM191.86 1780.42L201.917 1791.68L191.86 1802.94L189.568 1800.98L194.836 1795.17C195.342 1794.63 195.748 1794.21 196.057 1793.92C196.365 1793.62 196.747 1793.33 197.203 1793.05V1790.31C196.747 1790.03 196.365 1789.74 196.057 1789.44C195.748 1789.15 195.342 1788.73 194.836 1788.18L189.568 1782.38L191.86 1780.42Z" fill="white"/>
<path d="M282.755 1794.1C282.336 1793.27 281.8 1792.57 281.147 1791.99C280.493 1791.4 279.834 1791.11 279.169 1791.11C278.663 1791.11 278.213 1791.23 277.819 1791.48C277.437 1791.72 277.061 1792.03 276.691 1792.4C276.322 1792.77 275.915 1793.14 275.471 1793.51C275.04 1793.88 274.522 1794.19 273.918 1794.43C273.327 1794.68 272.612 1794.8 271.774 1794.8C270.924 1794.8 270.203 1794.68 269.611 1794.43C269.02 1794.19 268.508 1793.88 268.077 1793.51C267.633 1793.14 267.226 1792.77 266.857 1792.4C266.487 1792.03 266.111 1791.72 265.729 1791.48C265.335 1791.23 264.885 1791.11 264.38 1791.11C263.874 1791.11 263.437 1791.22 263.067 1791.44C262.697 1791.65 262.334 1791.91 261.976 1792.23C261.619 1792.55 261.224 1792.87 260.793 1793.18C260.362 1793.48 259.838 1793.74 259.222 1793.95C258.606 1794.15 257.854 1794.24 256.967 1794.21V1791.23C257.595 1791.17 258.125 1791.03 258.556 1790.81C258.988 1790.59 259.382 1790.33 259.739 1790.03C260.097 1789.74 260.473 1789.45 260.867 1789.16C261.261 1788.88 261.736 1788.65 262.291 1788.46C262.845 1788.28 263.541 1788.18 264.38 1788.18C265.23 1788.18 265.951 1788.32 266.542 1788.59C267.134 1788.85 267.652 1789.18 268.095 1789.57C268.527 1789.95 268.927 1790.34 269.297 1790.74C269.667 1791.12 270.042 1791.44 270.424 1791.72C270.819 1791.97 271.269 1792.1 271.774 1792.1C272.279 1792.1 272.723 1791.98 273.105 1791.73C273.499 1791.49 273.881 1791.18 274.251 1790.81C274.621 1790.44 275.021 1790.07 275.453 1789.7C275.896 1789.33 276.414 1789.02 277.006 1788.78C277.597 1788.53 278.318 1788.41 279.169 1788.41C280.068 1788.41 280.949 1788.65 281.812 1789.14C282.675 1789.63 283.426 1790.21 284.067 1790.88C284.708 1791.56 285.152 1792.2 285.398 1792.81L282.755 1794.1ZM263.27 1802.94L253.214 1791.68L263.27 1780.42L265.563 1782.38L260.294 1788.18C259.789 1788.73 259.382 1789.15 259.074 1789.44C258.766 1789.74 258.384 1790.03 257.928 1790.31V1793.05C258.384 1793.33 258.766 1793.62 259.074 1793.92C259.382 1794.21 259.789 1794.63 260.294 1795.17L265.563 1800.98L263.27 1802.94Z" fill="#ABAAAF"/>
<path d="M400.837 1824.41V1827.09H364.271V1824.41H400.837ZM400.837 1831.42V1834.12H364.271V1831.42H400.837Z" fill="white"/>
<path d="M487.471 1786.91V1789.59H467.007V1786.91H487.471ZM487.471 1793.92V1796.62H467.007V1793.92H487.471ZM454.991 1796.3C454.991 1795.5 455.274 1794.8 455.841 1794.21C456.408 1793.62 457.117 1793.32 457.967 1793.32C458.83 1793.32 459.545 1793.62 460.112 1794.21C460.679 1794.8 460.962 1795.5 460.962 1796.3C460.962 1797.14 460.679 1797.85 460.112 1798.45C459.545 1799.03 458.83 1799.32 457.967 1799.32C457.117 1799.32 456.408 1799.03 455.841 1798.45C455.274 1797.85 454.991 1797.14 454.991 1796.3ZM454.991 1787.2C454.991 1786.65 455.12 1786.15 455.379 1785.71C455.638 1785.25 455.995 1784.89 456.451 1784.63C456.895 1784.36 457.4 1784.23 457.967 1784.23C458.546 1784.23 459.064 1784.36 459.52 1784.63C459.964 1784.89 460.315 1785.25 460.574 1785.71C460.833 1786.15 460.962 1786.65 460.962 1787.2C460.962 1788.03 460.679 1788.74 460.112 1789.33C459.545 1789.92 458.83 1790.22 457.967 1790.22C457.117 1790.22 456.408 1789.92 455.841 1789.33C455.274 1788.74 454.991 1788.03 454.991 1787.2Z" fill="#ABAAAF"/>
<path d="M431.679 1062.35V1065.05H421.548V1062.35H431.679ZM431.679 1069.37V1072.07H421.548V1069.37H431.679ZM424.857 1065.05H420.92L414.431 1057.91L416.723 1055.95L424.857 1065.05ZM424.857 1069.37L416.723 1078.47L414.431 1076.51L420.92 1069.37H424.857Z" fill="#ABAAAF"/>
<path d="M430.925 1065.05V1062.35H453.848V1065.05H430.925ZM430.925 1072.07V1069.37H453.848V1072.07H430.925Z" fill="#ABAAAF"/>
<path d="M453.094 1065.05V1062.35H471.044V1065.05H453.094ZM453.094 1072.07V1069.37H471.044V1072.07H453.094Z" fill="#ABAAAF"/>
<path d="M569.333 1234.75H556.393V1232.05H569.333V1234.75ZM569.333 1241.78H556.393V1239.08H569.333V1241.78ZM561.366 1225.65L563.658 1227.61L561.347 1230.13C561.064 1230.45 560.75 1230.77 560.404 1231.11C560.072 1231.43 559.628 1231.74 559.073 1232.05L557.169 1234.75L555.191 1236.91L557.169 1239.08L559.073 1241.78C559.628 1242.09 560.072 1242.4 560.404 1242.72C560.75 1243.04 561.064 1243.37 561.347 1243.7L563.658 1246.21L561.366 1248.18L551.309 1236.91L561.366 1225.65Z" fill="#ABAAAF"/>
<path d="M568.58 1234.75V1232.05H591.503V1234.75H568.58ZM568.58 1241.78V1239.08H591.503V1241.78H568.58Z" fill="#ABAAAF"/>
<path d="M590.749 1232.05H600.879V1234.75H590.749V1232.05ZM590.749 1239.08H600.879V1241.78H590.749V1239.08ZM597.57 1234.75L605.704 1225.65L607.996 1227.61L601.508 1234.75H597.57ZM597.57 1239.08H601.508L607.996 1246.21L605.704 1248.18L597.57 1239.08Z" fill="#ABAAAF"/>
<path d="M735.946 1833.51H723.005V1830.81H735.946V1833.51ZM735.946 1840.54H723.005V1837.84H735.946V1840.54ZM727.978 1824.41L730.27 1826.37L727.959 1828.89C727.676 1829.21 727.362 1829.53 727.017 1829.87C726.684 1830.19 726.24 1830.5 725.686 1830.81L723.781 1833.51L721.804 1835.67L723.781 1837.84L725.686 1840.54C726.24 1840.84 726.684 1841.16 727.017 1841.48C727.362 1841.8 727.676 1842.13 727.959 1842.46L730.27 1844.97L727.978 1846.93L717.921 1835.67L727.978 1824.41Z" fill="#ABAAAF"/>
<path d="M735.192 1833.51V1830.81H758.115V1833.51H735.192ZM735.192 1840.54V1837.84H758.115V1840.54H735.192Z" fill="#ABAAAF"/>
<path d="M757.361 1830.81H767.491V1833.51H757.361V1830.81ZM757.361 1837.84H767.491V1840.54H757.361V1837.84ZM764.182 1833.51L772.316 1824.41L774.608 1826.37L768.12 1833.51H764.182ZM764.182 1837.84H768.12L774.608 1844.97L772.316 1846.93L764.182 1837.84Z" fill="#ABAAAF"/>
<path d="M735.946 1833.51H723.005V1830.81H735.946V1833.51ZM735.946 1840.54H723.005V1837.84H735.946V1840.54ZM727.978 1824.41L730.27 1826.37L727.959 1828.89C727.676 1829.21 727.362 1829.53 727.017 1829.87C726.684 1830.19 726.24 1830.5 725.686 1830.81L723.781 1833.51L721.804 1835.67L723.781 1837.84L725.686 1840.54C726.24 1840.84 726.684 1841.16 727.017 1841.48C727.362 1841.8 727.676 1842.13 727.959 1842.46L730.27 1844.97L727.978 1846.93L717.921 1835.67L727.978 1824.41Z" fill="#ABAAAF"/>
<path d="M735.192 1833.51V1830.81H758.115V1833.51H735.192ZM735.192 1840.54V1837.84H758.115V1840.54H735.192Z" fill="#ABAAAF"/>
<path d="M757.361 1830.81H767.491V1833.51H757.361V1830.81ZM757.361 1837.84H767.491V1840.54H757.361V1837.84ZM764.182 1833.51L772.316 1824.41L774.608 1826.37L768.12 1833.51H764.182ZM764.182 1837.84H768.12L774.608 1844.97L772.316 1846.93L764.182 1837.84Z" fill="#ABAAAF"/>
<path d="M770.682 1713.68V1721H767.78V1713.68H752.196V1721H749.293V1713.68H742.121V1711.07H749.293V1703.69H752.196V1711.07H767.78V1703.69H770.682V1711.07H786.266V1703.69H789.168V1711.07H796.433V1713.68H789.168V1721H786.266V1713.68H770.682Z" fill="#ABAAAF"/>
<path d="M865.452 1755.86L865.137 1772.93H862.346L861.976 1755.86H865.452ZM863.769 1776.79C864.484 1776.79 865.082 1777.03 865.563 1777.51C866.031 1777.99 866.265 1778.57 866.265 1779.25C866.265 1779.94 866.031 1780.53 865.563 1781.03C865.082 1781.51 864.484 1781.75 863.769 1781.75C863.067 1781.75 862.482 1781.51 862.013 1781.03C861.545 1780.53 861.311 1779.94 861.311 1779.25C861.311 1778.57 861.545 1777.99 862.013 1777.51C862.482 1777.03 863.067 1776.79 863.769 1776.79ZM878.762 1755.86L878.448 1772.93H875.656L875.286 1755.86H878.762ZM877.08 1776.79C877.794 1776.79 878.386 1777.03 878.854 1777.51C879.335 1777.99 879.575 1778.57 879.575 1779.25C879.575 1779.94 879.335 1780.53 878.854 1781.03C878.386 1781.51 877.794 1781.75 877.08 1781.75C876.377 1781.75 875.792 1781.51 875.323 1781.03C874.855 1780.53 874.621 1779.94 874.621 1779.25C874.621 1778.57 874.855 1777.99 875.323 1777.51C875.792 1777.03 876.377 1776.79 877.08 1776.79Z" fill="white"/>
<path d="M573.511 1820.68L574.75 1823.08L560.09 1830.61L574.75 1838.15L573.493 1840.54L557.169 1832.18V1829.03L573.511 1820.68ZM591.997 1820.68L593.236 1823.08L578.576 1830.61L593.236 1838.15L591.979 1840.54L575.656 1832.18V1829.03L591.997 1820.68ZM610.484 1820.68L611.722 1823.08L597.063 1830.61L611.722 1838.15L610.465 1840.54L594.142 1832.18V1829.03L610.484 1820.68Z" fill="#ABAAAF"/>
<path d="M63.5155 1529.68L61.0013 1528.57L76.8256 1495.93L79.3028 1497.15L63.5155 1529.68Z" fill="#ABAAAF"/>
<path d="M90.7498 1504.48H93.8925L93.6521 1511.97L100.677 1509.47L101.62 1512.39L94.4655 1514.5L99.0316 1520.42L96.5545 1522.23L92.3211 1516.05L88.0878 1522.23L85.6106 1520.42L90.1767 1514.5L83.0225 1512.39L83.9653 1509.47L90.9901 1511.97L90.7498 1504.48Z" fill="#ABAAAF"/>
<path d="M112.919 1504.48H116.062L115.821 1511.97L122.846 1509.47L123.789 1512.39L116.635 1514.5L121.201 1520.42L118.724 1522.23L114.49 1516.05L110.257 1522.23L107.78 1520.42L112.346 1514.5L105.192 1512.39L106.134 1509.47L113.159 1511.97L112.919 1504.48Z" fill="#ABAAAF"/>
<path d="M692.554 1217.11V1222.51C693.552 1222.61 694.582 1222.8 695.641 1223.08C696.701 1223.36 697.736 1223.72 698.747 1224.15C699.758 1224.57 700.682 1225.05 701.52 1225.6V1228.87C700.041 1227.92 698.747 1227.18 697.638 1226.65C696.516 1226.11 695.543 1225.71 694.717 1225.45C693.891 1225.19 693.17 1225.02 692.554 1224.95V1233.68C693.491 1233.99 694.427 1234.37 695.364 1234.84C696.301 1235.31 697.163 1235.88 697.952 1236.54C698.741 1237.21 699.376 1237.99 699.856 1238.89C700.337 1239.78 700.577 1240.79 700.577 1241.92C700.577 1243.1 700.38 1244.17 699.986 1245.16C699.579 1246.13 699.012 1247 698.285 1247.75C697.558 1248.49 696.707 1249.09 695.734 1249.56C694.76 1250.03 693.7 1250.34 692.554 1250.51V1254.15H690.059V1250.62C688.999 1250.65 688.044 1250.61 687.193 1250.49C686.343 1250.38 685.468 1250.15 684.568 1249.8C683.668 1249.46 682.602 1248.96 681.37 1248.32V1244.99C682.824 1245.86 684.051 1246.49 685.049 1246.9C686.035 1247.31 686.916 1247.56 687.692 1247.68C688.469 1247.77 689.258 1247.81 690.059 1247.77V1236.01C687.902 1235.29 686.238 1234.37 685.067 1233.25C683.884 1232.12 683.293 1230.69 683.293 1228.98C683.293 1227.98 683.545 1227.02 684.05 1226.1C684.543 1225.17 685.295 1224.38 686.306 1223.73C687.304 1223.06 688.555 1222.66 690.059 1222.51V1217.11H692.554ZM692.554 1236.88V1247.6C693.38 1247.43 694.15 1247.14 694.865 1246.73C695.567 1246.33 696.134 1245.74 696.566 1244.98C696.997 1244.2 697.213 1243.19 697.213 1241.96C697.213 1240.96 696.788 1240.01 695.937 1239.11C695.087 1238.2 693.959 1237.46 692.554 1236.88ZM690.059 1225.04C689.048 1225.21 688.222 1225.65 687.581 1226.34C686.928 1227.03 686.602 1227.89 686.602 1228.92C686.602 1229.79 686.842 1230.52 687.323 1231.13C687.791 1231.73 688.703 1232.31 690.059 1232.86V1225.04ZM679.836 1226.54L679.281 1230.2L668.319 1236.91L681.37 1244.99V1248.32L665.657 1238.49V1235.3L679.836 1226.54ZM701.52 1225.6L717.233 1235.3V1238.49L703.535 1247.12L704.348 1243.11L714.571 1236.91L701.52 1228.87V1225.6Z" fill="white"/>
<path d="M692.554 1217.11V1222.51C693.552 1222.61 694.582 1222.8 695.641 1223.08C696.701 1223.36 697.736 1223.72 698.747 1224.15C699.758 1224.57 700.682 1225.05 701.52 1225.6V1228.87C700.041 1227.92 698.747 1227.18 697.638 1226.65C696.516 1226.11 695.543 1225.71 694.717 1225.45C693.891 1225.19 693.17 1225.02 692.554 1224.95V1233.68C693.491 1233.99 694.427 1234.37 695.364 1234.84C696.301 1235.31 697.163 1235.88 697.952 1236.54C698.741 1237.21 699.376 1237.99 699.856 1238.89C700.337 1239.78 700.577 1240.79 700.577 1241.92C700.577 1243.1 700.38 1244.17 699.986 1245.16C699.579 1246.13 699.012 1247 698.285 1247.75C697.558 1248.49 696.707 1249.09 695.734 1249.56C694.76 1250.03 693.7 1250.34 692.554 1250.51V1254.15H690.059V1250.62C688.999 1250.65 688.044 1250.61 687.193 1250.49C686.343 1250.38 685.468 1250.15 684.568 1249.8C683.668 1249.46 682.602 1248.96 681.37 1248.32V1244.99C682.824 1245.86 684.051 1246.49 685.049 1246.9C686.035 1247.31 686.916 1247.56 687.692 1247.68C688.469 1247.77 689.258 1247.81 690.059 1247.77V1236.01C687.902 1235.29 686.238 1234.37 685.067 1233.25C683.884 1232.12 683.293 1230.69 683.293 1228.98C683.293 1227.98 683.545 1227.02 684.05 1226.1C684.543 1225.17 685.295 1224.38 686.306 1223.73C687.304 1223.06 688.555 1222.66 690.059 1222.51V1217.11H692.554ZM692.554 1236.88V1247.6C693.38 1247.43 694.15 1247.14 694.865 1246.73C695.567 1246.33 696.134 1245.74 696.566 1244.98C696.997 1244.2 697.213 1243.19 697.213 1241.96C697.213 1240.96 696.788 1240.01 695.937 1239.11C695.087 1238.2 693.959 1237.46 692.554 1236.88ZM690.059 1225.04C689.048 1225.21 688.222 1225.65 687.581 1226.34C686.928 1227.03 686.602 1227.89 686.602 1228.92C686.602 1229.79 686.842 1230.52 687.323 1231.13C687.791 1231.73 688.703 1232.31 690.059 1232.86V1225.04ZM679.836 1226.54L679.281 1230.2L668.319 1236.91L681.37 1244.99V1248.32L665.657 1238.49V1235.3L679.836 1226.54ZM701.52 1225.6L717.233 1235.3V1238.49L703.535 1247.12L704.348 1243.11L714.571 1236.91L701.52 1228.87V1225.6Z" fill="white"/>
<path d="M692.554 1217.11V1222.51C693.552 1222.61 694.582 1222.8 695.641 1223.08C696.701 1223.36 697.736 1223.72 698.747 1224.15C699.758 1224.57 700.682 1225.05 701.52 1225.6V1228.87C700.041 1227.92 698.747 1227.18 697.638 1226.65C696.516 1226.11 695.543 1225.71 694.717 1225.45C693.891 1225.19 693.17 1225.02 692.554 1224.95V1233.68C693.491 1233.99 694.427 1234.37 695.364 1234.84C696.301 1235.31 697.163 1235.88 697.952 1236.54C698.741 1237.21 699.376 1237.99 699.856 1238.89C700.337 1239.78 700.577 1240.79 700.577 1241.92C700.577 1243.1 700.38 1244.17 699.986 1245.16C699.579 1246.13 699.012 1247 698.285 1247.75C697.558 1248.49 696.707 1249.09 695.734 1249.56C694.76 1250.03 693.7 1250.34 692.554 1250.51V1254.15H690.059V1250.62C688.999 1250.65 688.044 1250.61 687.193 1250.49C686.343 1250.38 685.468 1250.15 684.568 1249.8C683.668 1249.46 682.602 1248.96 681.37 1248.32V1244.99C682.824 1245.86 684.051 1246.49 685.049 1246.9C686.035 1247.31 686.916 1247.56 687.692 1247.68C688.469 1247.77 689.258 1247.81 690.059 1247.77V1236.01C687.902 1235.29 686.238 1234.37 685.067 1233.25C683.884 1232.12 683.293 1230.69 683.293 1228.98C683.293 1227.98 683.545 1227.02 684.05 1226.1C684.543 1225.17 685.295 1224.38 686.306 1223.73C687.304 1223.06 688.555 1222.66 690.059 1222.51V1217.11H692.554ZM692.554 1236.88V1247.6C693.38 1247.43 694.15 1247.14 694.865 1246.73C695.567 1246.33 696.134 1245.74 696.566 1244.98C696.997 1244.2 697.213 1243.19 697.213 1241.96C697.213 1240.96 696.788 1240.01 695.937 1239.11C695.087 1238.2 693.959 1237.46 692.554 1236.88ZM690.059 1225.04C689.048 1225.21 688.222 1225.65 687.581 1226.34C686.928 1227.03 686.602 1227.89 686.602 1228.92C686.602 1229.79 686.842 1230.52 687.323 1231.13C687.791 1231.73 688.703 1232.31 690.059 1232.86V1225.04ZM679.836 1226.54L679.281 1230.2L668.319 1236.91L681.37 1244.99V1248.32L665.657 1238.49V1235.3L679.836 1226.54ZM701.52 1225.6L717.233 1235.3V1238.49L703.535 1247.12L704.348 1243.11L714.571 1236.91L701.52 1228.87V1225.6Z" fill="white"/>
<path d="M833.958 961.935V967.334C834.956 967.433 835.985 967.624 837.045 967.908C838.105 968.191 839.14 968.549 840.151 968.98C841.161 969.399 842.085 969.88 842.923 970.422V973.696C841.445 972.746 840.15 972.007 839.041 971.477C837.92 970.934 836.946 970.533 836.121 970.275C835.295 970.016 834.574 969.849 833.958 969.775V978.504C834.894 978.812 835.831 979.2 836.768 979.669C837.704 980.137 838.567 980.704 839.356 981.37C840.144 982.036 840.779 982.818 841.26 983.718C841.74 984.606 841.981 985.617 841.981 986.751C841.981 987.922 841.783 989.001 841.389 989.987C840.982 990.961 840.416 991.824 839.688 992.576C838.961 993.316 838.111 993.92 837.137 994.388C836.164 994.857 835.104 995.171 833.958 995.331V998.974H831.462V995.442C830.402 995.479 829.447 995.436 828.597 995.313C827.746 995.202 826.871 994.974 825.971 994.629C825.072 994.284 824.006 993.79 822.773 993.149V989.821C824.228 990.684 825.454 991.319 826.452 991.725C827.438 992.132 828.319 992.391 829.096 992.502C829.872 992.601 830.661 992.632 831.462 992.595V980.834C829.305 980.119 827.642 979.2 826.471 978.078C825.288 976.944 824.696 975.52 824.696 973.807C824.696 972.808 824.949 971.846 825.454 970.922C825.947 969.997 826.699 969.208 827.709 968.555C828.707 967.889 829.958 967.482 831.462 967.334V961.935H833.958ZM833.958 981.703V992.428C834.783 992.256 835.554 991.966 836.268 991.559C836.971 991.152 837.538 990.567 837.969 989.802C838.401 989.026 838.616 988.021 838.616 986.788C838.616 985.789 838.191 984.84 837.341 983.94C836.49 983.028 835.363 982.282 833.958 981.703ZM831.462 969.868C830.451 970.04 829.626 970.472 828.985 971.162C828.332 971.853 828.005 972.716 828.005 973.751C828.005 974.614 828.245 975.348 828.726 975.952C829.194 976.556 830.106 977.135 831.462 977.69V969.868ZM821.239 971.366L820.685 975.027L809.722 981.74L822.773 989.821V993.149L807.06 983.312V980.131L821.239 971.366ZM842.923 970.422L858.637 980.131V983.312L844.938 991.947L845.752 987.935L855.975 981.74L842.923 973.696V970.422Z" fill="white"/>
<path d="M833.958 961.935V967.334C834.956 967.433 835.985 967.624 837.045 967.908C838.105 968.191 839.14 968.549 840.151 968.98C841.161 969.399 842.085 969.88 842.923 970.422V973.696C841.445 972.746 840.15 972.007 839.041 971.477C837.92 970.934 836.946 970.533 836.121 970.275C835.295 970.016 834.574 969.849 833.958 969.775V978.504C834.894 978.812 835.831 979.2 836.768 979.669C837.704 980.137 838.567 980.704 839.356 981.37C840.144 982.036 840.779 982.818 841.26 983.718C841.74 984.606 841.981 985.617 841.981 986.751C841.981 987.922 841.783 989.001 841.389 989.987C840.982 990.961 840.416 991.824 839.688 992.576C838.961 993.316 838.111 993.92 837.137 994.388C836.164 994.857 835.104 995.171 833.958 995.331V998.974H831.462V995.442C830.402 995.479 829.447 995.436 828.597 995.313C827.746 995.202 826.871 994.974 825.971 994.629C825.072 994.284 824.006 993.79 822.773 993.149V989.821C824.228 990.684 825.454 991.319 826.452 991.725C827.438 992.132 828.319 992.391 829.096 992.502C829.872 992.601 830.661 992.632 831.462 992.595V980.834C829.305 980.119 827.642 979.2 826.471 978.078C825.288 976.944 824.696 975.52 824.696 973.807C824.696 972.808 824.949 971.846 825.454 970.922C825.947 969.997 826.699 969.208 827.709 968.555C828.707 967.889 829.958 967.482 831.462 967.334V961.935H833.958ZM833.958 981.703V992.428C834.783 992.256 835.554 991.966 836.268 991.559C836.971 991.152 837.538 990.567 837.969 989.802C838.401 989.026 838.616 988.021 838.616 986.788C838.616 985.789 838.191 984.84 837.341 983.94C836.49 983.028 835.363 982.282 833.958 981.703ZM831.462 969.868C830.451 970.04 829.626 970.472 828.985 971.162C828.332 971.853 828.005 972.716 828.005 973.751C828.005 974.614 828.245 975.348 828.726 975.952C829.194 976.556 830.106 977.135 831.462 977.69V969.868ZM821.239 971.366L820.685 975.027L809.722 981.74L822.773 989.821V993.149L807.06 983.312V980.131L821.239 971.366ZM842.923 970.422L858.637 980.131V983.312L844.938 991.947L845.752 987.935L855.975 981.74L842.923 973.696V970.422Z" fill="white"/>
<path d="M802.383 1133.99V1137.3L789.332 1145.3L802.383 1153.38V1156.71L786.67 1146.88V1143.69L802.383 1133.99ZM823.642 1133.99L839.356 1143.69V1146.88L823.642 1156.71V1153.37L836.694 1145.3L823.642 1137.26V1133.99ZM811.386 1133.54H814.676L814.307 1143.14L823.365 1139.88L824.308 1143.03L815.157 1145.58L821.276 1152.9L818.559 1155.01L813.124 1147L808.206 1154.79L805.415 1152.87L811.053 1145.58L801.681 1143.03L802.79 1139.9L811.811 1143.2L811.386 1133.54Z" fill="#ABAAAF"/>
<path d="M607.996 1149.94V1147.21H625.946V1149.94H607.996Z" fill="#ABAAAF"/>
<path d="M625.193 1149.94V1147.21H633.456V1149.94H625.193ZM640.148 1137.31L642.44 1139.27L633.974 1148.58L642.44 1157.88L640.148 1159.84L630.091 1148.58L640.148 1137.31Z" fill="#ABAAAF"/>
<path d="M661.341 1763.98V1761.28H670.751V1763.98H661.341ZM657.089 1771V1768.3H670.751V1771H657.089ZM651.987 1781.03L649.51 1779.79L666.665 1751.05L669.069 1752.25L651.987 1781.03Z" fill="#ABAAAF"/>
<path d="M669.997 1763.98V1761.28H692.92V1763.98H669.997ZM669.997 1771V1768.3H692.92V1771H669.997Z" fill="#ABAAAF"/>
<path d="M692.166 1763.98V1761.28H710.116V1763.98H692.166ZM692.166 1771V1768.3H710.116V1771H692.166Z" fill="#ABAAAF"/>
<rect x="72" y="515" width="822" height="12" fill="#57565F"/>
<path d="M78.3414 967.876C74.4383 969.34 84.4083 982.083 80.7125 980.155C73.1603 976.215 66.4366 969.5 59.6267 964.404C59.0351 963.961 50.6332 958.019 51.455 959.662C54.1912 965.135 59.4554 970.022 63.3951 974.608C68.1781 980.177 73.1028 985.599 78.8919 990.147C79.2191 990.405 83.5917 993.519 83.5917 993.238C83.5917 988.861 80.8162 982.823 79.8657 978.546" stroke="#57565F" stroke-width="3" stroke-linecap="round"/>
</svg>
