<svg width="878" height="104" viewBox="0 0 878 104" fill="none" xmlns="http://www.w3.org/2000/svg">
<mask id="path-1-inside-1_154_38" fill="white">
<path d="M845 21H668V25H845V21Z"/>
</mask>
<path d="M845 21H668V25H845V21Z" fill="white"/>
<path d="M668 21V15H662V21H668ZM845 21H851V15H845V21ZM845 25V31H851V25H845ZM668 25H662V31H668V25ZM668 27H845V15H668V27ZM839 21V25H851V21H839ZM845 19H668V31H845V19ZM674 25V21H662V25H674Z" fill="#ABAAAF" mask="url(#path-1-inside-1_154_38)"/>
<mask id="path-3-inside-2_154_38" fill="white">
<path d="M848 98H697V102H848V98Z"/>
</mask>
<path d="M848 98H697V102H848V98Z" fill="white"/>
<path d="M697 98V92H691V98H697ZM848 98H854V92H848V98ZM848 102V108H854V102H848ZM697 102H691V108H697V102ZM697 104H848V92H697V104ZM842 98V102H854V98H842ZM848 96H697V108H848V96ZM703 102V98H691V102H703Z" fill="#ABAAAF" mask="url(#path-3-inside-2_154_38)"/>
<path d="M128.44 17.4273C131.072 17.4273 133.225 18.227 134.9 19.8264C136.574 21.5401 137.411 23.4822 137.411 25.7671C137.411 28.052 136.574 30.1083 134.78 31.822C133.105 33.5356 131.072 34.3353 128.44 34.3353C125.809 34.3353 123.895 33.5356 122.22 31.822C120.426 30.1083 119.589 28.052 119.589 25.7671C119.589 24.0534 119.947 22.6825 120.665 21.4258C121.383 20.1692 122.459 19.141 123.895 18.4555C125.211 17.6558 126.766 17.3131 128.44 17.3131V17.4273ZM128.44 70.5504C131.072 70.5504 133.105 71.3502 134.9 73.0638C136.574 74.7775 137.531 76.7196 137.531 79.0045C137.531 81.4036 136.694 83.4599 135.019 85.0593C133.344 86.773 131.191 87.5727 128.56 87.5727C125.928 87.5727 124.014 86.773 122.34 85.0593C120.665 83.3457 119.828 81.4036 119.828 79.0045C119.828 76.7196 120.665 74.7775 122.459 73.0638C124.134 71.3502 126.167 70.5504 128.679 70.5504H128.44ZM128.44 14C126.167 14 124.014 14.5713 122.1 15.5994C120.187 16.6276 118.751 18.1128 117.675 19.8264C116.598 21.5401 116 23.5964 116 25.8813C116 29.0801 117.196 31.9362 119.589 34.3353C121.981 36.7344 124.971 37.8769 128.44 37.8769C131.909 37.8769 135.019 36.7344 137.411 34.3353C139.804 31.9362 141 29.1944 141 25.8813C141 22.5683 139.804 19.8264 137.411 17.4273C135.019 15.1425 132.029 14 128.44 14ZM128.44 67.1231C124.971 67.1231 121.981 68.2656 119.589 70.6647C117.196 73.0638 116 75.8057 116 79.0045C116 82.2033 117.196 85.1736 119.589 87.4584C121.981 89.7433 124.971 91 128.44 91C131.909 91 135.019 89.8576 137.411 87.4584C139.804 85.0593 141 82.3175 141 79.0045C141 75.6914 139.804 73.0638 137.411 70.6647C135.019 68.2656 132.029 67.1231 128.44 67.1231Z" fill="white"/>
<path d="M693.767 83.3517C693.767 86.4407 694.324 88.7288 695.325 90.1017C696.327 91.4746 697.885 92.6187 700 93.3051L697.106 102C693.878 101.542 690.985 100.513 688.536 98.7966C686.087 97.0805 684.307 94.5636 683.194 91.1314C680.411 94.678 677.072 97.4238 672.954 99.2543C668.836 101.085 664.384 102 659.486 102C651.918 102 646.019 99.8263 641.567 95.4788C637.226 91.1314 635 85.2966 635 78.089C635 70.0805 638.005 63.9026 644.127 59.6695C650.248 55.4365 658.93 53.2627 670.505 53.2627H681.635V46.7415C681.635 41.1356 680.077 37.1314 676.849 34.8432C673.622 32.5551 669.281 31.2966 663.604 31.2966C661.156 31.2966 658.151 31.6398 654.812 32.2119C651.473 32.7839 647.8 33.8136 643.904 35.3009L640.788 25.9195C645.462 24.2034 649.803 22.9449 653.81 22.1441C657.928 21.4576 661.712 21 665.385 21C674.846 21 681.858 23.2881 686.644 27.75C691.319 32.2119 693.767 38.3898 693.767 46.0551V83.3517ZM662.603 92.5043C666.387 92.5043 669.949 91.589 673.288 89.6441C676.738 87.6992 679.521 84.9534 681.635 81.5212V61.5H670.728C662.38 61.5 656.481 62.9873 653.142 65.9619C649.692 68.9365 648.022 72.8263 648.022 77.8602C648.022 82.8941 649.247 86.3263 651.695 88.8432C654.144 91.3602 657.705 92.6186 662.603 92.6186V92.5043Z" fill="white"/>
<path d="M757.44 29.3828C760.072 29.3828 762.225 30.1721 763.9 31.7507C765.574 33.4421 766.412 35.359 766.412 37.6142C766.412 39.8694 765.574 41.8991 763.78 43.5905C762.105 45.2819 760.072 46.0712 757.44 46.0712C754.809 46.0712 752.895 45.2819 751.22 43.5905C749.426 41.8991 748.588 39.8694 748.588 37.6142C748.588 35.9228 748.947 34.5697 749.665 33.3294C750.383 32.089 751.459 31.0742 752.895 30.3976C754.21 29.6083 755.766 29.27 757.44 29.27V29.3828ZM757.44 81.816C760.072 81.816 762.105 82.6053 763.9 84.2967C765.574 85.9881 766.531 87.905 766.531 90.1602C766.531 92.5282 765.694 94.5579 764.019 96.1365C762.344 97.8279 760.191 98.6172 757.56 98.6172C754.928 98.6172 753.014 97.8279 751.34 96.1365C749.665 94.4451 748.828 92.5282 748.828 90.1602C748.828 87.905 749.665 85.9881 751.459 84.2967C753.134 82.6053 755.167 81.816 757.679 81.816H757.44ZM757.44 26C755.167 26 753.014 26.5638 751.101 27.5786C749.187 28.5935 747.751 30.0593 746.675 31.7507C745.598 33.4421 745 35.4718 745 37.727C745 40.8843 746.196 43.7033 748.588 46.0712C750.981 48.4392 753.971 49.5668 757.44 49.5668C760.909 49.5668 764.019 48.4392 766.412 46.0712C768.804 43.7033 770 40.997 770 37.727C770 34.457 768.804 31.7507 766.412 29.3828C764.019 27.1276 761.029 26 757.44 26ZM757.44 78.4332C753.971 78.4332 750.981 79.5608 748.588 81.9288C746.196 84.2967 745 87.003 745 90.1602C745 93.3175 746.196 96.2493 748.588 98.5045C750.981 100.76 753.971 102 757.44 102C760.909 102 764.019 100.872 766.412 98.5045C768.804 96.2493 770 93.4303 770 90.1602C770 86.8902 768.804 84.2967 766.412 81.9288C764.019 79.5608 761.029 78.4332 757.44 78.4332Z" fill="white"/>
<path d="M825.819 66.1695C826.045 72.1921 827.18 77.1723 829.222 81.1102C831.264 84.9322 833.986 87.8277 837.389 89.6808C840.792 91.5339 844.422 92.4605 848.393 92.4605C852.363 92.4605 855.88 91.8814 859.056 90.7232C862.232 89.565 865.522 87.7119 868.925 85.3955L874.71 93.7345C871.08 96.63 866.997 98.8305 862.346 100.568C857.695 102.189 853.044 103 848.166 103C840.679 103 834.326 101.263 829.108 97.904C823.89 94.4294 819.806 89.6808 817.084 83.5424C814.361 77.4039 813 70.2232 813 62.1158C813 54.0085 814.361 47.0593 817.197 40.9209C820.033 34.7825 823.89 29.9181 828.881 26.3277C833.873 22.7373 839.885 21 846.691 21C853.497 21 858.716 22.5056 863.48 25.6327C868.131 28.7599 871.761 33.161 874.257 38.952C876.752 44.7429 878 51.5763 878 59.5678C878 60.9576 878 62.1158 878 63.3898C878 64.548 877.887 65.5904 877.773 66.517H825.932L825.819 66.1695ZM846.691 31.0763C841.019 31.0763 836.255 33.161 832.398 37.3305C828.541 41.5 826.386 47.8701 825.819 56.5565H865.976C865.862 48.1017 864.047 41.8475 860.531 37.5622C857.014 33.2768 852.476 31.1921 846.578 31.1921L846.691 31.0763Z" fill="white"/>
<g opacity="0.5">
<path d="M293.582 76.4623V23.2978L305.348 11.4072L569.794 26.0418L581.788 37.9323V91.0968L569.794 103.102L305.348 88.4672L293.582 76.4623Z" fill="white"/>
</g>
<path d="M292 24.0356C292 21.7211 292.598 19.7537 293.675 17.9021C294.751 16.0505 296.187 14.6618 298.1 13.6202C300.014 12.5787 302.167 12 304.44 12C308.029 12 311.019 13.1573 313.411 15.4718C315.804 17.7864 317 20.6795 317 24.0356C317 27.3917 315.804 30.1692 313.411 32.5994C311.019 35.0297 308.029 36.1869 304.44 36.1869C300.852 36.1869 297.981 35.0297 295.589 32.5994C293.196 30.1692 292 27.3917 292 24.0356ZM292 77.8487C292 74.6083 293.196 71.8309 295.589 69.4006C297.981 66.9703 300.971 65.8131 304.44 65.8131C307.909 65.8131 311.019 66.9703 313.411 69.4006C315.804 71.8309 317 74.6083 317 77.8487C317 81.089 315.804 84.0979 313.411 86.4124C311.019 88.727 308.029 90 304.44 90C300.852 90 297.981 88.8427 295.589 86.4124C293.196 84.0979 292 81.2048 292 77.8487Z" fill="white"/>
<path d="M559 38.8813C559 36.5965 559.574 34.6543 560.608 32.8264C561.641 31.1127 563.019 29.6276 564.856 28.5994C566.694 27.5712 568.761 27 570.943 27C574.388 27 577.258 28.1424 579.555 30.4273C581.852 32.7122 583 35.5683 583 38.8813C583 42.1944 581.852 44.9362 579.555 47.3353C577.258 49.7344 574.388 50.8769 570.943 50.8769C567.498 50.8769 564.742 49.7344 562.445 47.3353C560.148 44.9362 559 42.1944 559 38.8813ZM559 92.0045C559 88.8056 560.148 86.0638 562.445 83.6647C564.742 81.2656 567.612 80.1231 570.943 80.1231C574.273 80.1231 577.258 81.2656 579.555 83.6647C581.852 86.0638 583 88.8056 583 92.0045C583 95.2033 581.852 98.1736 579.555 100.458C577.258 102.743 574.388 104 570.943 104C567.498 104 564.742 102.858 562.445 100.458C560.148 98.0594 559 95.3175 559 92.0045Z" fill="white"/>
<path d="M50 0.5H49.5V1V3V3.5H50H193H193.5V3V1V0.5H193H50Z" fill="#ABAAAF" stroke="#ABAAAF"/>
<path d="M193 96H81V100H193V96Z" fill="#ABAAAF"/>
<path d="M61.2427 74.5495H20.8363L12.663 100H0L33.2691 0H49.7309L83 100H69.5312L61.3578 74.5495H61.2427ZM24.1748 64.0766H57.9043L41.0971 10.5856L24.0596 64.0766H24.1748Z" fill="white"/>
<path d="M205.023 10.3604V44.0315H243.279V54.3919H205.023V89.8648H252V100H192V0H250.605L249.093 10.3604H205.023Z" fill="white"/>
</svg>
