<svg width="115" height="1137" viewBox="0 0 115 1137" fill="none" xmlns="http://www.w3.org/2000/svg">
<path d="M36.0172 256L27 224.828C33.2847 222.893 88.3438 204.024 77.5506 140.851C73.3153 116.177 68.875 107.675 64.5713 99.3812C58.2867 87.3549 54.1197 77.6094 52.6852 52.1744L50.1576 5.79705L82.1957 4L84.7233 50.3774C85.8163 70.6286 88.6854 76.0197 92.9207 84.2447C97.8391 93.7137 104.055 105.533 109.11 135.322C121.885 209.83 66.8257 246.807 35.9489 256H36.0172Z" fill="white" stroke="#57565F" stroke-width="7" stroke-miterlimit="10"/>
<path d="M78.6196 1128.84C66.591 1120.12 56.6483 1082.27 49 1016.25C45.3845 985.034 54.8405 945.379 64.7833 903.441C69.3027 884.548 73.8916 865.033 77.0205 847.178C89.1881 777.212 15.7648 710.914 15 710.291L36.6932 686C40.3088 689.183 124.44 764.824 109.143 852.714C105.875 871.607 101.078 891.607 96.4888 910.915C87.589 948.286 78.411 986.971 81.3313 1012.51C90.2311 1089.46 110.88 1142.26 110.88 1126.8C110.88 1126.8 97.7383 1138.31 96.3788 1129.96L78.4806 1128.84H78.6196Z" fill="white" stroke="#57565F" stroke-width="7" stroke-miterlimit="10"/>
<path d="M3 321.097C3 321.097 25.8036 326.338 33.1284 311.567C42.2499 293.256 43.5628 188.634 36.4453 160.317C34.856 154.054 32.2302 147.996 26.1492 145.614C21.0356 143.572 13.6417 142.278 3 143.436V321.097Z" fill="#45444C" stroke="white" stroke-width="6" stroke-miterlimit="10"/>
<path d="M3 849.576C3 849.576 25.836 857.842 33.1712 834.546C42.3056 805.717 41.06 638.617 36.4928 596.262C35.3856 586.151 32.2717 576.928 26.1821 573.103C21.0613 569.96 13.6568 567.842 3 569.687V849.507V849.576Z" fill="#45444C" stroke="white" stroke-width="6" stroke-miterlimit="10"/>
<path d="M6 536.092C6 536.092 26.9845 541.362 33.7249 526.509C42.1187 508.096 40.9741 402.341 36.7772 374.413C35.8233 367.979 32.8983 362.024 27.3024 359.628C22.5968 357.575 15.7927 356.274 6 357.438V536.092Z" fill="#45444C" stroke="white" stroke-width="6" stroke-miterlimit="10"/>
</svg>
