<svg width="890" height="143" viewBox="0 0 890 143" fill="none" xmlns="http://www.w3.org/2000/svg">
<path d="M39.3427 112C31.1558 112 23.9922 110.055 18.0794 106.279C12.1667 102.503 7.61839 97.1246 4.54829 90.3735C1.59191 83.8512 0 76.0703 0 67.6028C0 59.1352 1.4782 51.5831 4.54829 44.9464C7.61839 38.1953 12.053 32.8173 17.6246 28.9268C28.7679 21.2603 45.7103 21.0314 56.6262 28.2403C61.9704 31.6731 66.0639 36.7078 68.9065 43.1156C71.6355 49.2946 73 56.6179 73 65.0854C73 66.4585 73 67.8316 73 68.9759C73 70.2345 72.8863 71.2644 72.7726 72.2942L72.4315 75.8414H21.2632C21.7181 79.3886 22.6277 82.2492 23.8785 84.6522C25.5841 87.7417 27.7445 90.0302 30.3598 91.4033C36.1589 94.4928 43.4361 94.0351 48.8941 92.0899C51.7368 91.06 54.8069 89.4581 57.8769 87.284L61.0608 85.1099L71.2944 99.642L68.338 102.045C64.3583 105.134 59.81 107.652 54.8068 109.368C49.8037 111.085 44.5732 112 39.3427 112ZM37.6371 30.9865C31.6106 30.9865 26.4938 32.474 22.0592 35.5635C17.6246 38.653 14.2134 42.8868 11.7118 48.3792C9.21029 53.8717 7.8458 60.3939 7.8458 67.7172C7.8458 75.0404 9.09658 81.6771 11.5981 87.1696C14.0997 92.5476 17.5109 96.6669 22.1729 99.642C29.7913 104.562 41.5031 105.592 52.0779 101.931C55.0343 100.901 57.6495 99.642 60.1511 98.04L58.9003 96.2092C56.3988 97.6968 53.8972 98.841 51.5094 99.7564C44.1184 102.503 34.2259 102.731 26.4938 98.6122C22.4003 96.4381 19.1028 93.1197 16.715 88.5427C14.3271 84.1945 13.0763 78.7021 12.8489 72.0654V67.946H65.0405C65.0405 67.0306 65.0405 66.1152 65.0405 65.1998C65.0405 57.8766 63.9034 51.5831 61.6293 46.5484C59.3551 41.5137 56.3988 37.852 52.3053 35.1058C48.3255 32.474 43.3224 31.1009 37.6371 31.1009V30.9865ZM61.2882 66.3441H12.7352L12.9626 62.1103C13.5312 52.613 16.1464 45.4041 20.581 40.5982C25.243 35.6779 31.0421 33.1605 37.8645 33.1605C44.6869 33.1605 50.5997 35.7923 54.8068 40.9415C58.9003 45.8618 60.9471 53.0707 61.1745 62.2247V66.3441H61.2882ZM21.3769 58.3342H52.9875C52.419 53.0707 51.0545 48.9513 48.6667 46.0907C43.3224 39.5684 32.5203 39.5684 26.3801 46.0907C23.8785 48.8369 22.1729 52.8418 21.3769 58.3342Z" fill="white"/>
<path d="M158 142.885L138.158 140.349V106.919C136.932 107.842 135.594 108.764 134.145 109.455C129.91 111.53 125.451 112.683 120.769 112.683C113.189 112.683 106.835 110.723 102.042 106.804C97.3603 102.885 93.9047 97.4669 91.8982 90.5504C90.0032 84.0951 89 76.4871 89 67.9568C89 59.4265 90.2262 52.1643 92.567 45.5937C95.0194 38.7925 98.6979 33.2594 103.491 29.2248C108.507 25.0749 114.638 23 121.772 23C126.9 23 131.47 24.0375 135.483 25.9971C137.044 26.8041 138.493 27.7262 139.942 28.7637L140.388 24.6138H158V143V142.885ZM145.85 133.202L150.086 133.778V32.5677H147.187L145.627 45.4784L145.85 45.8242V133.202ZM121.661 30.8386C116.31 30.8386 111.851 32.3372 108.284 35.219C104.606 38.3314 101.708 42.5966 99.8126 48.0144C97.8061 53.6628 96.8029 60.3487 96.8029 67.6109C96.8029 75.3343 97.6947 82.1355 99.3667 87.8992C100.927 93.2017 103.491 97.3516 106.947 100.118C110.402 102.885 114.861 104.268 120.769 104.268C124.336 104.268 127.569 103.461 130.69 101.847C132.585 100.925 134.257 99.5418 135.929 97.928C128.572 103.231 117.536 103.231 110.96 97.5822C107.838 94.8156 105.498 90.781 103.937 85.4784C102.599 80.6369 101.819 74.5274 101.819 67.4957C101.819 56.1989 103.603 47.8991 107.17 42.1354C111.071 35.9107 117.09 32.5677 124.67 32.5677C128.795 32.5677 132.696 33.6052 136.152 35.5648C134.814 34.5274 133.477 33.6052 131.916 32.7983C129.018 31.2997 125.562 30.6081 121.549 30.6081L121.661 30.8386ZM124.67 40.9827C119.654 40.9827 116.199 42.8271 113.746 46.7464C110.96 51.1268 109.622 58.2738 109.622 67.7262C109.622 74.0663 110.179 79.3689 111.405 83.4035C112.52 87.0922 113.969 89.8588 115.976 91.5879C119.877 95.0461 127.234 94.7003 131.805 91.1268C134.257 89.2824 136.263 87.0922 138.047 84.6715V48.1297C136.486 45.9395 134.703 44.3256 132.585 42.9424C130.132 41.5591 127.569 40.8674 124.67 40.8674V40.9827Z" fill="white"/>
<path d="M790 111H723V1H789.2L786.57 19.6012H743.695V45.8956H781.311V64.4969H743.695V92.6284H789.886V111H790ZM731.003 102.962H781.997V100.666H735.805V56.4593H773.422V53.9332H735.805V11.5637H779.71L780.053 9.03759H731.003V102.962Z" fill="white"/>
<path d="M868.786 138.885L867.279 135.085C865.308 130.133 863.222 125.987 860.787 122.647C858.585 119.538 855.919 117.35 852.557 115.737C849.195 114.125 844.79 113.319 839.573 113.319C830.763 113.319 823.228 110.785 817.084 105.949C811.056 101.112 806.419 94.4325 803.405 85.9106C800.507 77.7341 799 67.9453 799 57.005C799 46.0646 800.507 36.5062 803.521 28.2146C806.651 19.5775 811.288 12.6678 817.548 7.71585C823.924 2.64874 831.806 0 841.08 0C850.354 0 858.237 2.53357 864.613 7.48552C870.873 12.3223 875.51 19.232 878.64 27.7539C881.654 36.0456 883.161 45.9495 883.161 56.8898C883.161 64.3753 882.465 71.285 881.074 77.6189C879.683 84.1831 877.132 89.9412 873.771 95.0083C871.916 97.7722 869.713 100.191 867.163 102.379C868.902 103.07 870.641 103.761 872.148 104.682C876.089 106.87 879.451 109.864 882.117 113.549C884.668 117.119 886.986 121.611 888.725 127.023L890 130.708L868.902 139L868.786 138.885ZM852.557 107.215C853.832 107.561 854.991 108.022 856.034 108.597C860.555 110.785 864.381 113.895 867.395 118.041C869.597 121.035 871.568 124.49 873.307 128.52L879.567 126.102C878.292 123.108 876.901 120.459 875.394 118.386C873.423 115.622 870.873 113.434 868.09 111.822C865.076 110.21 861.251 108.828 856.962 108.022L852.673 107.215H852.557ZM840.964 8.1765C833.545 8.1765 827.517 10.1342 822.648 14.0497C817.664 18.0804 813.722 23.8385 811.172 30.9785C808.506 38.464 807.115 47.3314 807.115 57.1202C807.115 66.9089 808.506 76.0067 811.056 83.377C813.606 90.4018 817.316 95.9296 822.185 99.8451C826.938 103.645 832.618 105.488 839.689 105.488C842.008 105.488 844.094 105.603 846.181 105.834L855.803 100.536C860.44 98.0025 864.265 94.6628 866.931 90.6322C869.713 86.4864 871.8 81.5344 873.075 76.0067C874.35 70.2486 875.046 63.7995 875.046 57.005C875.046 46.9859 873.655 38.0033 870.989 30.633C868.438 23.493 864.613 17.8501 859.628 13.9346C854.643 10.0191 848.615 8.1765 841.196 8.1765H840.964ZM840.964 102.839C831.111 102.839 823.46 98.4631 818.823 90.0563C814.534 82.2254 812.331 71.5153 812.331 57.005C812.331 42.4946 814.302 31.6694 818.591 23.7233C823.112 15.2013 830.879 10.71 840.964 10.71C851.05 10.71 858.817 15.2014 863.338 23.6082C867.511 31.4391 869.482 42.2643 869.482 56.7747C869.482 71.285 867.395 81.9951 863.222 89.8261C858.701 98.2328 850.934 102.724 840.848 102.724L840.964 102.839ZM840.964 18.8865C833.777 18.8865 828.908 21.6504 825.778 27.6388C822.301 34.3182 820.446 44.2221 820.446 57.1202C820.446 70.0183 822.301 79.807 825.894 86.256C829.14 92.1293 833.893 94.778 840.964 94.778C848.036 94.778 853.02 92.0141 856.15 86.1408C859.628 79.5766 861.483 69.7879 861.483 56.8898C861.483 43.9917 859.744 34.0878 856.266 27.4085C853.136 21.5352 848.267 18.7713 841.08 18.7713L840.964 18.8865Z" fill="white"/>
<g opacity="0.5">
<path d="M218.329 27.6215L658.234 21.7905L664.517 56.3189L647.61 92.5621L228.952 98.3931L212.16 60.0918L218.329 27.6215Z" fill="white"/>
</g>
<path d="M218.677 27L217.778 56.937L245.294 46.958L249 58.6575L220.923 67.1454L238.78 90.7738L229.122 98L212.5 73.3393L195.878 98L186.22 90.7738L204.077 67.1454L176 58.6575L179.706 46.958L207.222 56.937L206.323 27H218.677Z" fill="white"/>
<path d="M669.846 22L668.923 51.0937L697.192 41.3958L701 52.7657L672.154 61.0145L690.5 83.9774L680.577 91L663.5 67.0339L646.423 91L636.5 83.9774L654.846 61.0145L626 52.7657L629.808 41.3958L658.077 51.0937L657.154 22H669.846Z" fill="white"/>
</svg>
