<svg width="879" height="154" viewBox="0 0 879 154" fill="none" xmlns="http://www.w3.org/2000/svg">
<path d="M550.681 120H529V4H602L599.117 23.1811H550.681V52.9803H593.466V71.9331H550.681V120ZM537.073 112.008H542.608V63.9409H585.393V60.9724H542.608V15.189H592.082L592.543 11.9921H536.957V112.008H537.073Z" fill="white"/>
<path d="M665.59 122.885C657.301 122.885 650.489 120.463 645.266 115.735C639.93 110.892 637.205 104.089 637.205 95.7868V23.8333H612V4H658.21V96.594C658.21 100.63 659.686 101.668 660.253 102.014C663.432 104.089 669.223 104.32 673.991 103.167C676.035 102.705 678.079 102.014 680.122 101.206L683.869 99.7074L690 116.773L686.821 118.388C684.323 119.656 681.371 120.694 677.738 121.616C674.105 122.539 670.017 123 665.59 123V122.885ZM619.834 15.7616H645.039V95.7868C645.039 101.898 646.856 106.395 650.489 109.739C654.349 113.199 659.231 114.813 665.59 114.813C669.45 114.813 672.856 114.467 675.808 113.66C677.397 113.199 678.76 112.853 680.122 112.391L679.214 109.97C678.079 110.316 676.943 110.662 675.808 110.892C668.996 112.507 660.821 111.93 655.825 108.586C653.328 106.857 650.262 103.397 650.262 96.4787V11.9564H619.948V15.6463L619.834 15.7616Z" fill="white"/>
<path d="M757.393 120H735.807V23.6378H702V4H792L789.602 23.6378H757.279V120H757.393ZM743.802 112.008H749.398V15.6457H782.635L783.091 11.9921H709.995V15.6457H743.802V112.008Z" fill="white"/>
<path d="M854.277 122.885C845.882 122.885 838.983 120.463 833.693 115.735C828.288 110.892 825.528 104.089 825.528 95.7868V23.8333H800V4H846.802V96.594C846.802 100.63 848.297 101.668 848.872 102.014C852.092 104.089 858.071 104.32 862.786 103.167C864.856 102.705 866.926 102.014 868.996 101.206L872.79 99.7074L879 116.773L875.78 118.388C873.25 119.656 870.146 120.694 866.581 121.616C862.901 122.539 858.761 123 854.277 123V122.885ZM808.05 15.7616H833.578V95.7868C833.578 101.898 835.418 106.395 839.098 109.739C843.007 113.199 847.952 114.813 854.392 114.813C858.301 114.813 861.751 114.467 864.741 113.66C866.351 113.199 867.731 112.853 869.111 112.391L868.191 109.97C867.041 110.316 865.891 110.662 864.741 110.892C857.841 112.507 849.562 111.93 844.502 108.586C841.972 106.857 838.868 103.397 838.868 96.4787V11.9564H808.165V15.6463L808.05 15.7616Z" fill="white"/>
<path d="M39.8445 122H19.061V58.1696H0V40.0804H19.061V28.0979C19.061 22.337 20.5538 17.2674 23.5392 13.0044C26.4099 8.85654 30.4288 5.63046 35.5959 3.21089C44.2078 -0.591282 56.4942 -0.7065 64.6468 1.2522C67.9767 1.9435 71.5363 3.09568 75.3256 4.70872L79 6.32175L71.6512 23.1435L67.9767 21.5304C65.6802 20.4935 63.2689 19.8022 60.6279 19.2261C51.2122 17.7283 45.5857 18.4196 42.2558 21.0696C40.5334 22.337 39.7297 24.6413 39.7297 27.8674V40.0804H67.2878L64.9913 58.1696H39.7297V122H39.8445ZM27.0988 113.935H31.8067V50.1044H57.9869L58.2166 48.1457H31.8067V27.8674C31.8067 20.4935 34.907 16.5761 37.548 14.6174C41.2224 11.8522 46.1599 10.4696 52.5901 10.4696C55.3459 10.4696 58.3314 10.7 62.1206 11.2761C64.0727 11.6218 65.7951 12.0826 67.5174 12.6587L68.436 10.5848C66.5988 9.8935 64.7616 9.43263 63.0393 9.08698C56.1497 7.47394 45.9302 7.47394 38.9259 10.5848C35.1366 12.3131 32.1512 14.6174 30.1991 17.6131C28.1323 20.6087 27.0988 23.95 27.0988 28.0979V48.1457H8.03779V50.1044H27.0988V113.935Z" fill="white"/>
<path d="M162 122H95V103.809H119.333V58.2152H95.7922V40.139H139.818V103.809H162V122ZM102.922 113.941H154.078V111.868H131.895V48.1984H103.715V50.1557H127.255V111.868H102.922V113.941ZM125.784 28.0498C122.049 28.0498 118.88 26.7833 116.503 24.2504C114.127 21.7174 112.769 18.4936 112.769 14.9244C112.769 11.3552 114.014 8.24658 116.503 5.71361C121.483 0.647665 130.537 0.877935 135.291 5.71361C137.667 8.13144 138.912 11.3552 138.912 14.8093C138.912 18.2633 137.667 21.6022 135.291 24.1352C132.914 26.6682 129.632 27.9347 125.784 27.9347V28.0498ZM125.784 10.0887C124.199 10.0887 123.068 10.5493 122.049 11.4704C121.144 12.3914 120.691 13.5428 120.691 14.9244C120.691 16.4212 121.144 17.5725 122.049 18.6087C122.954 19.5298 124.199 19.9903 125.784 19.9903C128.047 19.9903 129.066 19.1844 129.632 18.6087C130.537 17.5725 130.99 16.4212 130.99 14.9244C130.99 13.5428 130.537 12.3914 129.632 11.4704C129.066 10.8947 128.047 10.0887 125.784 10.0887Z" fill="white"/>
<path d="M344 122H276V103.809H300.696V58.2152H276.804V40.139H321.486V103.809H344V122ZM284.041 113.941H335.959V111.868H313.446V48.1984H284.845V50.1557H308.736V111.868H284.041V113.941ZM307.243 28.0498C303.453 28.0498 300.236 26.7833 297.824 24.2504C295.412 21.8325 294.034 18.4936 294.034 14.9244C294.034 11.3552 295.297 8.24658 297.824 5.71361C302.878 0.647665 312.068 0.877935 316.892 5.71361C319.304 8.13144 320.568 11.3552 320.568 14.8093C320.568 18.2633 319.304 21.6022 316.892 24.1352C314.48 26.6682 311.149 27.9347 307.243 27.9347V28.0498ZM307.243 10.0887C305.635 10.0887 304.486 10.5493 303.453 11.4704C302.534 12.3914 302.074 13.5428 302.074 14.9244C302.074 16.4212 302.534 17.5725 303.453 18.6087C304.372 19.5298 305.635 19.9903 307.243 19.9903C309.541 19.9903 310.574 19.1844 311.149 18.6087C312.068 17.5725 312.527 16.4212 312.527 14.9244C312.527 13.5428 312.068 12.3914 311.149 11.4704C310.574 10.8947 309.541 10.0887 307.243 10.0887Z" fill="white"/>
<path d="M185.612 153.886L182 136.267L185.941 135.581C193.056 134.323 199.514 132.492 204.987 129.975C210.132 127.687 214.182 124.484 217.028 120.48C219.764 116.704 221.187 111.556 221.187 105.378V57.9007H189.553V39.9393H241V104.578C241 114.187 238.811 122.425 234.651 129.06C230.492 135.581 224.362 140.958 216.59 144.848C209.147 148.623 199.952 151.483 189.334 153.314L185.722 154L185.612 153.886ZM191.195 142.674L191.633 144.619C199.952 142.903 207.286 140.5 213.197 137.526C219.764 134.208 224.8 129.861 228.193 124.484C231.586 119.221 233.228 112.471 233.228 104.463V47.8332H197.106V49.7781H228.74V105.264C228.74 113.158 226.879 119.908 223.158 125.17C219.545 130.318 214.401 134.323 208.052 137.183C203.017 139.471 197.325 141.301 191.195 142.56V142.674ZM225.785 27.9269C222.173 27.9269 218.998 26.5541 216.699 24.0372C214.401 21.5203 213.306 18.4314 213.306 14.7705C213.306 11.1095 214.51 8.13503 216.809 5.73255C221.516 0.698779 230.382 0.813183 235.089 5.73255C237.388 8.13503 238.701 11.3383 238.701 14.8849C238.701 18.4314 237.497 21.6347 235.089 24.1516C232.681 26.6685 229.616 27.9269 225.894 27.9269H225.785ZM225.785 10.0799C223.705 10.0799 222.829 10.8807 222.282 11.4527C221.406 12.368 220.968 13.512 220.968 14.8849C220.968 16.3721 221.406 17.6305 222.282 18.5458C222.829 19.1178 223.814 19.9186 225.785 19.9186C227.974 19.9186 228.959 19.1178 229.616 18.5458C230.492 17.5161 230.93 16.3721 230.93 14.8849C230.93 13.512 230.492 12.368 229.616 11.4527C229.069 10.8807 228.083 10.0799 225.785 10.0799Z" fill="white"/>
</svg>
