<?xml version="1.0" encoding="UTF-8"?>
<svg xmlns="http://www.w3.org/2000/svg" version="1.1" viewBox="0 0 1440 893.4">
  <defs>
    <style>
      .cls-1 {
        fill: #fff;
      }

      .cls-2, .cls-3 {
        fill: #45444c;
      }

      .cls-4 {
        fill: #abaaaf;
      }

      .cls-4, .cls-5 {
        stroke-miterlimit: 10;
      }

      .cls-4, .cls-5, .cls-3 {
        stroke: #fff;
        stroke-width: 6px;
      }

      .cls-5, .cls-6 {
        fill: #57565f;
      }
    </style>
  </defs>
  <!-- Generator: Adobe Illustrator 28.6.0, SVG Export Plug-In . SVG Version: 1.2.0 Build 709)  -->
  <g>
    <g id="Layer_1">
      <path class="cls-5" d="M1037,186.2c42,0,76-33.9,76-75.7s-34-75.7-76-75.7-76,33.9-76,75.7,34,75.7,76,75.7Z"/>
      <path class="cls-4" d="M1059.2,59.5l-.9-.9h-43.1l-.9.9-28.7,28.6-.9.9v42.9l.9.9,28.7,28.6.9.9h43.1l.9-.9,28.7-28.6.9-.9v-42.9l-.9-.9-28.7-28.6Z"/>
      <g>
        <path class="cls-2" d="M1077,121.3c-.3,1.2-.7,2.5-1.2,3.7-.4,1.2-.9,2.3-1.4,3.4-3.5,7.2-9,13.3-15.8,17.5-1.1.7-2.2,1.3-3.3,1.8-1.2.6-2.4,1.1-3.6,1.6-.9-.8-1.8-1.5-2.7-2.2-3.9,1.3-8,2-12.2,2-21.3,0-38.6-17.2-38.6-38.3s2.6-15.8,7-22c1.1-1.5,2.2-2.9,3.5-4.3,1.3-1.4,2.7-2.6,4.2-3.8,5.8-4.5,13-7.5,20.8-8.1,1,0,2-.1,3-.1s.3,0,.5,0c1.2,0,2.4,0,3.6.2,19.4,2,34.5,18.3,34.5,38s-.3,5.6-.9,8.3c.8.8,1.7,1.5,2.5,2.3Z"/>
        <path class="cls-1" d="M1077,121.3c-.9-.8-1.7-1.5-2.5-2.3-.3,1.3-.6,2.6-1.1,3.8-.4,1.2-.8,2.3-1.4,3.5-3.3,7.4-8.9,13.5-15.9,17.5-1.1.6-2.2,1.2-3.4,1.7-1.2.5-2.5,1-3.7,1.5.9.7,1.8,1.5,2.7,2.2-4.6,1.8-9.7,2.7-14.9,2.7-23,0-41.6-18.5-41.6-41.3s3.8-19.7,10.1-26.9c.2-2,.5-3.7,1-5.3-8.7,8.1-14.1,19.5-14.1,32.2,0,24.4,20,44.3,44.6,44.3s12.2-1.3,17.6-3.6c1.2-.5,2.4-1.1,3.5-1.7,1.1-.6,2.2-1.2,3.2-1.9,6.7-4.3,12.1-10.3,15.7-17.4.6-1.1,1.1-2.2,1.5-3.3.5-1.2.9-2.4,1.3-3.6-.8-.7-1.7-1.5-2.5-2.2Z"/>
        <path class="cls-1" d="M1081.4,110.7c0,4.5-.7,8.8-1.9,12.8-.8-.7-1.7-1.5-2.5-2.2-.9-.8-1.7-1.5-2.5-2.3.6-2.7.9-5.5.9-8.3,0-19.7-15.1-36-34.5-38-1.2-.1-2.4-.2-3.6-.2-.2,0-.3,0-.5,0-1,0-2,0-3,.1-7.8.6-15,3.5-20.8,8.1-1.5,1.2-2.9,2.4-4.2,3.8-1.3,1.3-2.5,2.8-3.5,4.3-4.4,6.2-7,13.8-7,22,0,21.1,17.3,38.3,38.6,38.3s8.4-.7,12.2-2c.9.7,1.8,1.5,2.7,2.2-4.6,1.8-9.7,2.7-14.9,2.7-23,0-41.6-18.5-41.6-41.3s3.8-19.7,10.1-26.9c.2-2,.5-3.7,1-5.3,1.9-1.8,4-3.4,6.2-4.8,6.3-4.1,13.8-6.7,21.8-7.1.8,0,1.7,0,2.5,0s1.8,0,2.6,0c23.4,1.3,42,20.6,42,44.2Z"/>
      </g>
      <g>
        <g>
          <path class="cls-6" d="M1332.5,677v.2c-2.4,18.3-7.4,56.5-17.9,91.7-10.6,35.5-24.5,60.9-41.5,75.8v-42.3c12.2-17.2,24.7-52.3,32.1-90.1,6.9-35,12.9-89.4,2.8-149.9-22.6-135.8-103.8-274.5-174.2-351.6-16.3-17.8-37.6-34.8-58.1-51.3-5-4-9.8-7.9-14.6-11.8-.8-.7-1.6-1.3-2.4-2-.8-.7-1.6-1.4-2.5-2-11.9-9.8-22.8-19.4-31.6-28.9-5-5.5-8.6-11.5-10.7-18-.9-2.8,2.1-4.8,1.9-7.1,2.6-3.2,5.3-8.4,18-8.9,1.4,6.1,5.2,11.2,9.9,16.6,9.8,11.3,19.1,20.4,28.3,28.7.8.7,1.6,1.4,2.4,2.1.8.7,1.5,1.4,2.3,2,6.4,5.6,12.7,10.8,19.2,16.2,21.1,17.4,43,35.4,71.8,68.9,47.8,60.9,133.7,213.2,154.4,304.4,21.4,94.1,10.4,156.5,10.3,157.1Z"/>
          <path class="cls-6" d="M1339.4,678.2c-5.5,42.4-18.5,141.4-67.7,176.6-.6.4-1.3.7-2,.7s.3.3-.2,0c-1.2-.6-1.9-1.8-1.9-3.1v-50.6c0-.8.2-1.5.7-2.1,20.3-27.6,50.9-128.5,32.9-236-11.2-67.2-36.9-135.1-68.5-195.8-31.6-60.7-69.1-114.1-104-152.2-15.9-17.4-37-34.3-57.3-50.6-5.8-4.6-11.4-9.2-16.9-13.7-.9-.7-1.8-1.4-2.6-2.2-.9-.8-1.8-1.5-2.7-2.2-11.1-9.2-21.2-18.3-29.6-27.4-5.7-6.2-9.8-13.2-12.2-20.6-1.2-3.8-1.8-7.2-2-10.3.3-.5.7-1,1.1-1.5,0,0,0,0,0,0,.8-1,1.5-1.9,2.4-2.8,1.3-1.4,2.7-2.6,4.2-3.8,5-3.9,10.9-6.6,17.4-7.6,1.1-.2,2.4-.4,3.6-.4,1.1,0,2.2,0,3.4,0,0,0,0,0,0,0,1.2,0,2.4,0,3.6.2,1.1,5.8,3.2,14.7,8.1,20.3,8.8,10.1,17.1,18.5,25.5,26,.8.8,1.7,1.5,2.5,2.3.8.8,1.7,1.5,2.5,2.2,6.9,6.1,13.8,11.8,20.9,17.7,20.4,16.8,43.4,35.8,72.7,69.8h0c23.9,30.5,57.8,85,86.4,138.8,20.3,38.2,56.2,110.8,69.4,168.5,21.4,93.8,10.9,156.9,10.4,159.9Z"/>
          <path class="cls-1" d="M1037.4,72.5c-1.2,0-2.4,0-3.5,0-1.2,0-2.4.2-3.5.4,1.1-.2,2.3-.3,3.5-.4,1,0,2-.1,3-.1s.3,0,.5,0c0,0,0,0,0,0Z"/>
          <path class="cls-1" d="M1332.5,677v.2c-2.4,18.3-7.4,56.5-17.9,91.7-10.6,35.5-24.5,60.9-41.5,75.8v-42.3c12.2-17.2,24.7-52.3,32.1-90.1,6.9-35,12.9-89.4,2.8-149.9-22.6-135.8-103.8-274.5-174.2-351.6-16.3-17.8-37.6-34.8-58.1-51.3-5-4-9.8-7.9-14.6-11.8-.8-.7-1.6-1.3-2.4-2-.8-.7-1.6-1.4-2.5-2-11.9-9.8-22.8-19.4-31.6-28.9-5-5.5-8.6-11.5-10.7-18-.5-1.7-.9-3.3-1.2-4.7s.3-3.7,1.6-4.9c3.1-3,8.4-6.8,16.4-8.2s4.6,1,5.3,3.3c1.5,5.2,3.9,10.8,7.7,15.2,9.8,11.3,19.1,20.4,28.3,28.7.8.7,1.6,1.4,2.4,2.1.8.7,1.5,1.4,2.3,2,6.4,5.6,12.7,10.8,19.2,16.2,21.1,17.4,43,35.4,71.8,68.9,47.8,60.9,133.7,213.2,154.4,304.4,21.4,94.1,10.4,156.5,10.3,157.1Z"/>
        </g>
        <path class="cls-6" d="M1037.3,72.4c-.2,0-.3,0-.5,0-1,0-2,0-3,.1,0,0,0,0,0,0,1.1,0,2.3-.1,3.5,0,0,0,0,0,0,0Z"/>
      </g>
      <line class="cls-3" x1="1270.2" y1="887" x2="1270.2" y2="723.4"/>
    </g>
  </g>
</svg>