<svg width="931" height="312" viewBox="0 0 931 312" fill="none" xmlns="http://www.w3.org/2000/svg">
<circle cx="165.5" cy="158.5" r="104.5" fill="#45444C" stroke="white" stroke-width="6"/>
<circle cx="8.5" cy="8.5" r="5.5" transform="matrix(1 0 0 -1 260 88)" fill="white" stroke="white" stroke-width="6"/>
<circle cx="8.5" cy="8.5" r="5.5" transform="matrix(1 0 0 -1 219 54)" fill="white" stroke="white" stroke-width="6"/>
<circle cx="8.5" cy="8.5" r="5.5" transform="matrix(1 0 0 -1 155 39)" fill="white" stroke="white" stroke-width="6"/>
<circle cx="8.5" cy="8.5" r="5.5" transform="matrix(1 0 0 -1 97 54)" fill="white" stroke="white" stroke-width="6"/>
<circle cx="8.5" cy="8.5" r="5.5" transform="matrix(1 0 0 -1 53 88)" fill="white" stroke="white" stroke-width="6"/>
<circle cx="8.5" cy="8.5" r="5.5" transform="matrix(1 0 0 -1 26 141)" fill="white" stroke="white" stroke-width="6"/>
<circle cx="8.5" cy="8.5" r="5.5" transform="matrix(1 0 0 -1 25 199)" fill="white" stroke="white" stroke-width="6"/>
<circle cx="8.5" cy="8.5" r="5.5" transform="matrix(1 0 0 -1 289 199)" fill="white" stroke="white" stroke-width="6"/>
<circle cx="8.5" cy="8.5" r="5.5" transform="matrix(1 0 0 -1 264 256)" fill="white" stroke="white" stroke-width="6"/>
<path d="M64 247.5C64 244.622 61.4776 242 58 242C54.5224 242 52 244.622 52 247.5C52 250.378 54.5224 253 58 253C61.4776 253 64 250.378 64 247.5Z" fill="white" stroke="white" stroke-width="6"/>
<circle cx="8.5" cy="8.5" r="5.5" transform="matrix(1 0 0 -1 89 290)" fill="white" stroke="white" stroke-width="6"/>
<circle cx="8.5" cy="8.5" r="5.5" transform="matrix(1 0 0 -1 227 290)" fill="white" stroke="white" stroke-width="6"/>
<circle cx="8.5" cy="8.5" r="5.5" transform="matrix(1 0 0 -1 287 141)" fill="white" stroke="white" stroke-width="6"/>
<path d="M256.619 182.508L159.654 50.1122C156.727 46.1164 151.52 44.4648 146.668 45.9222C100.263 59.3953 71.6472 93.9039 61.0131 108.879C58.0739 113.053 58.113 118.565 61.0394 122.561L157.79 254.664C160.717 258.66 165.96 260.36 170.776 258.854C188.348 253.246 229.918 236.426 256.695 196.153C259.513 191.918 259.495 186.54 256.568 182.545L256.619 182.508Z" fill="#57565F" stroke="white" stroke-width="6" stroke-miterlimit="10"/>
<rect x="91.3623" y="76.322" width="20.0928" height="83.9752" rx="9" transform="rotate(-37.0782 91.3623 76.322)" fill="#ABAAAF" stroke="white" stroke-width="6"/>
<circle cx="764.5" cy="158.5" r="104.5" fill="#45444C" stroke="white" stroke-width="6"/>
<circle cx="8.5" cy="8.5" r="5.5" transform="matrix(1 0 0 -1 860 88)" fill="white" stroke="white" stroke-width="6"/>
<path d="M833 45.5C833 42.6217 830.478 40 827 40C823.522 40 821 42.6217 821 45.5C821 48.3783 823.522 51 827 51C830.478 51 833 48.3783 833 45.5Z" fill="white" stroke="white" stroke-width="6"/>
<circle cx="8.5" cy="8.5" r="5.5" transform="matrix(1 0 0 -1 755 39)" fill="white" stroke="white" stroke-width="6"/>
<circle cx="8.5" cy="8.5" r="5.5" transform="matrix(1 0 0 -1 697 54)" fill="white" stroke="white" stroke-width="6"/>
<circle cx="8.5" cy="8.5" r="5.5" transform="matrix(1 0 0 -1 653 88)" fill="white" stroke="white" stroke-width="6"/>
<circle cx="8.5" cy="8.5" r="5.5" transform="matrix(1 0 0 -1 626 141)" fill="white" stroke="white" stroke-width="6"/>
<circle cx="8.5" cy="8.5" r="5.5" transform="matrix(1 0 0 -1 625 199)" fill="white" stroke="white" stroke-width="6"/>
<circle cx="8.5" cy="8.5" r="5.5" transform="matrix(1 0 0 -1 889 199)" fill="white" stroke="white" stroke-width="6"/>
<path d="M878 247.5C878 244.622 875.478 242 872 242C868.522 242 866 244.622 866 247.5C866 250.378 868.522 253 872 253C875.478 253 878 250.378 878 247.5Z" fill="white" stroke="white" stroke-width="6"/>
<circle cx="8.5" cy="8.5" r="5.5" transform="matrix(1 0 0 -1 649 256)" fill="white" stroke="white" stroke-width="6"/>
<circle cx="8.5" cy="8.5" r="5.5" transform="matrix(1 0 0 -1 689 290)" fill="white" stroke="white" stroke-width="6"/>
<circle cx="8.5" cy="8.5" r="5.5" transform="matrix(1 0 0 -1 827 290)" fill="white" stroke="white" stroke-width="6"/>
<circle cx="8.5" cy="8.5" r="5.5" transform="matrix(1 0 0 -1 887 141)" fill="white" stroke="white" stroke-width="6"/>
<path d="M746.188 252.63L874.065 149.779C877.924 146.674 879.338 141.398 877.663 136.617C862.106 90.8684 826.339 63.8421 810.898 53.8959C806.595 51.1484 801.091 51.4366 797.232 54.5407L669.638 157.165C665.778 160.269 664.317 165.584 666.039 170.327C672.435 187.627 691.118 228.395 732.561 253.323C736.919 255.947 742.29 255.686 746.149 252.582L746.188 252.63Z" fill="#57565F" stroke="white" stroke-width="6" stroke-miterlimit="10"/>
<rect x="844.793" y="82.7441" width="20.0928" height="83.9752" rx="9" transform="rotate(50.3306 844.793 82.7441)" fill="#ABAAAF" stroke="white" stroke-width="6"/>
</svg>
