<svg width="774" height="121" viewBox="0 0 774 121" fill="none" xmlns="http://www.w3.org/2000/svg">
<path d="M603.478 97.847H582.228C577.675 97.847 574 94.1683 574 89.6099V11.2371C574 6.67873 577.675 3 582.228 3H762.772C767.325 3 771 6.67873 771 11.2371V89.6099C771 94.1683 767.325 97.847 762.772 97.847H743.359C741.202 97.847 739.045 98.7267 737.528 100.246L722.189 115.601C720.672 117.12 718.515 118 716.358 118H631.598C629.521 118 627.524 117.2 626.006 115.841L608.91 100.086C607.393 98.6467 605.395 97.927 603.318 97.927L603.478 97.847Z" stroke="white" stroke-width="6" stroke-miterlimit="10" stroke-linejoin="round"/>
<path d="M520.409 4H375.591C370.294 4 366 8.24389 366 13.479V88.521C366 93.7561 370.294 98 375.591 98H520.409C525.706 98 530 93.7561 530 88.521V13.479C530 8.24389 525.706 4 520.409 4Z" stroke="white" stroke-width="6" stroke-miterlimit="10"/>
<path d="M498.559 22H396.441C391.227 22 387 26.2375 387 31.4648V68.5352C387 73.7625 391.227 78 396.441 78H498.559C503.773 78 508 73.7625 508 68.5352V31.4648C508 26.2375 503.773 22 498.559 22Z" stroke="white" stroke-width="6" stroke-miterlimit="10"/>
<path d="M489.981 36H406.019C404.352 36 403 37.2818 403 38.8631V46.1369C403 47.7182 404.352 49 406.019 49H489.981C491.648 49 493 47.7182 493 46.1369V38.8631C493 37.2818 491.648 36 489.981 36Z" stroke="white" stroke-width="6" stroke-miterlimit="10"/>
<path d="M418 54C418 52.3431 416.657 51 415 51C413.343 51 412 52.3431 412 54C412 55.6568 413.343 57 415 57C416.657 57 418 55.6568 418 54Z" fill="white" stroke="white" stroke-width="6" stroke-miterlimit="10"/>
<path d="M484 54C484 52.3431 482.657 51 481 51C479.343 51 478 52.3431 478 54C478 55.6568 479.343 57 481 57C482.657 57 484 55.6568 484 54Z" fill="white" stroke="white" stroke-width="6" stroke-miterlimit="10"/>
<path d="M461.186 55.1721C462 53.9598 461.676 52.3176 460.464 51.5041C459.252 50.6907 457.61 51.014 456.797 52.2264C455.984 53.4387 456.307 55.081 457.519 55.8944C458.731 56.7079 460.373 56.3845 461.186 55.1721Z" fill="white" stroke="white" stroke-width="6" stroke-miterlimit="10"/>
<path d="M439 54C439 52.3431 437.881 51 436.5 51C435.119 51 434 52.3431 434 54C434 55.6568 435.119 57 436.5 57C437.881 57 439 55.6568 439 54Z" fill="white" stroke="white" stroke-width="6" stroke-miterlimit="10"/>
<path d="M286.409 3H141.591C136.294 3 132 7.28903 132 12.5798V88.4202C132 93.711 136.294 98 141.591 98H286.409C291.706 98 296 93.711 296 88.4202V12.5798C296 7.28903 291.706 3 286.409 3Z" stroke="white" stroke-width="6" stroke-miterlimit="10"/>
<path d="M266.403 22H162.597C157.297 22 153 26.2375 153 31.4648V68.5352C153 73.7625 157.297 78 162.597 78H266.403C271.703 78 276 73.7625 276 68.5352V31.4648C276 26.2375 271.703 22 266.403 22Z" stroke="white" stroke-width="6" stroke-miterlimit="10"/>
<path d="M256.014 36H172.985C171.337 36 170 37.2819 170 38.8631V46.1369C170 47.7182 171.337 49 172.985 49H256.014C257.663 49 259 47.7182 259 46.1369V38.8631C259 37.2819 257.663 36 256.014 36Z" stroke="white" stroke-width="6" stroke-miterlimit="10"/>
<path d="M184 54C184 52.3431 182.881 51 181.5 51C180.119 51 179 52.3431 179 54C179 55.6568 180.119 57 181.5 57C182.881 57 184 55.6568 184 54Z" fill="white" stroke="white" stroke-width="6" stroke-miterlimit="10"/>
<path d="M250 53C250 51.3432 248.881 50 247.5 50C246.119 50 245 51.3432 245 53C245 54.6569 246.119 56 247.5 56C248.881 56 250 54.6569 250 53Z" fill="white" stroke="white" stroke-width="6" stroke-miterlimit="10"/>
<path d="M227.776 54.7268C228.589 53.5145 228.266 51.8722 227.054 51.0588C225.842 50.2454 224.2 50.5688 223.387 51.7811C222.574 52.9935 222.897 54.6357 224.109 55.4491C225.321 56.2625 226.963 55.9392 227.776 54.7268Z" fill="white" stroke="white" stroke-width="6" stroke-miterlimit="10"/>
<path d="M206 54C206 52.3432 204.881 51 203.5 51C202.119 51 201 52.3432 201 54C201 55.6569 202.119 57 203.5 57C204.881 57 206 55.6569 206 54Z" fill="white" stroke="white" stroke-width="6" stroke-miterlimit="10"/>
<path d="M619.4 81.388H603.24C599.8 81.388 597 79.0732 597 76.1996V27.1885C597 24.3149 599.8 22 603.24 22H740.76C744.2 22 747 24.3149 747 27.1885V76.1996C747 79.0732 744.2 81.388 740.76 81.388H726.04C724.36 81.388 722.76 81.9468 721.64 82.9047L709.96 92.4834C708.76 93.4413 707.16 94 705.56 94H641C639.4 94 637.88 93.5211 636.76 92.643L623.8 82.745C622.68 81.867 621.16 81.388 619.56 81.388H619.4Z" stroke="white" stroke-width="6" stroke-miterlimit="10"/>
<path d="M704 91C704 89.3431 702.433 88 700.5 88C698.567 88 697 89.3431 697 91C697 92.6569 698.567 94 700.5 94C702.433 94 704 92.6569 704 91Z" fill="white" stroke="white" stroke-width="6" stroke-miterlimit="10"/>
<path d="M676.437 92.6701C677.41 91.2189 677.023 89.2532 675.572 88.2796C674.121 87.3059 672.156 87.693 671.183 89.1441C670.209 90.5953 670.596 92.561 672.047 93.5347C673.498 94.5083 675.463 94.1212 676.437 92.6701Z" fill="white" stroke="white" stroke-width="6" stroke-miterlimit="10"/>
<path d="M650 91C650 89.3431 648.657 88 647 88C645.343 88 644 89.3431 644 91C644 92.6568 645.343 94 647 94C648.657 94 650 92.6568 650 91Z" fill="white" stroke="white" stroke-width="6" stroke-miterlimit="10"/>
<path d="M727.082 39H617.918C616.859 39 616 39.9001 616 41.0105V52.9895C616 54.0999 616.859 55 617.918 55H727.082C728.141 55 729 54.0999 729 52.9895V41.0105C729 39.9001 728.141 39 727.082 39Z" stroke="white" stroke-width="6" stroke-miterlimit="10"/>
<path d="M61.366 3H12.634C7.31329 3 3 7.28904 3 12.5798V88.4202C3 93.711 7.31329 98 12.634 98H61.366C66.6867 98 71 93.711 71 88.4202V12.5798C71 7.28904 66.6867 3 61.366 3Z" stroke="white" stroke-width="6" stroke-miterlimit="10"/>
<path d="M49.6182 15H25.3818C20.2004 15 16 19.3204 16 24.6498V67.3502C16 72.6796 20.2004 77 25.3818 77H49.6182C54.7996 77 59 72.6796 59 67.3502V24.6498C59 19.3204 54.7996 15 49.6182 15Z" stroke="white" stroke-width="6" stroke-miterlimit="10"/>
<path d="M37.5 51C36.1193 51 35 52.3431 35 54C35 55.6569 36.1193 57 37.5 57C38.8807 57 40 55.6569 40 54C40 52.3431 38.8807 51 37.5 51Z" fill="white" stroke="white" stroke-width="6" stroke-miterlimit="10"/>
<path d="M36.5 29C35.1193 29 34 30.3431 34 32C34 33.6569 35.1193 35 36.5 35C37.8807 35 39 33.6569 39 32C39 30.3431 37.8807 29 36.5 29Z" fill="white" stroke="white" stroke-width="6" stroke-miterlimit="10"/>
</svg>
