<svg width="780" height="216" viewBox="0 0 780 216" fill="none" xmlns="http://www.w3.org/2000/svg">
<path d="M122.854 204.602C172.765 204.602 213.225 164.142 213.225 114.231C213.225 64.32 172.765 23.8593 122.854 23.8593C72.9431 23.8593 32.4824 64.32 32.4824 114.231C32.4824 164.142 72.9431 204.602 122.854 204.602Z" fill="#45444C" stroke="white" stroke-width="6" stroke-miterlimit="10" stroke-linejoin="round"/>
<path d="M122.862 174.928C165.323 174.928 199.745 141.11 199.745 99.3937C199.745 57.6772 165.323 23.8594 122.862 23.8594C80.4003 23.8594 45.9785 57.6772 45.9785 99.3937C45.9785 141.11 80.4003 174.928 122.862 174.928Z" fill="#57565F" stroke="white" stroke-width="6" stroke-miterlimit="10" stroke-linejoin="round"/>
<path d="M132.253 82.6936L148.451 29.8707L137.647 26.557L121.45 79.3798L132.253 82.6936Z" fill="#ABAAAF" stroke="white" stroke-width="6" stroke-miterlimit="10" stroke-linejoin="round"/>
<path d="M197.939 50.8561L208.73 39.1663" stroke="white" stroke-width="6" stroke-miterlimit="10" stroke-linejoin="round"/>
<path d="M224.016 123.693H243.798" stroke="white" stroke-width="6" stroke-miterlimit="10" stroke-linejoin="round"/>
<path d="M49.7402 50.6422L38.0066 38.006" stroke="white" stroke-width="6" stroke-miterlimit="10" stroke-linejoin="round"/>
<path d="M124.253 18.2438L124.195 1" stroke="white" stroke-width="6" stroke-miterlimit="10" stroke-linejoin="round"/>
<path d="M22.6621 123.752H1.00004" stroke="white" stroke-width="6" stroke-miterlimit="10" stroke-linejoin="round"/>
<path d="M193.349 195.973L209.341 212.357C230.781 190.493 244.15 160.436 244.502 127.117C245.218 59.4387 191.895 3.90765 125.311 3.20342C58.727 2.4992 4.24176 56.8157 3.52517 124.569C3.16569 158.557 16.4097 189.416 38.1227 211.811L51.9854 198.197" stroke="white" stroke-width="6" stroke-miterlimit="10" stroke-linejoin="round"/>
<path d="M33.4931 130.07L47.0319 113.823" stroke="white" stroke-width="6" stroke-linejoin="round"/>
<path d="M67.8549 183.657L78.7109 161.797" stroke="white" stroke-width="6" stroke-linejoin="round"/>
<path d="M44.3223 161.66L57.4098 143.157" stroke="white" stroke-width="6" stroke-linejoin="round"/>
<path d="M36.2018 93.508L43.5229 92.8972" stroke="white" stroke-width="6" stroke-linejoin="round"/>
<path d="M108.492 203.446L111.682 176.316" stroke="white" stroke-width="6" stroke-linejoin="round"/>
<path d="M163.544 197.518L157.277 168.881" stroke="white" stroke-width="6" stroke-linejoin="round"/>
<path d="M197.312 164.368L184.758 144.511" stroke="white" stroke-width="6" stroke-linejoin="round"/>
<path d="M211.303 126.911L198.111 116.531" stroke="white" stroke-width="6" stroke-linejoin="round"/>
<path d="M210.4 93.9664L198.387 91.2587" stroke="white" stroke-width="6" stroke-linejoin="round"/>
<path d="M389.116 204.602C439.026 204.602 479.487 164.142 479.487 114.231C479.487 64.32 439.026 23.8593 389.116 23.8593C339.205 23.8593 298.744 64.32 298.744 114.231C298.744 164.142 339.205 204.602 389.116 204.602Z" fill="#45444C" stroke="white" stroke-width="6" stroke-miterlimit="10" stroke-linejoin="round"/>
<path d="M389.123 174.928C431.585 174.928 466.007 141.11 466.007 99.3937C466.007 57.6772 431.585 23.8594 389.123 23.8594C346.662 23.8594 312.24 57.6772 312.24 99.3937C312.24 141.11 346.662 174.928 389.123 174.928Z" fill="#57565F" stroke="white" stroke-width="6" stroke-miterlimit="10" stroke-linejoin="round"/>
<path d="M402.595 84.1766L455.037 66.784L451.481 56.0578L399.039 73.4503L402.595 84.1766Z" fill="#ABAAAF" stroke="white" stroke-width="6" stroke-miterlimit="10" stroke-linejoin="round"/>
<path d="M464.203 50.8561L474.994 39.1663" stroke="white" stroke-width="6" stroke-miterlimit="10" stroke-linejoin="round"/>
<path d="M490.279 123.693H510.062" stroke="white" stroke-width="6" stroke-miterlimit="10" stroke-linejoin="round"/>
<path d="M316.002 50.6422L304.268 38.006" stroke="white" stroke-width="6" stroke-miterlimit="10" stroke-linejoin="round"/>
<path d="M390.513 18.2438L390.455 1" stroke="white" stroke-width="6" stroke-miterlimit="10" stroke-linejoin="round"/>
<path d="M288.924 123.752H267.262" stroke="white" stroke-width="6" stroke-miterlimit="10" stroke-linejoin="round"/>
<path d="M459.612 195.973L475.605 212.357C497.044 190.493 510.413 160.436 510.766 127.117C511.482 59.4387 458.158 3.90765 391.574 3.20342C324.991 2.4992 270.505 56.8157 269.789 124.569C269.429 158.557 282.673 189.416 304.386 211.811L318.249 198.197" stroke="white" stroke-width="6" stroke-miterlimit="10" stroke-linejoin="round"/>
<path d="M299.755 130.07L313.294 113.823" stroke="white" stroke-width="6" stroke-linejoin="round"/>
<path d="M334.117 183.657L344.973 161.797" stroke="white" stroke-width="6" stroke-linejoin="round"/>
<path d="M310.586 161.66L323.673 143.157" stroke="white" stroke-width="6" stroke-linejoin="round"/>
<path d="M302.464 93.508L309.785 92.8972" stroke="white" stroke-width="6" stroke-linejoin="round"/>
<path d="M374.754 203.446L377.944 176.316" stroke="white" stroke-width="6" stroke-linejoin="round"/>
<path d="M429.806 197.518L423.539 168.881" stroke="white" stroke-width="6" stroke-linejoin="round"/>
<path d="M463.574 164.368L451.02 144.511" stroke="white" stroke-width="6" stroke-linejoin="round"/>
<path d="M477.563 126.911L464.371 116.531" stroke="white" stroke-width="6" stroke-linejoin="round"/>
<path d="M476.662 93.9664L464.648 91.2586" stroke="white" stroke-width="6" stroke-linejoin="round"/>
<path d="M654.475 204.602C704.386 204.602 744.846 164.142 744.846 114.231C744.846 64.32 704.386 23.8593 654.475 23.8593C604.564 23.8593 564.104 64.32 564.104 114.231C564.104 164.142 604.564 204.602 654.475 204.602Z" fill="#45444C" stroke="white" stroke-width="6" stroke-miterlimit="10" stroke-linejoin="round"/>
<path d="M654.483 174.928C696.944 174.928 731.366 141.11 731.366 99.3937C731.366 57.6772 696.944 23.8594 654.483 23.8594C612.021 23.8594 577.6 57.6772 577.6 99.3937C577.6 141.11 612.021 174.928 654.483 174.928Z" fill="#57565F" stroke="white" stroke-width="6" stroke-miterlimit="10" stroke-linejoin="round"/>
<path d="M660.433 80.6203L660.354 25.3698L649.053 25.3852L649.132 80.6357L660.433 80.6203Z" fill="#ABAAAF" stroke="white" stroke-width="6" stroke-miterlimit="10" stroke-linejoin="round"/>
<path d="M729.561 50.8561L740.351 39.1663" stroke="white" stroke-width="6" stroke-miterlimit="10" stroke-linejoin="round"/>
<path d="M755.637 123.693H775.42" stroke="white" stroke-width="6" stroke-miterlimit="10" stroke-linejoin="round"/>
<path d="M581.359 50.6422L569.626 38.006" stroke="white" stroke-width="6" stroke-miterlimit="10" stroke-linejoin="round"/>
<path d="M655.872 18.2438L655.814 1" stroke="white" stroke-width="6" stroke-miterlimit="10" stroke-linejoin="round"/>
<path d="M554.283 123.752H532.621" stroke="white" stroke-width="6" stroke-miterlimit="10" stroke-linejoin="round"/>
<path d="M724.968 195.973L740.96 212.357C762.4 190.493 775.769 160.436 776.121 127.117C776.837 59.4387 723.514 3.90765 656.93 3.20342C590.346 2.4992 535.861 56.8157 535.144 124.569C534.785 158.557 548.029 189.416 569.742 211.811L583.605 198.197" stroke="white" stroke-width="6" stroke-miterlimit="10" stroke-linejoin="round"/>
<path d="M565.114 130.07L578.653 113.823" stroke="white" stroke-width="6" stroke-linejoin="round"/>
<path d="M599.476 183.657L610.332 161.797" stroke="white" stroke-width="6" stroke-linejoin="round"/>
<path d="M575.945 161.66L589.033 143.157" stroke="white" stroke-width="6" stroke-linejoin="round"/>
<path d="M567.821 93.508L575.142 92.8972" stroke="white" stroke-width="6" stroke-linejoin="round"/>
<path d="M640.114 203.446L643.303 176.316" stroke="white" stroke-width="6" stroke-linejoin="round"/>
<path d="M695.165 197.518L688.898 168.881" stroke="white" stroke-width="6" stroke-linejoin="round"/>
<path d="M728.933 164.368L716.379 144.511" stroke="white" stroke-width="6" stroke-linejoin="round"/>
<path d="M742.922 126.911L729.73 116.531" stroke="white" stroke-width="6" stroke-linejoin="round"/>
<path d="M742.021 93.9664L730.008 91.2586" stroke="white" stroke-width="6" stroke-linejoin="round"/>
</svg>
