<svg width="779" height="217" viewBox="0 0 779 217" fill="none" xmlns="http://www.w3.org/2000/svg">
<path d="M122.34 204.859C172.251 204.859 212.712 164.398 212.712 114.488C212.712 64.5768 172.251 24.1161 122.34 24.1161C72.4294 24.1161 31.9688 64.5768 31.9688 114.488C31.9688 164.398 72.4294 204.859 122.34 204.859Z" fill="#45444C" stroke="white" stroke-width="6" stroke-miterlimit="10"/>
<path d="M122.344 175.185C164.806 175.185 199.227 141.367 199.227 99.6506C199.227 57.9341 164.806 24.1162 122.344 24.1162C79.8827 24.1162 45.4609 57.9341 45.4609 99.6506C45.4609 141.367 79.8827 175.185 122.344 175.185Z" fill="#57565F" stroke="white" stroke-width="6" stroke-miterlimit="10"/>
<path d="M133.392 77.5485L146.277 35.5295C147.192 32.5461 145.515 29.3858 142.532 28.4707C139.548 27.5556 136.388 29.2323 135.473 32.2158L122.588 74.2347C121.674 77.2181 123.35 80.3785 126.334 81.2935C129.317 82.2086 132.477 80.5319 133.392 77.5485Z" fill="white" stroke="white" stroke-width="6" stroke-miterlimit="10"/>
<path d="M197.422 51.1129L208.212 39.4231" stroke="white" stroke-width="6" stroke-miterlimit="10"/>
<path d="M223.5 123.95H243.283" stroke="white" stroke-width="6" stroke-miterlimit="10"/>
<path d="M49.2227 50.899L37.489 38.2628" stroke="white" stroke-width="6" stroke-miterlimit="10"/>
<path d="M123.738 18.5007L123.68 1.2569" stroke="white" stroke-width="6" stroke-miterlimit="10"/>
<path d="M22.1445 124.009H0.482465" stroke="white" stroke-width="6" stroke-miterlimit="10"/>
<path d="M192.835 196.23L208.827 212.614C230.267 190.75 243.636 160.693 243.989 127.374C244.704 59.6956 191.381 4.16448 124.797 3.46026C58.2133 2.75604 3.72809 57.0725 3.0115 124.825C2.65202 158.814 15.896 189.673 37.6091 212.068L51.4717 198.454" stroke="white" stroke-width="6" stroke-miterlimit="10"/>
<path d="M32.9775 130.327L46.5162 114.08" stroke="white" stroke-width="6"/>
<path d="M67.3393 183.914L78.1953 162.054" stroke="white" stroke-width="6"/>
<path d="M43.8066 161.917L56.8941 143.414" stroke="white" stroke-width="6"/>
<path d="M35.6862 93.7649L43.0073 93.1541" stroke="white" stroke-width="6"/>
<path d="M107.979 203.703L111.169 176.573" stroke="white" stroke-width="6"/>
<path d="M163.029 197.775L156.762 169.138" stroke="white" stroke-width="6"/>
<path d="M196.797 164.625L184.242 144.768" stroke="white" stroke-width="6"/>
<path d="M210.786 127.168L197.594 116.788" stroke="white" stroke-width="6"/>
<path d="M209.884 94.2233L197.871 91.5155" stroke="white" stroke-width="6"/>
<path d="M388.606 204.859C438.517 204.859 478.977 164.398 478.977 114.488C478.977 64.5768 438.517 24.1161 388.606 24.1161C338.695 24.1161 298.234 64.5768 298.234 114.488C298.234 164.398 338.695 204.859 388.606 204.859Z" fill="#45444C" stroke="white" stroke-width="6" stroke-miterlimit="10"/>
<path d="M388.61 175.185C431.071 175.185 465.493 141.367 465.493 99.6506C465.493 57.9341 431.071 24.1162 388.61 24.1162C346.148 24.1162 311.727 57.9341 311.727 99.6506C311.727 141.367 346.148 175.185 388.61 175.185Z" fill="#57565F" stroke="white" stroke-width="6" stroke-miterlimit="10"/>
<path d="M407.445 82.6547L449.16 68.8194C452.122 67.8371 453.727 64.6396 452.745 61.6777C451.763 58.7157 448.566 57.1109 445.604 58.0932L403.888 71.9285C400.926 72.9108 399.321 76.1083 400.304 79.0702C401.286 82.0322 404.483 83.637 407.445 82.6547Z" fill="white" stroke="white" stroke-width="6" stroke-miterlimit="10"/>
<path d="M463.691 51.1129L474.482 39.4231" stroke="white" stroke-width="6" stroke-miterlimit="10"/>
<path d="M489.766 123.95H509.548" stroke="white" stroke-width="6" stroke-miterlimit="10"/>
<path d="M315.488 50.899L303.755 38.2628" stroke="white" stroke-width="6" stroke-miterlimit="10"/>
<path d="M390.003 18.5006L389.945 1.25678" stroke="white" stroke-width="6" stroke-miterlimit="10"/>
<path d="M288.41 124.009H266.748" stroke="white" stroke-width="6" stroke-miterlimit="10"/>
<path d="M459.1 196.23L475.093 212.614C496.533 190.75 509.902 160.693 510.254 127.374C510.97 59.6956 457.647 4.16448 391.063 3.46026C324.479 2.75604 269.994 57.0725 269.277 124.825C268.918 158.814 282.162 189.673 303.875 212.068L317.737 198.454" stroke="white" stroke-width="6" stroke-miterlimit="10"/>
<path d="M299.243 130.327L312.782 114.08" stroke="white" stroke-width="6"/>
<path d="M333.605 183.914L344.461 162.054" stroke="white" stroke-width="6"/>
<path d="M310.072 161.917L323.16 143.414" stroke="white" stroke-width="6"/>
<path d="M301.952 93.7648L309.273 93.154" stroke="white" stroke-width="6"/>
<path d="M374.244 203.703L377.434 176.573" stroke="white" stroke-width="6"/>
<path d="M429.294 197.775L423.027 169.138" stroke="white" stroke-width="6"/>
<path d="M463.062 164.625L450.508 144.768" stroke="white" stroke-width="6"/>
<path d="M477.051 127.168L463.859 116.788" stroke="white" stroke-width="6"/>
<path d="M476.15 94.2233L464.137 91.5155" stroke="white" stroke-width="6"/>
<path d="M653.965 204.859C703.876 204.859 744.337 164.398 744.337 114.487C744.337 64.5765 703.876 24.1158 653.965 24.1158C604.054 24.1158 563.594 64.5765 563.594 114.487C563.594 164.398 604.054 204.859 653.965 204.859Z" fill="#45444C" stroke="white" stroke-width="6" stroke-miterlimit="10"/>
<path d="M653.969 175.185C696.431 175.185 730.852 141.367 730.852 99.6503C730.852 57.9338 696.431 24.116 653.969 24.116C611.508 24.116 577.086 57.9338 577.086 99.6503C577.086 141.367 611.508 175.185 653.969 175.185Z" fill="#57565F" stroke="white" stroke-width="6" stroke-miterlimit="10"/>
<path d="M659.915 75.2267L659.852 31.2767C659.847 28.1562 657.314 25.6299 654.194 25.6342C651.073 25.6384 648.547 28.1716 648.551 31.2921L648.614 75.2421C648.619 78.3627 651.152 80.8889 654.273 80.8847C657.393 80.8804 659.919 78.3473 659.915 75.2267Z" fill="white" stroke="white" stroke-width="6" stroke-miterlimit="10"/>
<path d="M729.047 51.1127L739.837 39.4229" stroke="white" stroke-width="6" stroke-miterlimit="10"/>
<path d="M755.125 123.949H774.908" stroke="white" stroke-width="6" stroke-miterlimit="10"/>
<path d="M580.848 50.8988L569.114 38.2626" stroke="white" stroke-width="6" stroke-miterlimit="10"/>
<path d="M655.363 18.5003L655.305 1.25653" stroke="white" stroke-width="6" stroke-miterlimit="10"/>
<path d="M553.77 124.008H532.107" stroke="white" stroke-width="6" stroke-miterlimit="10"/>
<path d="M724.456 196.23L740.448 212.614C761.888 190.75 775.257 160.693 775.61 127.374C776.325 59.6953 723.002 4.16424 656.418 3.46002C589.834 2.75579 535.349 57.0723 534.633 124.825C534.273 158.813 547.517 189.672 569.23 212.067L583.093 198.454" stroke="white" stroke-width="6" stroke-miterlimit="10"/>
<path d="M564.602 130.326L578.141 114.08" stroke="white" stroke-width="6"/>
<path d="M598.964 183.914L609.82 162.054" stroke="white" stroke-width="6"/>
<path d="M575.436 161.917L588.523 143.414" stroke="white" stroke-width="6"/>
<path d="M567.307 93.7647L574.628 93.1539" stroke="white" stroke-width="6"/>
<path d="M639.604 203.703L642.794 176.572" stroke="white" stroke-width="6"/>
<path d="M694.654 197.774L688.387 169.138" stroke="white" stroke-width="6"/>
<path d="M728.422 164.625L715.867 144.768" stroke="white" stroke-width="6"/>
<path d="M742.411 127.167L729.219 116.788" stroke="white" stroke-width="6"/>
<path d="M741.509 94.223L729.496 91.5153" stroke="white" stroke-width="6"/>
</svg>
