<svg width="158" height="158" viewBox="0 0 158 158" fill="none" xmlns="http://www.w3.org/2000/svg">
<path d="M79 154.329C120.961 154.329 155 120.466 155 78.6643C155 36.8631 120.961 3 79 3C37.0394 3 3 36.8631 3 78.6643C3 120.466 37.0394 154.329 79 154.329Z" fill="#57565F" stroke="white" stroke-width="6" stroke-miterlimit="10"/>
<path d="M101.246 27.7051L100.368 26.8301H99.1281H58.5327H57.2931L56.4151 27.7051L27.7104 56.3114L26.8281 57.1907V58.4364V98.8927V100.138L27.7104 101.018L56.4151 129.624L57.2931 130.499H58.5327H99.1281H100.368L101.246 129.624L129.95 101.018L130.833 100.138V98.8927V58.4364V57.1907L129.95 56.3114L101.246 27.7051Z" fill="#ABAAAF" stroke="white" stroke-width="6" stroke-miterlimit="10"/>
<path d="M78.8321 120.095C101.781 120.095 120.43 101.646 120.43 78.8325C120.43 56.0194 101.781 37.5704 78.8321 37.5704C55.8831 37.5704 37.2344 56.0194 37.2344 78.8325C37.2344 101.646 55.8831 120.095 78.8321 120.095Z" fill="#45444C" stroke="white" stroke-width="6" stroke-miterlimit="10"/>
</svg>
