<?xml version="1.0" encoding="UTF-8"?>
<svg id="Layer_1" xmlns="http://www.w3.org/2000/svg" viewBox="0 0 1921.94 4253.34">
  <defs>
    <style>
      .cls-1, .cls-2, .cls-3, .cls-4, .cls-5, .cls-6, .cls-7 {
        stroke-width: 6px;
      }

      .cls-1, .cls-8, .cls-3, .cls-6, .cls-7, .cls-9, .cls-10 {
        stroke: #57565f;
      }

      .cls-1, .cls-11, .cls-6, .cls-9 {
        fill: #fff;
      }

      .cls-1, .cls-7 {
        stroke-linejoin: round;
      }

      .cls-2, .cls-3, .cls-4, .cls-5, .cls-6, .cls-9, .cls-10 {
        stroke-miterlimit: 10;
      }

      .cls-2, .cls-12 {
        fill: #45444c;
      }

      .cls-2, .cls-4, .cls-5 {
        stroke: #fff;
      }

      .cls-8, .cls-5, .cls-13, .cls-10 {
        fill: #57565f;
      }

      .cls-8, .cls-10 {
        stroke-width: 2px;
      }

      .cls-3, .cls-7 {
        fill: none;
      }

      .cls-4 {
        fill: #abaaaf;
      }

      .cls-9 {
        stroke-width: 7px;
      }
    </style>
  </defs>
  <path class="cls-5" d="M557.98,2689.8c30.36,0,55-24.5,55-54.76s-24.64-54.76-55-54.76-55,24.5-55,54.76,24.64,54.76,55,54.76Z"/>
  <path class="cls-4" d="M574.44,2598.13l-.88-.88h-31.4l-.88.88-20.45,20.38-.88.88v31.31l.88.87,20.45,20.38.88.88h31.4l.88-.88,20.45-20.38.88-.87v-31.31l-.88-.88-20.45-20.38Z"/>
  <path class="cls-2" d="M557.86,2665.42c16.82,0,30.49-13.53,30.49-30.26s-13.68-30.26-30.49-30.26-30.49,13.53-30.49,30.26,13.68,30.26,30.49,30.26Z"/>
  <path class="cls-5" d="M914.98,2689.8c30.36,0,55-24.5,55-54.76s-24.64-54.76-55-54.76-55,24.5-55,54.76,24.64,54.76,55,54.76Z"/>
  <path class="cls-4" d="M931.44,2598.13l-.88-.88h-31.4l-.88.88-20.45,20.38-.88.88v31.31l.88.87,20.45,20.38.88.88h31.4l.88-.88,20.45-20.38.88-.87v-31.31l-.88-.88-20.45-20.38Z"/>
  <path class="cls-2" d="M914.86,2665.42c16.82,0,30.49-13.53,30.49-30.26s-13.68-30.26-30.49-30.26-30.49,13.53-30.49,30.26,13.68,30.26,30.49,30.26Z"/>
  <path class="cls-5" d="M1166.98,2689.8c30.36,0,55-24.5,55-54.76s-24.64-54.76-55-54.76-55,24.5-55,54.76,24.64,54.76,55,54.76Z"/>
  <path class="cls-4" d="M1183.44,2598.13l-.88-.88h-31.4l-.88.88-20.45,20.38-.88.88v31.31l.88.87,20.45,20.38.88.88h31.4l.88-.88,20.45-20.38.88-.87v-31.31l-.88-.88-20.45-20.38Z"/>
  <g>
    <path class="cls-12" d="M1197.36,2635.35c-.01,1.8-.18,3.57-.5,5.28-.09.49-.19.98-.3,1.46-2.29,9.69-9.28,17.58-18.43,21.19-.18.08-.36.15-.55.22-2,.74-4.1,1.28-6.27,1.59-1.19-.9-2.36-1.79-3.5-2.7-.31.02-.63.03-.95.03-15.16,0-27.49-12.23-27.49-27.26,0-2.95.48-5.8,1.36-8.46.38-1.17.84-2.31,1.38-3.4.74-1.51,1.61-2.94,2.62-4.28,4.55-6.13,11.63-10.31,19.7-11.01-.03-.03-.05-.06-.07-.09.02.02.05.05.08.08,0,0,0,0,.02.01.79-.08,1.59-.11,2.4-.11,1.54,0,3.06.13,4.53.37,12.16,2.01,21.65,11.96,22.84,24.27,1.01.93,2.06,1.87,3.13,2.81Z"/>
    <path class="cls-11" d="M1164.36,2607.92s.04.06.07.09h.01s-.06-.07-.08-.09ZM1164.36,2607.92s.04.06.07.09h.01s-.06-.07-.08-.09ZM1164.36,2607.92s.04.06.07.09h.01s-.06-.07-.08-.09ZM1197.36,2635.35c-1.07-.94-2.12-1.88-3.13-2.81.09.86.13,1.74.13,2.62,0,1.04-.06,2.06-.18,3.06-.06.56-.14,1.11-.24,1.66-1.76,10-9.05,18.14-18.61,21.21-.23.08-.46.15-.7.21-2.17.65-4.46,1.02-6.82,1.09,1.14.91,2.31,1.8,3.5,2.7,1.08.81,2.19,1.63,3.31,2.43,2.02-.48,3.97-1.14,5.83-1.96.14-.06.29-.13.43-.19,8.8-4.05,15.56-11.78,18.23-21.2.12-.41.23-.83.33-1.26.4-1.63.67-3.32.81-5.03-.98-.84-1.95-1.69-2.89-2.53ZM1164.43,2608.01h.01s-.06-.07-.08-.09c.02.03.04.06.07.09ZM1164.36,2607.92s.04.06.07.09h.01s-.06-.07-.08-.09Z"/>
    <path class="cls-11" d="M1200.36,2635.16c0,.91-.04,1.82-.11,2.72-.98-.84-1.95-1.69-2.89-2.53-1.07-.94-2.12-1.88-3.13-2.81-1.19-12.31-10.68-22.26-22.84-24.27-1.47-.24-2.99-.37-4.53-.37-.81,0-1.61.03-2.4.11-.01-.01-.02-.01-.02-.01-.03-.03-.06-.06-.08-.08.02.03.04.06.07.09-8.07.7-15.15,4.88-19.7,11.01-1.01,1.34-1.88,2.77-2.62,4.28-.54,1.09-1,2.23-1.38,3.4-.88,2.66-1.36,5.51-1.36,8.46,0,15.03,12.33,27.26,27.49,27.26.32,0,.64-.01.95-.03,1.14.91,2.31,1.8,3.5,2.7,1.08.81,2.19,1.63,3.31,2.43-2.49.59-5.09.9-7.76.9-18.47,0-33.49-14.92-33.49-33.26s15.02-33.26,33.49-33.26,33.5,14.92,33.5,33.26Z"/>
  </g>
  <path class="cls-5" d="M1402.98,2689.8c30.36,0,55-24.5,55-54.76s-24.64-54.76-55-54.76-55,24.5-55,54.76,24.64,54.76,55,54.76Z"/>
  <path class="cls-4" d="M1419.44,2598.13l-.88-.88h-31.4l-.87.88-20.45,20.38-.88.88v31.31l.88.87,20.45,20.38.87.88h31.4l.88-.88,20.45-20.38.88-.87v-31.31l-.88-.88-20.45-20.38Z"/>
  <path class="cls-2" d="M1402.86,2665.42c16.82,0,30.5-13.53,30.5-30.26s-13.68-30.26-30.5-30.26-30.49,13.53-30.49,30.26,13.67,30.26,30.49,30.26Z"/>
  <path class="cls-9" d="M1487.21,2753.21c-50.73,0-72.89-42.47-80.95-57.82l-1.58-2.98c-16.86-30.77-19.41-44.27-20.73-59.35.07-1.18-.79-8.94,1.02-13.04,0,0,2.98-8.15,17.34-8.6,14.35-.45,19.49,9.52,19.49,9.52,0,1.73-.75,13.87-.89,15.6-.55,7.2-1.43,15.41,12.2,40.24.55.97,1.17,2.15,1.85,3.53,13.36,25.52,31.05,47.79,70.28,38.04,27.94-6.92,45.56-66.05,52.45-175.82.34-5.46.62-10.03.89-13.42,5.65-68.33-11.77-173.47-30.08-284.82-19.27-117.03-39.3-238-37.44-339.12.76-42.68,3.99-124.16,7.71-218.5,7.16-180.04,16.86-426.55,16.52-579.4-.35-158.19-5.58-641.45-24.3-782.34-17.69-133.21-92.51-143.93-95.67-144.35l3.44-32.3c4.2.41,103.11,12.31,124.31,172.36,18.92,142.62,24.22,627.82,24.57,786.63.34,153.55-9.43,400.47-16.59,580.78-3.72,94.14-6.95,175.48-7.71,217.81-1.79,98.08,17.97,217.59,37.03,333.17,18.72,113.36,36.41,220.5,30.42,292.78-.27,3.25-.55,7.61-.82,12.8-5.85,93.58-19.55,191.1-76.95,205.35-9.3,2.28-17.83,3.32-25.68,3.32l-.13-.07Z"/>
  <path class="cls-11" d="M750.75,3675.01c-21.09,3.45-42.74,6.21-64.38,8.28l-1.45.13c-12.54,1.18-23.92,2-34.74,2.62-55.63,3.11-99.95.83-127.04-5.92-3.86-.69-23.64-4.21-34.46-8.14-50.39-18.54-75.68-56.11-79.54-118.22-2.48-39.36,22.13-75.13,71.07-103.53,1.38,2,2.83,3.93,4.27,5.79,1.38,1.86,2.9,3.72,4.48,5.51,1.1,1.31,2.28,2.62,3.52,3.86,1.31,1.45,2.69,2.9,4.13,4.28.62.69,1.31,1.31,1.93,1.93-30.19,16.61-64.17,43.63-61.9,80.37,4,64.38,31.98,83.27,61.55,94.09,6.89,2.55,22.13,5.66,30.05,6.9l1.17.27c23.3,5.93,65.9,8,114.15,5.52l2.83-.14c11.37-.62,22.54-1.38,33.15-2.34l1.79-.21c21.58-2,43.29-4.69,64.72-8.14.21,1.73.35,3.45.55,5.24.34,2.62.76,5.31,1.17,8,.55,2.96,1.17,6,1.86,9.03.34,1.58.69,3.17,1.1,4.82Z"/>
  <path class="cls-11" d="M750.89,3647.1h-.07c.34,4.34.96,8.82,1.79,13.3-.83-4.55-1.38-8.96-1.72-13.3Z"/>
  <path class="cls-11" d="M994.49,3275.35c0,48.73,0,122.42-101.88,128.76-66.1,4.14-231.05,26.89-298.87,36.47-20.33,2.89-39.63,7.58-57.56,14.06-2.07-1.45-4.07-3.03-6-4.62-.07,0-.07-.07-.14-.07-2.14-1.79-4.21-3.65-6.2-5.58-1.45-1.45-2.89-2.9-4.27-4.48l-.21-.21s-.48-.55-.76-.83c-.83-.89-1.59-1.79-2.27-2.68-.07-.14-.21-.21-.28-.35-.41-.41-.83-.9-1.17-1.38,0,0,0-.07-.07-.07,0,0-.07,0-.07-.13-.21-.21-.41-.42-.55-.63h.07c23.37-9.71,48.73-16.54,75.61-20.33,104.29-14.68,241.25-32.95,300.94-36.67,71-4.41,76.1-41.15,76.1-101.26,0-21.99-8.27-111.81-17.99-176.74-3.86-25.23-33.84-161.51-42.94-202.73-2.55-11.45-4.62-23.03-6.07-34.33-1.17-8.76-3.38-20.27-5.93-33.5l-.21-1.04c-10.82-56.11-25.71-132.97,4.62-167.64,7.58-8.75,1.96-45.94,3.51-47.66,1.56-1.72,28.94,1.27,28.94,1.27,1.65,9.37,5.73,44.67-11.71,64.52-21.37,24.4-6.96,99.33,1.72,144.34,2.89,15.1,5.1,26.61,6.34,36.19,1.38,10.2,3.24,20.96,5.72,31.99,25.99,117.87,40.53,186.67,43.22,204.45,9.44,62.93,18.33,155.23,18.33,180.88Z"/>
  <path class="cls-11" d="M506.75,3431.55l.9,1.24c-.35-.42-.62-.83-.83-1.24h-.07Z"/>
  <path class="cls-11" d="M1380.35,3661.16l-18.34,22.95c-12.27-2.75-40.32-7.99-78.64-14.54l-5.38-.9c-16.82-2.96-36.26-6.2-58.59-9.92h-.07c-5.31-.9-10.82-1.8-16.47-2.69-21.85-3.59-43.98-5.66-66.31-6.14h-.14c-15.85-5.86-32.05-13.85-49.49-24.47-.34-.21-.69-.41-.97-.69-.34-.2-.62-.41-.83-.69-.41-.34-.76-.69-1.03-1.03,10.41-.28,19.78-.48,27.85-.69,31.98-.76,63.97,1.45,95.26,6.55,22.47,3.65,41.98,6.89,58.93,9.72,12.62,2.13,23.85,4,33.78,5.72l1.86.34c61.21,10.69,74.31,14.2,78.58,16.48Z"/>
  <path class="cls-11" d="M1253.31,3669.36c5.93,1.04,11.65,2,17.1,2.9-5.45-.97-11.1-1.93-17.1-2.9ZM1077.06,3618.42h-.28l.83,2.41c-.28-.82-.48-1.65-.55-2.41Z"/>
  <path class="cls-11" d="M750.68,3644.68v.28-.21s-.07-.07,0-.07Z"/>
  <path class="cls-11" d="M752.61,3660.4c-.83-4.48-1.45-8.96-1.79-13.3h.07c.34,4.34.9,8.75,1.72,13.3Z"/>
  <path class="cls-11" d="M1059.9,3651.44c-66.65,2.21-184.18,7.31-271.92,18.2-2.55-8.96-4.21-18.06-4.69-27.02,79.75-10.07,185.9-15.51,261.93-18.34,1.65,10.68,6.82,20.06,14.68,27.16Z"/>
  <path class="cls-11" d="M750.61,3644.75v.21l.07-.28c-.07,0-.07.07-.07.07ZM756.2,3676.6l.62,2.41h.07c-.27-.89-.48-1.65-.69-2.41ZM1077.06,3618.42h-.07s-.14,0-.21.07l.83,2.34c-.28-.82-.48-1.65-.55-2.41ZM1077.06,3618.42h-.07s-.14,0-.21.07l.83,2.34c-.28-.82-.48-1.65-.55-2.41Z"/>
  <path class="cls-11" d="M761.02,3567.96c-.35.76-.69,1.45-.96,2.21l1.03-2.21h-.07Z"/>
  <path class="cls-12" d="M752.4,3535.91h-.21l6.89.14c-2.27,0-4.48,0-6.69-.14ZM759.99,3570.17l-1.45,3.03h.21c.35-1.1.83-2.07,1.31-3.03.27-.76.62-1.45.96-2.21l-1.03,2.21ZM752.4,3535.91h-.21l6.89.14c-2.27,0-4.48,0-6.69-.14ZM759.99,3570.17l-1.45,3.03h.21c.35-1.1.83-2.07,1.31-3.03.27-.76.62-1.45.96-2.21l-1.03,2.21ZM752.4,3535.91h-.21l6.89.14c-2.27,0-4.48,0-6.69-.14ZM759.99,3570.17l-1.45,3.03h.21c.35-1.1.83-2.07,1.31-3.03.27-.76.62-1.45.96-2.21l-1.03,2.21ZM752.4,3535.91h-.21l6.89.14c-2.27,0-4.48,0-6.69-.14ZM759.99,3570.17l-1.45,3.03h.21c.35-1.1.83-2.07,1.31-3.03.27-.76.62-1.45.96-2.21l-1.03,2.21ZM752.4,3535.91h-.21l6.89.14c-2.27,0-4.48,0-6.69-.14ZM759.99,3570.17l-1.45,3.03h.21c.35-1.1.83-2.07,1.31-3.03.27-.76.62-1.45.96-2.21l-1.03,2.21ZM1066.3,3404.32s-.07,0-.14.07c1.52.27,3.1.55,4.62.96.14-.07.28-.13.35-.13l-4.83-.9ZM752.4,3535.91h-.21l6.89.14c-2.27,0-4.48,0-6.69-.14ZM759.99,3570.17l-1.45,3.03h.21c.35-1.1.83-2.07,1.31-3.03.27-.76.62-1.45.96-2.21l-1.03,2.21ZM752.4,3535.91h-.21l6.89.14c-2.27,0-4.48,0-6.69-.14ZM759.99,3570.17l-1.45,3.03h.21c.35-1.1.83-2.07,1.31-3.03.27-.76.62-1.45.96-2.21l-1.03,2.21ZM752.4,3535.91h-.21l6.89.14c-2.27,0-4.48,0-6.69-.14ZM759.99,3570.17l-1.45,3.03h.21c.35-1.1.83-2.07,1.31-3.03.27-.76.62-1.45.96-2.21l-1.03,2.21ZM752.4,3535.91h-.21l6.89.14c-2.27,0-4.48,0-6.69-.14ZM759.99,3570.17l-1.45,3.03h.21c.35-1.1.83-2.07,1.31-3.03.27-.76.62-1.45.96-2.21l-1.03,2.21ZM752.4,3535.91h-.21l6.89.14c-2.27,0-4.48,0-6.69-.14ZM759.99,3570.17l-1.45,3.03h.21c.35-1.1.83-2.07,1.31-3.03.27-.76.62-1.45.96-2.21l-1.03,2.21ZM752.4,3535.91h-.21l6.89.14c-2.27,0-4.48,0-6.69-.14ZM759.99,3570.17l-1.45,3.03h.21c.35-1.1.83-2.07,1.31-3.03.27-.76.62-1.45.96-2.21l-1.03,2.21ZM752.4,3535.91h-.21l6.89.14c-2.27,0-4.48,0-6.69-.14ZM759.99,3570.17l-1.45,3.03h.21c.35-1.1.83-2.07,1.31-3.03.27-.76.62-1.45.96-2.21l-1.03,2.21Z"/>
  <path class="cls-12" d="M1071.13,3405.22l-4.83-.9s-.07,0-.14.07c1.52.27,3.1.55,4.62.96h.14l.41-.13h-.21ZM865.59,3466.98s.21-.07.35-.07c.14-.14.21-.21.34-.28l-.69.35Z"/>
  <path class="cls-11" d="M789.35,3525.09l-4.21,4.13-2.21,2.14h-3.58c-2.34,0-4.69,0-7.1-.07,5.58-2,11.24-4.07,17.1-6.2Z"/>
  <path class="cls-11" d="M850.91,3534.39c-10.55,3.93-21.02,7.79-31.36,11.65,3.24-3.24,7.17-6.89,11.44-10.75,6.89-.28,13.58-.55,19.92-.9Z"/>
  <path class="cls-12" d="M764.95,3570.93h.07s.28-.62.41-.9l-.48.9ZM948.37,3502.41h.55s.21,0,.35-.14l-.9.14ZM765.23,3531.29h.41c2.21,0,4.41.07,6.62,0,2.41.07,4.76.07,7.1.07,1.93-.69,3.86-1.45,5.79-2.14l4.2-4.13,4.21-4.07c-9.65,3.52-19.16,6.96-28.33,10.27ZM752.41,3535.91h-.21l6.89.14c-2.27,0-4.48,0-6.69-.14ZM764.95,3570.93h.07s.28-.62.41-.9l-.48.9ZM759.99,3570.17l-1.45,3.03h.21c.35-1.1.83-2.07,1.31-3.03.27-.76.62-1.45.96-2.21l-1.03,2.21Z"/>
  <path class="cls-11" d="M753.3,3587.33c-3.03,9.1-5.17,18.34-6.34,27.51-13.44.27-41.56,2.34-57.83,16.95-5.93,5.24-9.86,11.93-11.79,19.79-9.1.82-18.68,1.51-28.4,2.07,2.21-17.17,9.51-31.44,21.78-42.47,23.02-20.61,57.62-23.92,77.54-23.92h5.03v.07Z"/>
  <path class="cls-11" d="M777.36,3757.25c-10.34-1.17-19.58-2.69-27.85-4.14l-11.86-1.93c-29.57-4.48-55.42-19.3-72.58-41.7-4.83-6.27-8.62-12.61-11.24-18.82,4.2-.27,8.48-.55,12.96-.89,5.45-.35,11.17-.83,17.09-1.38.96,1.38,1.93,2.82,3.03,4.2,12.89,16.82,32.4,27.92,55.01,31.44,3.65.55,7.31,1.17,11.3,1.86l2.48.34c4.69.83,9.58,1.59,14.75,2.34,3.1,9.45,5.44,19.1,6.89,28.68Z"/>
  <path class="cls-11" d="M1293.22,3776l-12.55,24.54c-11.44-5.45-66.44-30.61-152.12-50.73l-2.27-.56c-38.12-9.03-77.34-13.58-116.35-13.58-35.43,0-70.72,3.73-105.05,11.17l-17.78,3.93c-25.37,5.52-48.87,8.27-71.82,8.55-1.03-9.1-2.76-18.34-5.17-27.57,22.2.2,45.49-2.35,71.07-7.93l17.85-3.93c76.24-16.54,157.02-15.65,233.53,2.55l2.27.55c91.12,21.37,146.89,47.36,158.4,53.01Z"/>
  <path class="cls-11" d="M1298.8,3574.03c-.27-.83-.55-1.59-.82-2.34h.07c.27.75.55,1.58.75,2.34Z"/>
  <path class="cls-12" d="M1302.04,3568.52c-.21-.49-.34-1.04-.55-1.52h-.07c-.48,0-1.03-.07-1.52-.07h-1.1l-2.55-.21h-.14c.21.42.35.83.55,1.24.14.42.28.83.42,1.24h.07c.89.07,1.72.07,2.62.14.89.07,1.72.07,2.62.14-.14-.34-.21-.62-.35-.96ZM1264.54,3564.86h-.13s.48.69.75,1.1l-.62-1.1ZM1276.47,3600.43v2.41h.21c0-.82-.07-1.58-.21-2.41Z"/>
  <path class="cls-11" d="M1077.06,3618.42h-.28l.83,2.41c-.28-.82-.48-1.65-.55-2.41ZM1077.06,3618.42h-.28l.83,2.41c-.28-.82-.48-1.65-.55-2.41ZM1077.06,3618.42h-.28l.83,2.41c-.28-.82-.48-1.65-.55-2.41ZM1077.06,3618.42h-.28l.83,2.41c-.28-.82-.48-1.65-.55-2.41ZM1077.06,3618.42h-.28l.83,2.41c-.28-.82-.48-1.65-.55-2.41ZM1077.06,3618.42h-.28l.83,2.41c-.28-.82-.48-1.65-.55-2.41ZM1077.06,3618.42h-.28l.83,2.41c-.28-.82-.48-1.65-.55-2.41ZM1077.06,3618.42h-.28l.83,2.41c-.28-.82-.48-1.65-.55-2.41ZM1077.06,3618.42h-.28l.83,2.41c-.28-.82-.48-1.65-.55-2.41ZM1253.31,3669.36c5.93,1.03,11.65,2,17.09,2.9-5.44-.97-11.1-1.93-17.09-2.9ZM1077.06,3618.42h-.28l.83,2.41c-.28-.82-.48-1.65-.55-2.41ZM1077.06,3618.42h-.28l.83,2.41c-.28-.82-.48-1.65-.55-2.41ZM1077.06,3618.42h-.28l.83,2.41c-.28-.82-.48-1.65-.55-2.41ZM1077.06,3618.42h-.28l.83,2.41c-.28-.82-.48-1.65-.55-2.41ZM1077.06,3618.42h-.28l.83,2.41c-.28-.82-.48-1.65-.55-2.41ZM1077.06,3618.42h-.28l.83,2.41c-.28-.82-.48-1.65-.55-2.41ZM1077.06,3618.42h-.28l.83,2.41c-.28-.82-.48-1.65-.55-2.41ZM1077.06,3618.42h-.28l.83,2.41c-.28-.82-.48-1.65-.55-2.41ZM1077.06,3618.42h-.28l.83,2.41c-.28-.82-.48-1.65-.55-2.41ZM741.79,3503.03c-1.93.62-3.79,1.17-5.65,1.79-3.93,1.24-7.79,2.48-11.51,3.72-19.85,6.48-36.53,12.41-50.59,17.99,27.5,2.83,58.18,4.42,91.19,4.76h.41c2.21,0,4.41.07,6.62,0,2.41.07,4.76.07,7.1.07h3.58l2.21-2.14,4.2-4.13,4.21-4.07,18.2-17.72c-23.85.56-47.35.49-69.96-.27ZM764.95,3570.93h.07s.28-.62.41-.9l-.48.9ZM750.61,3644.75v.21l.07-.28c-.07,0-.07.07-.07.07ZM750.89,3647.1h-.07c.35,4.34.96,8.82,1.79,13.3-.83-4.55-1.38-8.96-1.72-13.3ZM1169.84,3512.06c-3.93,28.4-15.78,37.22-36.88,44.32,1.45.07,2.96.21,4.55.28,1.59.13,3.17.27,4.89.34,3.24.21,6.76.42,10.48.69,4.83.35,9.93.62,15.37,1.03,2.96.21,6.07.42,9.24.63l1.72.13c8.48-9.79,14.06-22.4,17.03-38.39-5.31-2.48-20.27-7.17-26.4-9.03ZM1169.56,3506.96s.55.2.9.27l-.9-.27ZM741.79,3503.03c-1.93.62-3.79,1.17-5.65,1.79-3.93,1.24-7.79,2.48-11.51,3.72-19.85,6.48-36.53,12.41-50.59,17.99,27.5,2.83,58.18,4.42,91.19,4.76h.41c2.21,0,4.41.07,6.62,0,2.41.07,4.76.07,7.1.07h3.58l2.21-2.14,4.2-4.13,4.21-4.07,18.2-17.72c-23.85.56-47.35.49-69.96-.27ZM764.95,3570.93h.07s.28-.62.41-.9l-.48.9ZM750.61,3644.75v.21l.07-.28c-.07,0-.07.07-.07.07ZM750.89,3647.1h-.07c.35,4.34.96,8.82,1.79,13.3-.83-4.55-1.38-8.96-1.72-13.3ZM1169.84,3512.06c-3.93,28.4-15.78,37.22-36.88,44.32,1.45.07,2.96.21,4.55.28,1.59.13,3.17.27,4.89.34,3.24.21,6.76.42,10.48.69,4.83.35,9.93.62,15.37,1.03,2.96.21,6.07.42,9.24.63l1.72.13c8.48-9.79,14.06-22.4,17.03-38.39-5.31-2.48-20.27-7.17-26.4-9.03ZM1169.56,3506.96s.55.2.9.27l-.9-.27ZM1192.86,3485.24s.21.07.28.14l-.28-.14ZM948.37,3502.41h.55s.21,0,.35-.14l-.9.14ZM741.79,3503.03c-1.93.62-3.79,1.17-5.65,1.79-3.93,1.24-7.79,2.48-11.51,3.72-19.85,6.48-36.53,12.41-50.59,17.99,27.5,2.83,58.18,4.42,91.19,4.76h.41c2.21,0,4.41.07,6.62,0,2.41.07,4.76.07,7.1.07h3.58l2.21-2.14,4.2-4.13,4.21-4.07,18.2-17.72c-23.85.56-47.35.49-69.96-.27ZM764.95,3570.93h.07s.28-.62.41-.9l-.48.9ZM750.61,3644.75v.21l.07-.28c-.07,0-.07.07-.07.07ZM750.89,3647.1h-.07c.35,4.34.96,8.82,1.79,13.3-.83-4.55-1.38-8.96-1.72-13.3ZM750.89,3647.1h-.07c.35,4.34.96,8.82,1.79,13.3-.83-4.55-1.38-8.96-1.72-13.3ZM756.2,3676.6l.62,2.41h.07c-.28-.89-.48-1.65-.69-2.41ZM1169.84,3512.06c-3.93,28.4-15.78,37.22-36.88,44.32,1.45.07,2.96.21,4.55.28,1.59.13,3.17.27,4.89.34,3.24.21,6.76.42,10.48.69,4.83.35,9.93.62,15.37,1.03,2.96.21,6.07.42,9.24.63l1.72.13c8.48-9.79,14.06-22.4,17.03-38.39-5.31-2.48-20.27-7.17-26.4-9.03ZM1169.56,3506.96s.55.2.9.27l-.9-.27ZM1192.86,3485.24s.21.07.28.14l-.28-.14ZM948.37,3502.41h.55s.21,0,.35-.14l-.9.14ZM750.89,3647.1h-.07c.35,4.34.96,8.82,1.79,13.3-.83-4.55-1.38-8.96-1.72-13.3ZM756.2,3676.6l.62,2.41h.07c-.28-.89-.48-1.65-.69-2.41ZM1169.84,3512.06c-3.93,28.4-15.78,37.22-36.88,44.32,1.45.07,2.96.21,4.55.28,1.59.13,3.17.27,4.89.34,3.24.21,6.76.42,10.48.69,4.83.35,9.93.62,15.37,1.03,2.96.21,6.07.42,9.24.63l1.72.13c8.48-9.79,14.06-22.4,17.03-38.39-5.31-2.48-20.27-7.17-26.4-9.03ZM1169.56,3506.96s.55.2.9.27l-.9-.27ZM1192.86,3485.24s.21.07.28.14l-.28-.14ZM948.37,3502.41h.55s.21,0,.35-.14l-.9.14ZM750.61,3644.75v.21l.07-.28c-.07,0-.07.07-.07.07ZM750.89,3647.1h-.07c.35,4.34.96,8.82,1.79,13.3-.83-4.55-1.38-8.96-1.72-13.3ZM756.2,3676.6l.62,2.41h.07c-.28-.89-.48-1.65-.69-2.41ZM1169.84,3512.06c-3.93,28.4-15.78,37.22-36.88,44.32,1.45.07,2.96.21,4.55.28,1.59.13,3.17.27,4.89.34,3.24.21,6.76.42,10.48.69,4.83.35,9.93.62,15.37,1.03,2.96.21,6.07.42,9.24.63l1.72.13c8.48-9.79,14.06-22.4,17.03-38.39-5.31-2.48-20.27-7.17-26.4-9.03ZM1169.56,3506.96s.55.2.9.27l-.9-.27ZM1192.86,3485.24s.21.07.28.14l-.28-.14ZM948.37,3502.41h.55s.21,0,.35-.14l-.9.14ZM750.61,3644.75v.21l.07-.28c-.07,0-.07.07-.07.07ZM750.89,3647.1h-.07c.35,4.34.96,8.82,1.79,13.3-.83-4.55-1.38-8.96-1.72-13.3ZM756.2,3676.6l.62,2.41h.07c-.28-.89-.48-1.65-.69-2.41ZM1169.84,3512.06c-3.93,28.4-15.78,37.22-36.88,44.32,1.45.07,2.96.21,4.55.28,1.59.13,3.17.27,4.89.34,3.24.21,6.76.42,10.48.69,4.83.35,9.93.62,15.37,1.03,2.96.21,6.07.42,9.24.63l1.72.13c8.48-9.79,14.06-22.4,17.03-38.39-5.31-2.48-20.27-7.17-26.4-9.03ZM1169.56,3506.96s.55.2.9.27l-.9-.27ZM1192.86,3485.24s.21.07.28.14l-.28-.14ZM948.37,3502.41h.55s.21,0,.35-.14l-.9.14ZM1169.84,3512.06c-3.93,28.4-15.78,37.22-36.88,44.32,1.45.07,2.96.21,4.55.28,1.59.13,3.17.27,4.89.34,3.24.21,6.76.42,10.48.69,4.83.35,9.93.62,15.37,1.03,2.96.21,6.07.42,9.24.63l1.72.13c8.48-9.79,14.06-22.4,17.03-38.39-5.31-2.48-20.27-7.17-26.4-9.03ZM1169.56,3506.96s.55.2.9.27l-.9-.27ZM1192.86,3485.24s.21.07.28.14l-.28-.14ZM948.37,3502.41h.55s.21,0,.35-.14l-.9.14ZM1169.84,3512.06c-3.93,28.4-15.78,37.22-36.88,44.32,1.45.07,2.96.21,4.55.28,1.59.13,3.17.27,4.89.34,3.24.21,6.76.42,10.48.69,4.83.35,9.93.62,15.37,1.03,2.96.21,6.07.42,9.24.63l1.72.13c8.48-9.79,14.06-22.4,17.03-38.39-5.31-2.48-20.27-7.17-26.4-9.03ZM1169.56,3506.96s.55.2.9.27l-.9-.27ZM1192.86,3485.24s.21.07.28.14l-.28-.14ZM948.37,3502.41h.55s.21,0,.35-.14l-.9.14ZM1169.84,3512.06c-3.93,28.4-15.78,37.22-36.88,44.32,1.45.07,2.96.21,4.55.28,1.59.13,3.17.27,4.89.34,3.24.21,6.76.42,10.48.69,4.83.35,9.93.62,15.37,1.03,2.96.21,6.07.42,9.24.63l1.72.13c8.48-9.79,14.06-22.4,17.03-38.39-5.31-2.48-20.27-7.17-26.4-9.03ZM1169.56,3506.96s.55.2.9.27l-.9-.27ZM1192.86,3485.24s.21.07.28.14l-.28-.14ZM948.37,3502.41h.55s.21,0,.35-.14l-.9.14ZM1169.84,3512.06c-3.93,28.4-15.78,37.22-36.88,44.32,1.45.07,2.96.21,4.55.28,1.59.13,3.17.27,4.89.34,3.24.21,6.76.42,10.48.69,4.83.35,9.93.62,15.37,1.03,2.96.21,6.07.42,9.24.63l1.72.13c8.48-9.79,14.06-22.4,17.03-38.39-5.31-2.48-20.27-7.17-26.4-9.03ZM1169.56,3506.96s.55.2.9.27l-.9-.27ZM1192.86,3485.24s.21.07.28.14l-.28-.14ZM948.37,3502.41h.55s.21,0,.35-.14l-.9.14ZM1169.84,3512.06c-3.93,28.4-15.78,37.22-36.88,44.32,1.45.07,2.96.21,4.55.28,1.59.13,3.17.27,4.89.34,3.24.21,6.76.42,10.48.69,4.83.35,9.93.62,15.37,1.03,2.96.21,6.07.42,9.24.63l1.72.13c8.48-9.79,14.06-22.4,17.03-38.39-5.31-2.48-20.27-7.17-26.4-9.03ZM1169.56,3506.96s.55.2.9.27l-.9-.27ZM1192.86,3485.24s.21.07.28.14l-.28-.14ZM948.37,3502.41h.55s.21,0,.35-.14l-.9.14ZM1169.84,3512.06c-3.93,28.4-15.78,37.22-36.88,44.32,1.45.07,2.96.21,4.55.28,1.59.13,3.17.27,4.89.34,3.24.21,6.76.42,10.48.69,4.83.35,9.93.62,15.37,1.03,2.96.21,6.07.42,9.24.63l1.72.13c8.48-9.79,14.06-22.4,17.03-38.39-5.31-2.48-20.27-7.17-26.4-9.03ZM1192.86,3485.24s.21.07.28.14l-.28-.14ZM1169.56,3506.96s.55.2.9.27l-.9-.27ZM948.37,3502.41h.55s.21,0,.35-.14l-.9.14ZM1169.84,3512.06c-3.93,28.4-15.78,37.22-36.88,44.32,1.45.07,2.96.21,4.55.28,1.59.13,3.17.27,4.89.34,3.24.21,6.76.42,10.48.69,4.83.35,9.93.62,15.37,1.03,2.96.21,6.07.42,9.24.63l1.72.13c8.48-9.79,14.06-22.4,17.03-38.39-5.31-2.48-20.27-7.17-26.4-9.03ZM1192.86,3485.24s.21.07.28.14l-.28-.14ZM948.37,3502.41h.55s.21,0,.35-.14l-.9.14ZM1169.84,3512.06c-3.93,28.4-15.78,37.22-36.88,44.32,1.45.07,2.96.21,4.55.28,1.59.13,3.17.27,4.89.34,3.24.21,6.76.42,10.48.69,4.83.35,9.93.62,15.37,1.03,2.96.21,6.07.42,9.24.63l1.72.13c8.48-9.79,14.06-22.4,17.03-38.39-5.31-2.48-20.27-7.17-26.4-9.03ZM1192.86,3485.24s.21.07.28.14l-.28-.14ZM948.37,3502.41h.55s.21,0,.35-.14l-.9.14ZM1169.84,3512.06c-3.93,28.4-15.78,37.22-36.88,44.32,1.45.07,2.96.21,4.55.28,1.59.13,3.17.27,4.89.34,3.24.21,6.76.42,10.48.69,4.83.35,9.93.62,15.37,1.03,2.96.21,6.07.42,9.24.63l1.72.13c8.48-9.79,14.06-22.4,17.03-38.39-5.31-2.48-20.27-7.17-26.4-9.03ZM1192.86,3485.24s.21.07.28.14l-.28-.14ZM948.37,3502.41h.55s.21,0,.35-.14l-.9.14ZM1169.84,3512.06c-3.93,28.4-15.78,37.22-36.88,44.32,1.45.07,2.96.21,4.55.28,1.59.13,3.17.27,4.89.34,3.24.21,6.76.42,10.48.69,4.83.35,9.93.62,15.37,1.03,2.96.21,6.07.42,9.24.63l1.72.13c8.48-9.79,14.06-22.4,17.03-38.39-5.31-2.48-20.27-7.17-26.4-9.03ZM1192.86,3485.24s.21.07.28.14l-.28-.14ZM948.37,3502.41h.55s.21,0,.35-.14l-.9.14ZM1169.84,3512.06c-3.93,28.4-15.78,37.22-36.88,44.32,1.45.07,2.96.21,4.55.28,1.59.13,3.17.27,4.89.34,3.24.21,6.76.42,10.48.69,4.83.35,9.93.62,15.37,1.03,2.96.21,6.07.42,9.24.63l1.72.13c8.48-9.79,14.06-22.4,17.03-38.39-5.31-2.48-20.27-7.17-26.4-9.03ZM1192.86,3485.24s.21.07.28.14l-.28-.14ZM948.37,3502.41h.55s.21,0,.35-.14l-.9.14ZM1169.84,3512.06c-3.93,28.4-15.78,37.22-36.88,44.32,1.45.07,2.96.21,4.55.28,1.59.13,3.17.27,4.89.34,3.24.21,6.76.42,10.48.69,4.83.35,9.93.62,15.37,1.03,2.96.21,6.07.42,9.24.63l1.72.13c8.48-9.79,14.06-22.4,17.03-38.39-5.31-2.48-20.27-7.17-26.4-9.03ZM1192.86,3485.24s.21.07.28.14l-.28-.14ZM948.37,3502.41h.55s.21,0,.35-.14l-.9.14ZM1169.84,3512.06c-3.93,28.4-15.78,37.22-36.88,44.32,1.45.07,2.96.21,4.55.28,1.59.13,3.17.27,4.89.34,3.24.21,6.76.42,10.48.69,4.83.35,9.93.62,15.37,1.03,2.96.21,6.07.42,9.24.63l1.72.13c8.48-9.79,14.06-22.4,17.03-38.39-5.31-2.48-20.27-7.17-26.4-9.03ZM1192.86,3485.24s.21.07.28.14l-.28-.14ZM948.37,3502.41h.55s.21,0,.35-.14l-.9.14ZM948.37,3502.41h.55s.21,0,.35-.14l-.9.14ZM1264.54,3564.86h-.14s.49.69.76,1.1l-.62-1.1ZM1169.84,3512.06c-3.93,28.4-15.78,37.22-36.88,44.32,1.45.07,2.96.21,4.55.28,1.59.13,3.17.27,4.89.34,3.24.21,6.76.42,10.48.69,4.83.35,9.93.62,15.37,1.03,2.96.21,6.07.42,9.24.63l1.72.13c8.48-9.79,14.06-22.4,17.03-38.39-5.31-2.48-20.27-7.17-26.4-9.03ZM1169.56,3506.96s.55.2.9.27l-.9-.27ZM1276.47,3600.43v2.41h.2c0-.83-.06-1.58-.2-2.41ZM1298.04,3571.68h-.07c.28.76.55,1.52.83,2.35-.21-.76-.48-1.59-.76-2.35ZM1178.18,3465.74c-1.86-1.93-3.93-3.93-6.27-6-4.62-.28-9.17-.48-13.58-.55-4.14-.07-8.13-.14-12.06-.21-8.27-.07-16.06-.07-23.23,0,4.69,2.62,9.03,5.24,13.3,8.07h.14c4.41.62,31.78,4.82,52.04,11.51-2.76-4.28-6.2-8.62-10.34-12.89v.07ZM1192.86,3485.24s.21.07.28.14l-.28-.14ZM1298.8,3566.86l-2.55-.14h-.14c.21.41.35.83.55,1.24.14.42.28.83.42,1.24h.07c.89.07,1.72.07,2.62.14-.28-.83-.63-1.65-.97-2.48ZM865.59,3466.98s.21-.07.34-.07c.14-.14.21-.21.35-.28l-.69.35ZM741.79,3503.03c-1.93.62-3.79,1.17-5.65,1.79-3.93,1.24-7.79,2.48-11.51,3.72-19.85,6.48-36.53,12.41-50.59,17.99,27.5,2.83,58.18,4.42,91.19,4.76h.41c2.21,0,4.41.07,6.62,0,2.41.07,4.76.07,7.1.07h3.58l2.21-2.14,4.2-4.13,4.21-4.07,18.2-17.72c-23.85.56-47.35.49-69.96-.27ZM948.37,3502.41h.55s.21,0,.35-.14l-.9.14ZM1192.86,3485.24s.21.07.28.14l-.28-.14ZM1169.84,3512.06c-3.93,28.4-15.78,37.22-36.88,44.32,1.45.07,2.96.21,4.55.28,1.59.13,3.17.27,4.89.34,3.24.21,6.76.42,10.48.69,4.83.35,9.93.62,15.37,1.03,2.96.21,6.07.42,9.24.63l1.72.13c8.48-9.79,14.06-22.4,17.03-38.39-5.31-2.48-20.27-7.17-26.4-9.03ZM948.37,3502.41h.55s.21,0,.35-.14l-.9.14ZM1192.86,3485.24s.21.07.28.14l-.28-.14ZM1169.84,3512.06c-3.93,28.4-15.78,37.22-36.88,44.32,1.45.07,2.96.21,4.55.28,1.59.13,3.17.27,4.89.34,3.24.21,6.76.42,10.48.69,4.83.35,9.93.62,15.37,1.03,2.96.21,6.07.42,9.24.63l1.72.13c8.48-9.79,14.06-22.4,17.03-38.39-5.31-2.48-20.27-7.17-26.4-9.03ZM948.37,3502.41h.55s.21,0,.35-.14l-.9.14ZM1192.86,3485.24s.21.07.28.14l-.28-.14ZM1169.84,3512.06c-3.93,28.4-15.78,37.22-36.88,44.32,1.45.07,2.96.21,4.55.28,1.59.13,3.17.27,4.89.34,3.24.21,6.76.42,10.48.69,4.83.35,9.93.62,15.37,1.03,2.96.21,6.07.42,9.24.63l1.72.13c8.48-9.79,14.06-22.4,17.03-38.39-5.31-2.48-20.27-7.17-26.4-9.03ZM948.37,3502.41h.55s.21,0,.35-.14l-.9.14ZM1192.86,3485.24s.21.07.28.14l-.28-.14ZM1169.84,3512.06c-3.93,28.4-15.78,37.22-36.88,44.32,1.45.07,2.96.21,4.55.28,1.59.13,3.17.27,4.89.34,3.24.21,6.76.42,10.48.69,4.83.35,9.93.62,15.37,1.03,2.96.21,6.07.42,9.24.63l1.72.13c8.48-9.79,14.06-22.4,17.03-38.39-5.31-2.48-20.27-7.17-26.4-9.03ZM948.37,3502.41h.55s.21,0,.35-.14l-.9.14ZM1192.86,3485.24s.21.07.28.14l-.28-.14ZM1169.84,3512.06c-3.93,28.4-15.78,37.22-36.88,44.32,1.45.07,2.96.21,4.55.28,1.59.13,3.17.27,4.89.34,3.24.21,6.76.42,10.48.69,4.83.35,9.93.62,15.37,1.03,2.96.21,6.07.42,9.24.63l1.72.13c8.48-9.79,14.06-22.4,17.03-38.39-5.31-2.48-20.27-7.17-26.4-9.03ZM948.37,3502.41h.55s.21,0,.35-.14l-.9.14ZM1192.86,3485.24s.21.07.28.14l-.28-.14ZM1169.84,3512.06c-3.93,28.4-15.78,37.22-36.88,44.32,1.45.07,2.96.21,4.55.28,1.59.13,3.17.27,4.89.34,3.24.21,6.76.42,10.48.69,4.83.35,9.93.62,15.37,1.03,2.96.21,6.07.42,9.24.63l1.72.13c8.48-9.79,14.06-22.4,17.03-38.39-5.31-2.48-20.27-7.17-26.4-9.03ZM764.95,3570.93h.07s.28-.62.41-.9l-.48.9ZM948.37,3502.41h.55s.21,0,.35-.14l-.9.14ZM1192.86,3485.24s.21.07.28.14l-.28-.14ZM1169.84,3512.06c-3.93,28.4-15.78,37.22-36.88,44.32,1.45.07,2.96.21,4.55.28,1.59.13,3.17.27,4.89.34,3.24.21,6.76.42,10.48.69,4.83.35,9.93.62,15.37,1.03,2.96.21,6.07.42,9.24.63l1.72.13c8.48-9.79,14.06-22.4,17.03-38.39-5.31-2.48-20.27-7.17-26.4-9.03ZM948.37,3502.41h.55s.21,0,.35-.14l-.9.14ZM1169.56,3506.96s.55.2.9.27l-.9-.27ZM1192.86,3485.24s.21.07.28.14l-.28-.14ZM1169.84,3512.06c-3.93,28.4-15.78,37.22-36.88,44.32,1.45.07,2.96.21,4.55.28,1.59.13,3.17.27,4.89.34,3.24.21,6.76.42,10.48.69,4.83.35,9.93.62,15.37,1.03,2.96.21,6.07.42,9.24.63l1.72.13c8.48-9.79,14.06-22.4,17.03-38.39-5.31-2.48-20.27-7.17-26.4-9.03ZM948.37,3502.41h.55s.21,0,.35-.14l-.9.14ZM1192.86,3485.24s.21.07.28.14l-.28-.14ZM1169.84,3512.06c-3.93,28.4-15.78,37.22-36.88,44.32,1.45.07,2.96.21,4.55.28,1.59.13,3.17.27,4.89.34,3.24.21,6.76.42,10.48.69,4.83.35,9.93.62,15.37,1.03,2.96.21,6.07.42,9.24.63l1.72.13c8.48-9.79,14.06-22.4,17.03-38.39-5.31-2.48-20.27-7.17-26.4-9.03ZM1169.56,3506.96s.55.2.9.27l-.9-.27ZM948.37,3502.41h.55s.21,0,.35-.14l-.9.14ZM1192.86,3485.24s.21.07.28.14l-.28-.14ZM1169.84,3512.06c-3.93,28.4-15.78,37.22-36.88,44.32,1.45.07,2.96.21,4.55.28,1.59.13,3.17.27,4.89.34,3.24.21,6.76.42,10.48.69,4.83.35,9.93.62,15.37,1.03,2.96.21,6.07.42,9.24.63l1.72.13c8.48-9.79,14.06-22.4,17.03-38.39-5.31-2.48-20.27-7.17-26.4-9.03ZM1169.56,3506.96s.55.2.9.27l-.9-.27ZM948.37,3502.41h.55s.21,0,.35-.14l-.9.14ZM1192.86,3485.24s.21.07.28.14l-.28-.14ZM1169.84,3512.06c-3.93,28.4-15.78,37.22-36.88,44.32,1.45.07,2.96.21,4.55.28,1.59.13,3.17.27,4.89.34,3.24.21,6.76.42,10.48.69,4.83.35,9.93.62,15.37,1.03,2.96.21,6.07.42,9.24.63l1.72.13c8.48-9.79,14.06-22.4,17.03-38.39-5.31-2.48-20.27-7.17-26.4-9.03ZM1169.56,3506.96s.55.2.9.27l-.9-.27ZM948.37,3502.41h.55s.21,0,.35-.14l-.9.14ZM1192.86,3485.24s.21.07.28.14l-.28-.14ZM1169.84,3512.06c-3.93,28.4-15.78,37.22-36.88,44.32,1.45.07,2.96.21,4.55.28,1.59.13,3.17.27,4.89.34,3.24.21,6.76.42,10.48.69,4.83.35,9.93.62,15.37,1.03,2.96.21,6.07.42,9.24.63l1.72.13c8.48-9.79,14.06-22.4,17.03-38.39-5.31-2.48-20.27-7.17-26.4-9.03ZM1169.56,3506.96s.55.2.9.27l-.9-.27ZM948.37,3502.41h.55s.21,0,.35-.14l-.9.14ZM1192.86,3485.24s.21.07.28.14l-.28-.14ZM1169.84,3512.06c-3.93,28.4-15.78,37.22-36.88,44.32,1.45.07,2.96.21,4.55.28,1.59.13,3.17.27,4.89.34,3.24.21,6.76.42,10.48.69,4.83.35,9.93.62,15.37,1.03,2.96.21,6.07.42,9.24.63l1.72.13c8.48-9.79,14.06-22.4,17.03-38.39-5.31-2.48-20.27-7.17-26.4-9.03ZM1169.56,3506.96s.55.2.9.27l-.9-.27ZM756.2,3676.6l.62,2.41h.07c-.28-.89-.48-1.65-.69-2.41ZM750.89,3647.1h-.07c.35,4.34.96,8.82,1.79,13.3-.83-4.55-1.38-8.96-1.72-13.3ZM750.61,3644.75v.21l.07-.28c-.07,0-.07.07-.07.07ZM948.37,3502.41h.55s.21,0,.35-.14l-.9.14ZM1192.86,3485.24s.21.07.28.14l-.28-.14ZM1169.84,3512.06c-3.93,28.4-15.78,37.22-36.88,44.32,1.45.07,2.96.21,4.55.28,1.59.13,3.17.27,4.89.34,3.24.21,6.76.42,10.48.69,4.83.35,9.93.62,15.37,1.03,2.96.21,6.07.42,9.24.63l1.72.13c8.48-9.79,14.06-22.4,17.03-38.39-5.31-2.48-20.27-7.17-26.4-9.03ZM1169.56,3506.96s.55.2.9.27l-.9-.27ZM756.2,3676.6l.62,2.41h.07c-.28-.89-.48-1.65-.69-2.41ZM750.89,3647.1h-.07c.35,4.34.96,8.82,1.79,13.3-.83-4.55-1.38-8.96-1.72-13.3ZM750.61,3644.75v.21l.07-.28c-.07,0-.07.07-.07.07ZM948.37,3502.41h.55s.21,0,.35-.14l-.9.14ZM1192.86,3485.24s.21.07.28.14l-.28-.14ZM1169.84,3512.06c-3.93,28.4-15.78,37.22-36.88,44.32,1.45.07,2.96.21,4.55.28,1.59.13,3.17.27,4.89.34,3.24.21,6.76.42,10.48.69,4.83.35,9.93.62,15.37,1.03,2.96.21,6.07.42,9.24.63l1.72.13c8.48-9.79,14.06-22.4,17.03-38.39-5.31-2.48-20.27-7.17-26.4-9.03ZM1169.56,3506.96s.55.2.9.27l-.9-.27ZM756.2,3676.6l.62,2.41h.07c-.28-.89-.48-1.65-.69-2.41ZM750.89,3647.1h-.07c.35,4.34.96,8.82,1.79,13.3-.83-4.55-1.38-8.96-1.72-13.3ZM750.61,3644.75v.21l.07-.28c-.07,0-.07.07-.07.07ZM948.37,3502.41h.55s.21,0,.35-.14l-.9.14ZM1192.86,3485.24s.21.07.28.14l-.28-.14ZM1169.84,3512.06c-3.93,28.4-15.78,37.22-36.88,44.32,1.45.07,2.96.21,4.55.28,1.59.13,3.17.27,4.89.34,3.24.21,6.76.42,10.48.69,4.83.35,9.93.62,15.37,1.03,2.96.21,6.07.42,9.24.63l1.72.13c8.48-9.79,14.06-22.4,17.03-38.39-5.31-2.48-20.27-7.17-26.4-9.03ZM1169.56,3506.96s.55.2.9.27l-.9-.27ZM756.2,3676.6l.62,2.41h.07c-.28-.89-.48-1.65-.69-2.41ZM750.89,3647.1h-.07c.35,4.34.96,8.82,1.79,13.3-.83-4.55-1.38-8.96-1.72-13.3ZM750.89,3647.1h-.07c.35,4.34.96,8.82,1.79,13.3-.83-4.55-1.38-8.96-1.72-13.3ZM756.2,3676.6l.62,2.41h.07c-.28-.89-.48-1.65-.69-2.41ZM764.95,3570.93h.07s.28-.62.41-.9l-.48.9ZM750.61,3644.75v.21l.07-.28c-.07,0-.07.07-.07.07ZM741.79,3503.03c-1.93.62-3.79,1.17-5.65,1.79-3.93,1.24-7.79,2.48-11.51,3.72-19.85,6.48-36.53,12.41-50.59,17.99,27.5,2.83,58.18,4.42,91.19,4.76h.41c2.21,0,4.41.07,6.62,0,2.41.07,4.76.07,7.1.07h3.58l2.21-2.14,4.2-4.13,4.21-4.07,18.2-17.72c-23.85.56-47.35.49-69.96-.27ZM948.37,3502.41h.55s.21,0,.35-.14l-.9.14ZM1192.86,3485.24s.21.07.28.14l-.28-.14ZM1169.84,3512.06c-3.93,28.4-15.78,37.22-36.88,44.32,1.45.07,2.96.21,4.55.28,1.59.13,3.17.27,4.89.34,3.24.21,6.76.42,10.48.69,4.83.35,9.93.62,15.37,1.03,2.96.21,6.07.42,9.24.63l1.72.13c8.48-9.79,14.06-22.4,17.03-38.39-5.31-2.48-20.27-7.17-26.4-9.03ZM1169.56,3506.96s.55.2.9.27l-.9-.27ZM750.89,3647.1h-.07c.35,4.34.96,8.82,1.79,13.3-.83-4.55-1.38-8.96-1.72-13.3ZM764.95,3570.93h.07s.28-.62.41-.9l-.48.9ZM750.61,3644.75v.21l.07-.28c-.07,0-.07.07-.07.07ZM741.79,3503.03c-1.93.62-3.79,1.17-5.65,1.79-3.93,1.24-7.79,2.48-11.51,3.72-19.85,6.48-36.53,12.41-50.59,17.99,27.5,2.83,58.18,4.42,91.19,4.76h.41c2.21,0,4.41.07,6.62,0,2.41.07,4.76.07,7.1.07h3.58l2.21-2.14,4.2-4.13,4.21-4.07,18.2-17.72c-23.85.56-47.35.49-69.96-.27ZM1169.84,3512.06c-3.93,28.4-15.78,37.22-36.88,44.32,1.45.07,2.96.21,4.55.28,1.59.13,3.17.27,4.89.34,3.24.21,6.76.42,10.48.69,4.83.35,9.93.62,15.37,1.03,2.96.21,6.07.42,9.24.63l1.72.13c8.48-9.79,14.06-22.4,17.03-38.39-5.31-2.48-20.27-7.17-26.4-9.03ZM1169.56,3506.96s.55.2.9.27l-.9-.27ZM750.89,3647.1h-.07c.35,4.34.96,8.82,1.79,13.3-.83-4.55-1.38-8.96-1.72-13.3ZM764.95,3570.93h.07s.28-.62.41-.9l-.48.9ZM750.61,3644.75v.21l.07-.28c-.07,0-.07.07-.07.07ZM741.79,3503.03c-1.93.62-3.79,1.17-5.65,1.79-3.93,1.24-7.79,2.48-11.51,3.72-19.85,6.48-36.53,12.41-50.59,17.99,27.5,2.83,58.18,4.42,91.19,4.76h.41c2.21,0,4.41.07,6.62,0,2.41.07,4.76.07,7.1.07h3.58l2.21-2.14,4.2-4.13,4.21-4.07,18.2-17.72c-23.85.56-47.35.49-69.96-.27Z"/>
  <path class="cls-11" d="M783.97,3619.18h.07c.07-.62.14-1.24.27-1.86l-.34,1.86ZM1169.56,3506.96s.55.2.9.27l-.9-.27ZM948.37,3502.41h.55s.21,0,.34-.14l-.9.14ZM865.59,3466.98s.21-.07.34-.07c.14-.14.21-.21.35-.28l-.69.35ZM756.2,3676.6l.62,2.41h.07c-.28-.89-.48-1.65-.69-2.41ZM750.89,3647.1h-.07c.35,4.34.96,8.82,1.79,13.3-.83-4.55-1.38-8.96-1.72-13.3ZM764.95,3570.93h.07s.28-.62.41-.9l-.48.9ZM750.61,3644.75v.21l.07-.28c-.07,0-.07.07-.07.07ZM1169.56,3506.96s.55.2.9.27l-.9-.27ZM948.37,3502.41h.55s.21,0,.34-.14l-.9.14ZM756.2,3676.6l.62,2.41h.07c-.28-.89-.48-1.65-.69-2.41ZM750.89,3647.1h-.07c.35,4.34.96,8.82,1.79,13.3-.83-4.55-1.38-8.96-1.72-13.3ZM764.95,3570.93h.07s.28-.62.41-.9l-.48.9ZM750.61,3644.75v.21l.07-.28c-.07,0-.07.07-.07.07ZM1133.65,3588.85c1.1.07,2.27.14,3.51.27h.14l-3.65-.27ZM1169.56,3506.96s.55.2.9.27l-.9-.27ZM948.37,3502.41h.55s.21,0,.34-.14l-.9.14ZM756.2,3676.6l.62,2.41h.07c-.28-.89-.48-1.65-.69-2.41ZM750.89,3647.1h-.07c.35,4.34.96,8.82,1.79,13.3-.83-4.55-1.38-8.96-1.72-13.3ZM764.95,3570.93h.07s.28-.62.41-.9l-.48.9ZM750.61,3644.75v.21l.07-.28c-.07,0-.07.07-.07.07ZM750.89,3647.1h-.07c.35,4.34.96,8.82,1.79,13.3-.83-4.55-1.38-8.96-1.72-13.3ZM756.2,3676.6l.62,2.41h.07c-.28-.89-.48-1.65-.69-2.41ZM1133.65,3588.85c1.1.07,2.27.14,3.51.27h.14l-3.65-.27ZM750.89,3647.1h-.07c.35,4.34.96,8.82,1.79,13.3-.83-4.55-1.38-8.96-1.72-13.3ZM756.2,3676.6l.62,2.41h.07c-.28-.89-.48-1.65-.69-2.41ZM1133.65,3588.85c1.1.07,2.27.14,3.51.27h.14l-3.65-.27ZM750.61,3644.75v.21l.07-.28c-.07,0-.07.07-.07.07ZM750.89,3647.1h-.07c.35,4.34.96,8.82,1.79,13.3-.83-4.55-1.38-8.96-1.72-13.3ZM756.2,3676.6l.62,2.41h.07c-.28-.89-.48-1.65-.69-2.41ZM1133.65,3588.85c1.1.07,2.27.14,3.51.27h.14l-3.65-.27ZM750.61,3644.75v.21l.07-.28c-.07,0-.07.07-.07.07ZM750.89,3647.1h-.07c.35,4.34.96,8.82,1.79,13.3-.83-4.55-1.38-8.96-1.72-13.3ZM756.2,3676.6l.62,2.41h.07c-.28-.89-.48-1.65-.69-2.41ZM1133.65,3588.85c1.1.07,2.27.14,3.51.27h.14l-3.65-.27ZM750.61,3644.75v.21l.07-.28c-.07,0-.07.07-.07.07ZM750.89,3647.1h-.07c.35,4.34.96,8.82,1.79,13.3-.83-4.55-1.38-8.96-1.72-13.3ZM756.2,3676.6l.62,2.41h.07c-.28-.89-.48-1.65-.69-2.41ZM1133.65,3588.85c1.1.07,2.27.14,3.51.27h.14l-3.65-.27ZM1133.65,3588.85c1.1.07,2.27.14,3.51.27h.14l-3.65-.27ZM1133.65,3588.85c1.1.07,2.27.14,3.51.27h.14l-3.65-.27ZM1133.65,3588.85c1.1.07,2.27.14,3.51.27h.14l-3.65-.27ZM1133.65,3588.85c1.1.07,2.27.14,3.51.27h.14l-3.65-.27ZM783.97,3619.18h.07c.07-.62.14-1.24.27-1.86l-.34,1.86ZM764.95,3570.93h.07s.28-.62.41-.9l-.48.9ZM948.37,3502.41h.55s.21,0,.34-.14l-.9.14ZM1169.56,3506.96s.55.2.9.27l-.9-.27ZM1271.3,3597.74s-.07-.55-.14-.83c0,.28,0,.56.07.83.14.48.21,1.04.28,1.52-.07-.48-.14-1.04-.21-1.52ZM1271.57,3600.15s.07,0,.07.14v-.14h-.07ZM1276.47,3600.43v2.41h.2c0-.82-.06-1.58-.2-2.41ZM1103.46,3454.64h.14c1.79,0,3.65,0,5.51-.14l-5.65.14ZM1302.04,3568.51c-.21-.48-.34-1.03-.55-1.51h-.07c-.48,0-1.03-.07-1.52-.07h-1.1l-2.55-.21h-.14c.21.42.35.83.55,1.24.14.42.28.83.42,1.24h.07c.89.07,1.72.07,2.62.14.89.07,1.72.07,2.62.14-.14-.35-.21-.62-.35-.97ZM1298.04,3571.69h-.07c.28.75.56,1.51.83,2.34-.21-.76-.48-1.59-.76-2.34ZM865.59,3466.98s.21-.07.34-.07c.14-.14.21-.21.35-.28l-.69.35ZM654.8,3529.22h.35c2.62-1.17,5.38-2.34,8.2-3.51l-8.55,3.51ZM1133.65,3588.85c1.1.07,2.27.14,3.51.27h.14l-3.65-.27ZM1133.65,3588.85c1.1.07,2.27.14,3.51.27h.14l-3.65-.27ZM1133.65,3588.85c1.1.07,2.27.14,3.51.27h.14l-3.65-.27ZM1133.65,3588.85c1.1.07,2.27.14,3.51.27h.14l-3.65-.27ZM1133.65,3588.85c1.1.07,2.27.14,3.51.27h.14l-3.65-.27ZM1133.65,3588.85c1.1.07,2.27.14,3.51.27h.14l-3.65-.27ZM756.2,3676.6l.62,2.41h.07c-.28-.89-.48-1.65-.69-2.41ZM750.89,3647.1h-.07c.35,4.34.96,8.82,1.79,13.3-.83-4.55-1.38-8.96-1.72-13.3ZM750.61,3644.75v.21l.07-.28c-.07,0-.07.07-.07.07ZM1133.65,3588.85c1.1.07,2.27.14,3.51.27h.14l-3.65-.27ZM756.2,3676.6l.62,2.41h.07c-.28-.89-.48-1.65-.69-2.41ZM750.89,3647.1h-.07c.35,4.34.96,8.82,1.79,13.3-.83-4.55-1.38-8.96-1.72-13.3ZM750.61,3644.75v.21l.07-.28c-.07,0-.07.07-.07.07ZM1133.65,3588.85c1.1.07,2.27.14,3.51.27h.14l-3.65-.27ZM756.2,3676.6l.62,2.41h.07c-.28-.89-.48-1.65-.69-2.41ZM750.89,3647.1h-.07c.35,4.34.96,8.82,1.79,13.3-.83-4.55-1.38-8.96-1.72-13.3ZM750.61,3644.75v.21l.07-.28c-.07,0-.07.07-.07.07ZM1133.65,3588.85c1.1.07,2.27.14,3.51.27h.14l-3.65-.27ZM756.2,3676.6l.62,2.41h.07c-.28-.89-.48-1.65-.69-2.41ZM750.89,3647.1h-.07c.35,4.34.96,8.82,1.79,13.3-.83-4.55-1.38-8.96-1.72-13.3ZM750.89,3647.1h-.07c.35,4.34.96,8.82,1.79,13.3-.83-4.55-1.38-8.96-1.72-13.3ZM756.2,3676.6l.62,2.41h.07c-.28-.89-.48-1.65-.69-2.41ZM764.95,3570.93h.07s.28-.62.41-.9l-.48.9ZM750.61,3644.75v.21l.07-.28c-.07,0-.07.07-.07.07ZM948.37,3502.41h.55s.21,0,.34-.14l-.9.14ZM1169.56,3506.96s.55.2.9.27l-.9-.27ZM1133.65,3588.85c1.1.07,2.27.14,3.51.27h.14l-3.65-.27ZM764.95,3570.93h.07s.28-.62.41-.9l-.48.9ZM750.61,3644.75v.21l.07-.28c-.07,0-.07.07-.07.07ZM750.89,3647.1h-.07c.35,4.34.96,8.82,1.79,13.3-.83-4.55-1.38-8.96-1.72-13.3ZM756.2,3676.6l.62,2.41h.07c-.28-.89-.48-1.65-.69-2.41ZM948.37,3502.41h.55s.21,0,.34-.14l-.9.14ZM1169.56,3506.96s.55.2.9.27l-.9-.27ZM764.95,3570.93h.07s.28-.62.41-.9l-.48.9ZM750.61,3644.75v.21l.07-.28c-.07,0-.07.07-.07.07ZM750.89,3647.1h-.07c.35,4.34.96,8.82,1.79,13.3-.83-4.55-1.38-8.96-1.72-13.3ZM756.2,3676.6l.62,2.41h.07c-.28-.89-.48-1.65-.69-2.41ZM948.37,3502.41h.55s.21,0,.34-.14l-.9.14ZM1169.56,3506.96s.55.2.9.27l-.9-.27ZM764.95,3570.93h.07s.28-.62.41-.9l-.48.9ZM750.61,3644.75v.21l.07-.28c-.07,0-.07.07-.07.07ZM750.89,3647.1h-.07c.35,4.34.96,8.82,1.79,13.3-.83-4.55-1.38-8.96-1.72-13.3ZM756.2,3676.6l.62,2.41h.07c-.28-.89-.48-1.65-.69-2.41ZM865.59,3466.98s.21-.07.34-.07c.14-.14.21-.21.35-.28l-.69.35ZM1169.56,3506.96s.55.2.9.27l-.9-.27ZM1133.65,3588.85c1.1.07,2.27.14,3.51.27h.14l-3.65-.27Z"/>
  <path class="cls-11" d="M1108.84,3422.1c-2,.07-4,.14-5.93.21-5.24.21-10.13.48-14.54.9-2.96.2-5.79.48-8.41.75-7.93.9-15.92,2.07-23.92,3.59-7.93,1.45-15.85,3.17-23.78,5.24h-.07c-4.83-.21-9.44-.21-13.79.07-46.87,2.75-97.33,30.39-131.52,53.28-.07,0-.14,0-.14.07-.14.07-.21.14-.34.21-2.83,1.86-5.52,3.72-8.2,5.58-2,1.38-4,2.76-6,4.2-.14.07-.21.14-.34.21-.76.35-1.79.97-3.1,1.79-8.13,5.38-25.16,19.72-39.63,32.26-.21.21-.48.42-.69.62-8.41,7.52-15.03,14-19.16,18.75-.14.14-.21.28-.34.42-1.03,1.17-1.93,2.27-2.76,3.31-.62.82-1.17,1.65-1.65,2.41-.14.27-.28.62-.48.96-.69,1.45-1.79,3.24-2.96,5.38l-.9,1.52c-3.1,5.3-6.41,11.03-9.72,17.85l-.62,1.31c-.21.41-.34.76-.55,1.17-.34.83-.69,1.66-1.03,2.48-.96,2.28-1.86,4.55-2.69,6.83-.07.14-.07.27-.14.41-.83,2.21-1.52,4.48-2.21,6.76-.76,2.48-1.45,4.96-2.07,7.44-.48,2.14-.9,4.21-1.31,6.34v.14c-.14.62-.21,1.31-.34,1.93v.55l-.41,2.41c-.83,6.07-1.1,12.41-.9,18.89,0,.76,0,1.52.07,2.28v.2c.07.83.07,1.59.21,2.42.62,8.96,2.14,18.06,4.69,27.02.21.82.41,1.58.69,2.41,0,.14,0,.21.07.35.21.68.41,1.3.62,1.99,1.93,6.21,4.34,12.41,7.1,18.48,4.96,11.1,9.1,22.26,12.13,33.22.28.83.48,1.66.69,2.48.07.21.14.49.21.69.14.56.28,1.18.41,1.73,2.48,9.3,4.27,18.54,5.31,27.71.14.82.21,1.58.28,2.41.07,0,.07.21.07.28.07.69.14,1.44.21,2.13,8.48,88.79-45.01,148.97-57.28,161.51l-18.68-20.33c9.86-9.93,57.9-63.08,48.04-142.62-.07-.83-.14-1.66-.28-2.49,0-.2-.07-.34-.07-.55-.07-.62-.21-1.31-.34-1.93-1.45-9.51-3.65-19.02-6.62-28.47-.21-.89-.48-1.72-.76-2.55-.14-.34-.21-.75-.35-1.1-.14-.48-.34-.96-.48-1.45-2.41-7.1-4.96-13.37-7.65-19.3-3.86-8.68-7.1-17.37-9.58-25.92-.28-.82-.48-1.58-.69-2.34v-.21c-.21-.69-.34-1.44-.55-2.13-1.24-4.69-2.21-9.31-2.96-13.86-.83-4.55-1.38-8.96-1.72-13.3-.14-.76-.14-1.45-.21-2.14v-.28c-.07-.82-.14-1.65-.14-2.41-.41-7.86-.14-15.44.62-22.54.07-.76.21-1.52.27-2.21v-.2c.14-.83.21-1.59.35-2.41,1.17-9.17,3.38-18.34,6.55-27.37.14-.55.35-1.1.55-1.65.07-.21.14-.49.28-.69.28-.76.55-1.59.9-2.35,1.45-4,3.1-7.99,4.96-11.92.14-.28.28-.62.41-.9.34-.76.69-1.52,1.1-2.21.48-1.1,1.03-2.06,1.52-3.1,2.96-5.79,5.86-10.75,8.55-15.23,1.45-2.41,2.62-4.41,3.38-6.07,1.03-2,3.03-4.89,5.79-8.06l.28-.35,9.99-9.78,4.2-4.07,4.27-4.21,14.13-13.78.76-.69c14.27-12.27,30.4-24.61,46.53-35.57.14-.14.21-.21.34-.28,2-1.38,3.93-2.69,6-4.06h.07c2.21-1.45,4.41-2.97,6.76-4.35,6.14-4,12.55-7.92,19.3-11.78,2.41-1.38,4.76-2.76,7.24-4.14,17.51-9.72,36.74-18.82,56.59-25.51,2.69-.96,5.45-1.86,8.13-2.68h.34c3.03-.97,6.14-1.8,9.17-2.62,3.24-.83,6.55-1.59,9.79-2.35,2.83-.55,5.65-1.1,8.48-1.58h.28c3.03-.55,6.07-.97,9.1-1.31,3.1-.35,6.2-.62,9.24-.83,3.24-.21,6.48-.27,9.79-.27,2.76,0,5.58.06,8.41.2,2.28.07,4.62.28,6.96.42.69.06,1.38.13,2.14.2,2.41.21,4.83.49,7.31.83,1.72.21,3.45.48,5.24.83h.07c1.52.13,3.03.41,4.55.69.21,0,.34.07.55.13h.07c15.58,2.9,31.57,7.52,47.01,13.72l-.07-.07Z"/>
  <path class="cls-11" d="M1298.8,3639.31c-4.21-.76-8.69-1.52-13.37-2.35-2.97-.48-6.07-1.03-9.24-1.58-1.86-.35-3.72-.62-5.58-.97,5.23-8.68,7.23-19.09,6.06-31.57,0-.82-.07-1.58-.21-2.41v-.14c0-.62-.06-1.17-.13-1.58,0-.21-.07-.49-.14-.69-.28-2.48-.76-4.9-1.31-7.31-.28-1.24-.55-2.41-.9-3.58-.13-.69-.34-1.38-.55-2-.34-1.11-.69-2.21-1.03-3.31-.48-1.38-.97-2.69-1.52-4.07-.48-1.31-1.1-2.69-1.72-4-.35-.89-.76-1.72-1.24-2.62-.21-.41-.42-.82-.62-1.24-.42-.82-.9-1.72-1.38-2.55-.21-.48-.48-.89-.76-1.38l-.62-1.1h-.14c-9.44-16.06-23.78-29.02-41.49-37.5-7.31-3.51-15.1-6.89-23.02-10.06l-2.76-1.17c-6.62-2.76-21.37-7.31-26.67-8.9l-.9-.27c-.14-.07-.28-.14-.35-.14-.14,0-.21-.07-.28-.07-.21,0-.34-.14-.41-.14h-.07c-41.15-11.51-76.51-11.3-104.98.62-56.73,23.72-111.87,23.92-139.65,21.92-14.27-1.03-28.54-1.37-42.46-.96-2.55,0-5.03,0-7.58.28-2.21,0-4.48.13-6.69.27-.34,0-.76,0-.9.07h-1.38c-8.62.55-17.99.97-28.05,1.38,16.82-14.41,34.12-28.47,36.53-29.37,17.16-.75,34.81-.41,52.39.83,2.76.21,5.79.35,9.03.48.34.07.69.07,1.1.07,2,.07,4.13.14,6.27.14h6.76c25.64-.28,64.24-4.07,103.88-20.61,24.06-10.13,51.77-13.44,82.44-10,0,0,.62,0,1.72.21,7.45,1.17,36.95,6,55.35,13.03.21.07.41.14.55.21.07.07.21.06.27.13h.14c13.72,4.69,27.71,10.48,41.56,17.17,28.47,13.65,50.11,36.33,61.28,64.17.21.42.35.83.55,1.24.14.42.28.83.42,1.25h.06l.35.96c.21.48.34,1.03.48,1.52.28.76.55,1.51.83,2.34.27.76.55,1.52.76,2.28.2.68.48,1.44.69,2.13.34,1.24.62,2.41.89,3.59.07.2.07.34.14.55.48,2,.9,3.93,1.31,5.93.41,2.2.76,4.48,1.03,6.75.21,1.45.42,2.9.49,4.41,0,.76.13,1.59.13,2.42v2.41c.69,12.68-1.17,24.4-5.44,34.81l.07.07Z"/>
  <path class="cls-11" d="M1271.51,3672.46c-11.72,7.93-26.68,13.93-44.6,17.79-45.98,9.72-97.19-1.86-152.33-34.47-1.31-.69-2.55-1.45-3.86-2.27-.21-.07-.41-.21-.62-.35l-.76-.48c-.48-.34-.96-.62-1.52-1.03-.21-.14-.41-.28-.55-.42-9.24-6.55-15.23-16.13-17.23-27.09-.14-.76-.28-1.58-.34-2.41-.07-.07-.07-.21-.07-.28-.14-.69-.21-1.37-.28-2.13-.07-1.38-.14-2.9-.07-4.62.21-5.38,1.31-10.62,3.38-15.58.76-.14,1.45-.28,2.14-.48,3.24-.69,6.07-1.31,8.55-1.93.83-.21,1.66-.42,2.41-.62,2.28-.55,4.34-1.11,6.2-1.59,3.38-.89,6-1.58,8.96-2.07.76-.13,1.52-.2,2.34-.34.76-.07,1.59-.14,2.41-.21,3.86-.2,8.75-.2,16.13.07,1.45,0,3.1,0,4.83.21.83,0,1.65.07,2.62.14-8.07,2.55-15.92,5.58-23.71,9.65-7.79,3.99-8.62,11.51-8.69,13.78,0,.69.07,1.66.14,2.69h-.21l.83,2.41c.07.21.14.49.21.69.21.55.41,1.11.69,1.73.21.41.41.75.69,1.17.21.34.41.69.69,1.03.69.97,1.59,1.93,2.76,2.83.55.48,1.1.89,1.79,1.31,13.44,8.2,26.19,14.82,38.6,20.2,2,.82,4,1.65,6,2.48,2.07.82,4.07,1.58,6.14,2.34l.62.14c29.98,10.96,58.04,13.92,82.78,8.82h.14c2.48.42,4.96.83,7.44,1.24,9.58,1.59,18.68,3.1,27.16,4.55,5.93,1.04,11.65,2,17.1,2.9.34.07.75.14,1.1.2Z"/>
  <path class="cls-11" d="M650.74,3495.86c-16.89,7.17-30.33,14.06-40.88,21.02-23.51-4.89-44.11-11.09-61.42-18.4-15.78-6.69-29.71-15.37-41.63-25.92-.9-.76-1.72-1.52-2.55-2.27-7.86-7.04-15.03-15.31-21.37-24.61-14.13-20.54-23.37-45.5-27.57-74.04-6.07-41.56.62-77.2,2.07-84.02,8.34-51.15,24.47-142.83,31.71-161.99,14.47-38.47,25.78-87.96,9.99-188.53-4.69-29.92-11.3-57.29-16.13-77.28l-.27-1.17c-4.55-19.09-8.13-34.12-9.24-45.98-2.69-27.84,13.03-98.57,51.28-128.97,21.78-17.3,9.65-60.22,11.18-65.8s26.34-6.73,26.34-6.73c3.24,11.85,15.83,65.42-20.42,94.17-28.95,23.02-42.8,84.78-40.94,104.71.96,9.99,4.55,24.88,8.62,42.18l.48,2c5.17,21.51,11.65,48.32,16.34,78.51,16.75,106.99,4.41,160.62-11.51,202.66-6,15.86-21.37,102.57-30.26,156.89l-.21.9s-7.65,35.36-1.65,75.34c3.72,24.68,11.79,45.77,24.06,63.01.21.41.48.82.83,1.24.28.41.62.82.9,1.24,7.17,9.72,15.85,18.26,25.92,25.3.34.2.69.48,1.03.69,7.44,5.16,15.37,9.51,23.71,13.02,23.64,10.07,54.38,17.72,91.61,22.82Z"/>
  <path class="cls-11" d="M514.26,3433.55h-.07s.35.48.55.68c-.14-.2-.34-.48-.48-.68Z"/>
  <path class="cls-11" d="M1271.51,3599.26c-.07-.49-.14-1.04-.28-1.52-26.53-1.59-55.14-3.38-85.12-5.38l-10.82-.75c-15.09-1.04-27.64-1.87-38.12-2.49-1.24-.13-2.41-.2-3.52-.27-3.72-.21-7.17-.42-10.41-.62-37.84-2.28-40.94-1.45-52.87,1.65-4.55,1.24-10.68,2.9-19.92,4.76l-1.24.2c-5.72,1.11-12.2,2.28-19.92,3.52-35.57,5.86-212.44,14.48-244.49,15.99.07-.34.14-.76.21-1.1.41-2,.83-3.93,1.38-5.93.14-.69.34-1.38.55-2.14.41-1.58.9-3.24,1.38-4.82.62-2,1.31-3.93,2.07-5.93.62-1.79,1.31-3.51,2.07-5.31.14-.41.35-.82.55-1.24.21-.48.41-1.03.62-1.51,132.62-6.69,210.44-11.79,231.26-15.17,21.02-3.38,31.15-6.06,38.74-8.06,13.37-3.52,17.78-4.76,47.15-3.24,1.17.07,2.41.13,3.65.2,1.59,0,3.17.21,4.89.28,13.85.83,32.4,2.07,57.83,3.79l4.07.28,6.76.41c25.71,1.72,50.39,3.31,73.61,4.69,2.62,4.55,4.69,9.3,6.35,14.27.41,1.1.75,2.27,1.03,3.44.48,1.66.9,3.31,1.24,4.97.21.89.41,1.79.55,2.68.07.35.14.76.21,1.11,0,.13,0,.2.07.34,0,.21.07.41.07.55.06.28.06.55.13.83.07.48.14,1.03.21,1.52h.07Z"/>
  <path class="cls-11" d="M1271.3,3597.74h-.07c.14.48.21,1.03.28,1.52-.07-.49-.14-1.04-.21-1.52ZM783.98,3619.18h.07c.07-.62.14-1.24.28-1.86l-.35,1.86ZM1271.3,3597.74h-.07c.14.48.21,1.03.28,1.52-.07-.49-.14-1.04-.21-1.52ZM783.98,3619.18h.07c.07-.62.14-1.24.28-1.86l-.35,1.86ZM1264.55,3564.86h-.14s.48.69.76,1.1l-.62-1.1ZM1271.3,3597.74h-.07c.14.48.21,1.03.28,1.52-.07-.49-.14-1.04-.21-1.52ZM1271.58,3600.15s.07,0,.07.14v-.14h-.07ZM1271.3,3597.74h-.07c.14.48.21,1.03.28,1.52-.07-.49-.14-1.04-.21-1.52Z"/>
  <g>
    <g>
      <path class="cls-13" d="M1390.82,3445.95c-33.98-4.89-61.69-6.34-86.16-7.65l-2.07-.14c-21.71-1.1-40.46-2.13-56.79-5.51-32.95-6.83-60.52-10.2-86.78-10.69-14.82-.27-27.44-.34-38.47-.13-15.99-7.17-32.94-12.82-49.62-16.48h-.14c-1.52-.41-3.1-.69-4.62-.96.07-.07.14-.07.14-.07l4.82.89c62.45-21.3,112.36-42.53,150.68-64.03,40.19-22.61,67.83-45.71,84.37-70.11,34.95-51.7,20.75-149.92,9.17-203.83-4.35-20.4-7.79-40.74-10.14-60.45-6.68-55.63-9.85-97.13-8.96-116.7,1.31-28.27,1.45-56.18,1.45-82.31v-43.84c0-30.26-12.2-59.42-33.5-80.37v-.14l-1.17-1.24c-.28-.21-1.03-.9-2.48-2.07l-1.66-1.38c-7.1-6.07-18.47-13.72-34.67-23.44-8.79-5.25-16.88-11.36-23.97-17.42-.98-.84-1.95-1.69-2.89-2.53-1.07-.94-2.12-1.88-3.13-2.81-11.89-10.96-20.12-20.88-22.84-24.27-.56-.09-1.13-.17-1.71-.22-.46-.05-.94-.09-1.41-.11-1.32-.04-2.59-.01-3.79.09h-.04c-.61.05-1.21.11-1.78.19-.16.03-.32.05-.47.08-7.14,1.21-13.34,5.16-17.46,10.72-.06.08-.13.17-.19.25-.14.19-.26.37-.39.56t0,.01c-.1.13-.2.27-.28.41-.11.16-.22.32-.31.48-.16.25-.31.5-.45.74-.08.13-.16.26-.23.39-.14.24-.26.47-.39.7-.14.26-.26.51-.38.75-.15.29-.28.56-.39.82-.37.83-.7,1.69-.99,2.56h0c2.03,12.4,12.64,24.34,27.08,35.7,1.14.91,2.31,1.8,3.5,2.7,1.08.81,2.19,1.63,3.31,2.43,9.38,6.79,19.91,13.36,30.51,19.7,14.54,8.68,26.33,17.51,31.91,21.78,14.89,14.06,23.44,34.05,23.44,54.94v43.84c0,28.61-.14,54.46-1.38,80.44-1.31,27.58,4.27,82.1,9.17,122.98,2.55,21.16,6.13,42.67,10.75,63.83,17.3,80.72,15.92,146.2-3.72,175.16-52.59,77.75-255.17,134.69-417.98,180.39-83.48,23.51-151.17,43.01-197.55,61.56-40.53-5.03-73.69-12.96-98.78-23.51-6.89-2.89-13.58-6.41-19.85-10.61,16.68-5.73,34.6-10,53.28-12.62,67.76-9.58,232.5-32.33,298.46-36.46,106.43-6.62,106.43-83.07,106.43-133.59,0-25.78-8.89-118.5-18.34-181.57-2.75-17.92-17.37-86.85-43.35-204.87-2.42-10.82-4.28-21.43-5.59-31.57-1.31-9.65-3.51-21.23-6.47-36.67-8.48-43.84-22.61-117.32-2.83-140,21.09-24.06,12.18-63.58,10.84-65.16s-2.71-2.53-2.71-2.53c-19.45-12.3-32.4.34-32.4.34l-.04,1.59c-.05,1.87.08,3.74.37,5.59,1.65,10.36,1.99,28.79-3.97,35.7-31.91,36.4-16.82,114.63-5.72,171.78l.14.96c2.55,13.17,4.76,24.61,5.86,33.3,1.51,11.44,3.58,23.09,6.2,34.74,9.1,41.08,39.02,177.29,42.81,202.31,9.78,64.73,17.99,154.2,17.99,176.06,0,58.8-3.31,92.23-71.55,96.43-59.9,3.72-196.93,21.99-301.36,36.67-27.71,4-53.9,11.1-77.89,21.17-12.13-16.69-20.19-37.5-23.78-61.77-5.86-38.74,1.45-73.2,1.52-73.62l.27-1.03c8.83-54.25,24.2-140.55,30.06-156.13,16.06-42.6,28.67-96.92,11.79-205-4.83-30.47-11.24-57.36-16.48-78.93l-.48-2c-4.07-17.1-6.72-32.51-7.62-42.09-1.86-19.16,9.13-76.78,36.84-98.83,43.02-33,23.54-98.26,22.65-101.01l-1.59-.53s-15.88-4.64-27.44,8.59c-.94,1.19-2.32,3.27-2.32,3.27l-2,3.8c.48,1.8,11,38.21-10.99,55.65-39.49,31.36-55.76,104.43-53.07,133.11,1.17,12.2,4.75,27.43,9.37,46.67l.28,1.17c5.03,21.02,11.37,47.22,15.99,76.86,15.64,99.53,4.62,148.27-9.72,186.18-9.1,23.99-29.64,148.69-31.92,162.75-1.44,6.89-8.27,43.29-2.13,85.61,4.2,28.33,13.3,53.22,27.02,73.97-50.53,29.29-75.75,66.52-73.2,107.74,3.99,64.31,30.26,103.19,82.71,122.49,11.24,4.07,31.36,7.65,35.15,8.27,19.3,4.9,47.77,7.45,82.31,7.45,13.71,0,28.53-.49,44.25-1.31,2.82,7.1,7.03,14.33,12.47,21.43,17.99,23.44,44.88,38.88,75.76,43.64l11.71,1.86c8.69,1.52,18.41,3.1,29.37,4.34,11.3,86.17-47.49,140.69-48.12,141.24l-1.79,1.66,23.64,25.64,1.8,1.72,1.79-1.72c7.17-6.96,69.41-70.31,60.38-166.68,23.16-.2,46.87-3.03,72.31-8.61l17.85-3.93c71.48-15.51,147.3-14.68,219.26,2.41l2.28.55c94.08,22.06,150.81,50.25,153.16,51.43l2.13,1.1,16.96-33.09-2.14-1.1c-2.41-1.24-60.38-30.81-161.63-54.53l-2.21-.55c-77.27-18.33-158.81-19.23-235.74-2.55l-17.78,3.93c-25.78,5.58-49.21,8.13-71.34,7.72-3.24-11.72-7.52-23.57-12.82-35.29-2.55-5.65-4.83-11.38-6.62-17.17,90.02-11.16,211.2-16.26,276.34-18.33.34.27.69.48,1.03.69l.76.48c44.94,27.37,87.54,41.15,126.96,41.15,11.38,0,22.54-1.1,33.37-3.44,20.61-4.42,37.49-11.59,50.31-21.3,56.8,9.65,82.58,14.82,87.89,16.4l1.51-4.55s-.2-.07-.41-.14l20.06-25.09-1.86-1.51c-4-3.24-6.96-5.59-81.75-18.62,4.2-10.68,6.06-22.54,5.51-35.36,45.36,2.55,91.47,4.83,130.21,6.48h2.2c35.23.07,68.45-32.26,71.07-69.21,5.17-72.24-91.95-91.81-121.8-96.09ZM654.38,3499.51c2.12-.9,4.28-1.79,6.49-2.69,3.66-1.46,7.45-2.93,11.38-4.4,1.31-.5,2.63-.99,3.97-1.48,1.79-.66,3.6-1.32,5.43-1.98,1.63-.59,3.28-1.18,4.95-1.77,2.51-.89,5.06-1.78,7.65-2.67,3.47-1.2,7.01-2.39,10.63-3.6,3.62-1.2,7.32-2.42,11.09-3.64,2.83-.91,5.7-1.83,8.62-2.76,37.91-12.03,83-24.89,134.04-39.25,163.56-45.98,367.04-103.12,420.67-182.33,20.33-30.05,21.98-96.91,4.41-178.88-4.55-21.09-8.14-42.39-10.62-63.41-4.89-40.74-10.47-94.92-9.16-122.15,1.24-26.13,1.37-52.04,1.37-80.72v-43.84c0-3.47-.22-6.92-.66-10.32-.17-1.36-.38-2.72-.62-4.07-.24-1.34-.52-2.68-.83-4.01-.15-.66-.32-1.33-.49-1.99-.34-1.32-.72-2.63-1.12-3.93-.41-1.3-.85-2.58-1.32-3.86-.7-1.91-1.48-3.79-2.33-5.64-1.13-2.47-2.38-4.88-3.76-7.22-.69-1.17-1.41-2.33-2.15-3.46-.74-1.14-1.52-2.25-2.33-3.35-.91-1.24-1.85-2.45-2.82-3.63-.32-.39-.65-.78-.99-1.17-.89-1.03-1.81-2.05-2.75-3.04-.95-.99-1.92-1.96-2.92-2.9-5.85-4.48-17.85-13.44-32.6-22.27-.44-.26-.88-.53-1.33-.8-1.07-.64-2.15-1.31-3.23-1.97-7.34-4.52-14.95-9.57-22.17-14.94-.92-.7-1.84-1.39-2.75-2.09-.94-.72-1.87-1.45-2.8-2.19-13.26-10.54-24.41-22.06-28.71-33.2.9-2.57,6.06-14.82,22.24-13.91,5.47,6.89,14.1,16.46,25.08,25.9.86.74,1.73,1.48,2.62,2.21.84.7,1.69,1.39,2.55,2.08,6.83,5.47,14.43,10.74,22.63,15.27,12.35,7.4,21.84,13.59,28.69,18.72.57.42,1.12.85,1.66,1.26.53.41,1.05.82,1.55,1.22.25.19.49.39.73.59.72.58,1.4,1.15,2.04,1.71l.97.83s.62.55.89.76l1.31,1.24c21.16,20.13,33.3,48.6,33.3,78.17v43.84c0,26.06-.14,53.91-1.45,82.03-.9,19.92,2.27,61.62,8.96,117.53,2.41,19.85,5.86,40.32,10.27,60.87,6,28.19,12.82,68.65,12.82,107.87,0,34.81-5.31,68.66-21.3,92.24-32.46,47.83-108.98,90.78-240.77,135.1-2.89-.48-5.72-.96-8.54-1.31-3.04-.41-6-.76-8.97-1.03-2.75-.28-5.51-.48-8.2-.55-6.55-.42-13.02-.35-19.23,0-.8.05-1.6.1-2.41.16-.7.05-1.4.11-2.11.17-.88.08-1.76.16-2.63.25-.66.07-1.32.13-1.98.21-1.32.15-2.64.31-3.96.49-.66.09-1.32.18-1.98.28-1.41.21-2.82.43-4.23.67-1.61.27-3.22.57-4.84.88-.8.16-1.61.32-2.41.49-2.42.5-4.83,1.05-7.24,1.64-1.6.39-3.21.81-4.81,1.24-2.82.75-5.65,1.51-8.48,2.41-2.13.62-4.27,1.31-6.41,2.07-3.03.96-5.99,2-8.96,3.1-3.44,1.24-6.96,2.62-10.41,4-13.3,5.44-26.19,11.78-38.32,18.4-4.34,2.35-8.48,4.69-12.54,7.17-3.73,2.14-7.38,4.34-10.9,6.55-6.41,3.93-12.4,7.93-18.05,11.72l-4.97,1.45c-39.7,11.09-80.71,22.67-117.73,34.32l-.41.14c-32.6,10.27-57.9,19.23-77.34,27.37-2.83,1.17-5.58,2.34-8.2,3.58-25.71,11.31-40.26,21.37-44.53,30.68-1.03,2.34-1.03,3.93,0,6.27,3.51,7.38,11.72,12.2,21.02,12.2,13.99-.07,80.72-23.02,134.41-42.32,4.35.06,8.62.06,12.89.06h0c-.17.25-.34.48-.51.71-.49.71-.95,1.37-1.42,1.98-.36.62-.72,1.25-1.05,1.84-.11.2-.22.39-.32.58-.19.39-.4.81-.64,1.25-.7,1.31-1.62,2.86-2.81,4.88-1.24,2.07-2.55,4.34-3.86,6.76-.48.82-.97,1.65-1.38,2.48-1.79,3.17-3.58,6.62-5.52,10.41-72.58,25.78-116.21,38.87-129.93,38.94-19.91,0-37.91-11.03-45.83-28.19-4.41-9.51-4.48-19.71-.07-29.37,2.3-4.94,5.72-9.68,10.31-14.33.26-.28.54-.55.82-.82.28-.28.56-.55.85-.82,1.71-1.64,3.58-3.26,5.59-4.87.67-.54,1.36-1.08,2.06-1.61.71-.54,1.43-1.08,2.17-1.61.36-.27.74-.54,1.11-.8.76-.54,1.53-1.07,2.32-1.61l.82-.55c6.07-4.03,13.11-8.05,21.27-12.12,1.02-.51,2.06-1.02,3.11-1.53,1.59-.77,3.21-1.54,4.87-2.31,1.11-.52,2.24-1.03,3.38-1.55,1.72-.78,3.48-1.56,5.28-2.34.9-.39,1.81-.79,2.73-1.18.69-.3,1.39-.6,2.09-.89ZM674.03,3526.53c14.06-5.58,30.75-11.51,50.6-17.99,3.72-1.24,7.58-2.48,11.51-3.72,1.86-.62,3.72-1.17,5.65-1.79,22.61.76,46.11.83,69.96.27l-18.19,17.72-4.21,4.07-4.2,4.13-2.21,2.14h-3.58c-2.35,0-4.69,0-7.1-.07-2.21.07-4.41,0-6.62,0h-.41c-33.02-.34-63.69-1.93-91.2-4.76ZM759.09,3536.05h-6.89c-91.4,32.46-114.84,37.5-120.7,37.56-7.3,0-13.78-3.72-16.47-9.44-.48-.96-.48-1.17,0-2.14,4.07-8.96,20.68-19.57,49.56-31.64,26.4,2.97,55.83,4.83,87.75,5.52h.07c2.2.07,4.41.07,6.68.14ZM756.2,3498.55c30.67-9.38,63.48-18.68,95.67-27.71-12.2,8.75-24.06,18.13-35.02,27.5-20.6.55-40.87.69-60.65.21ZM745.72,3643.03c-20.82,3.38-42.05,6.07-63.21,8.06,1.79-6.27,5.03-11.44,9.79-15.71,14.82-13.37,41.01-15.51,54.04-15.72-.83,7.38-1.03,15.24-.62,23.37ZM689.13,3631.72v.07c-5.93,5.24-9.86,11.93-11.79,19.79-9.1.82-18.68,1.51-28.4,2.07,2.21-17.17,9.52-31.44,21.78-42.47,23.03-20.61,57.63-23.92,77.55-23.92h5.03c-3.03,9.1-5.17,18.34-6.34,27.51-13.44.27-41.56,2.34-57.83,16.95ZM581.26,3579.89c8.75,18.82,28.46,30.95,50.59,30.95,7.31-.07,22.2-3.45,45.01-10.34-3.24,2.07-6.34,4.48-9.3,7.1-13.38,11.92-21.23,27.57-23.51,46.25-48.18,2.55-90.43.55-113.53-5.31l-1.37-.34c-8.41-1.31-23.03-4.34-29.3-6.69-28.05-10.27-54.52-28.26-58.38-89.82-2.14-34.88,31.57-60.86,60.86-76.65,12.55,11.38,27.44,20.82,44.19,27.85,16.54,7.03,35.98,12.96,57.97,17.72-11.38,8.13-19.03,16.61-23.3,25.85-4.97,10.96-4.97,22.54.07,33.43ZM729.04,3583.47c9.17-3.1,19.02-6.55,29.5-10.27l1.45-3.03.52-1.11c-.16.37-.31.73-.45,1.11-.49.96-.97,1.93-1.31,2.96-1.38,3.17-2.69,6.34-3.79,9.45-6.41-.21-15.51-.21-25.92.89ZM514.26,3433.61v-.06c23.36-9.66,48.73-16.48,75.61-20.27,104.29-14.68,241.25-32.95,300.95-36.67,70.99-4.41,76.09-41.15,76.09-101.26,0-21.99-8.27-111.81-17.99-176.75-3.86-25.22-33.84-161.5-42.94-202.72-2.55-11.45-4.62-23.03-6.07-34.33-1.17-8.76-3.37-20.27-5.92-33.5l-.21-1.04c-10.82-56.11-25.71-132.97,4.62-167.64,6.85-7.91,6.92-27.03,5.6-38.57-.34-3.01,1.43-5.93,4.32-6.85,5.36-1.72,13.18-.3,17.89,2.68,2.06,1.3,3.37,3.51,3.63,5.93,1.03,9.41,4.82,37.27-10.7,54.94-21.36,24.4-6.96,99.33,1.73,144.34,2.89,15.1,5.1,26.61,6.34,36.19,1.38,10.2,3.24,20.96,5.72,31.99,25.99,117.87,40.53,186.66,43.22,204.45,9.44,62.93,18.33,155.23,18.33,180.88,0,48.73,0,122.42-101.87,128.76-66.11,4.14-231.05,26.88-298.88,36.47-20.33,2.89-39.63,7.58-57.55,14.06-2.07-1.45-4.07-3.03-6-4.62-.07,0-.07-.07-.14-.07-2.14-1.79-4.2-3.65-6.2-5.58-1.45-1.45-2.9-2.9-4.28-4.48l-.2-.21s-.49-.55-.76-.83c-.83-.89-1.59-1.79-2.27-2.69-.07-.13-.21-.2-.28-.34-.41-.41-.83-.9-1.17-1.38,0,0,0-.07-.07-.07,0,0-.07,0-.07-.14-.21-.2-.41-.41-.55-.62h.07ZM455.32,3371.64c-6.06-41.56.62-77.2,2.07-84.02,8.34-51.15,24.47-142.83,31.71-161.99,14.47-38.47,25.78-87.96,9.99-188.53-4.68-29.92-11.3-57.29-16.13-77.28l-.27-1.17c-4.55-19.09-8.14-34.12-9.24-45.98-2.69-27.84,13.03-98.57,51.28-128.97,20.59-16.35,15.84-46.26,13.47-58.41-.63-3.2,2.33-5.06,3.21-5.98,5.1-5.3,10.68-8.47,19.18-6.71,2.05.42,2.13,2.88,2.61,4.92,3.68,15.8,10.07,60.28-21.36,87.83-28.95,23.02-42.81,84.78-40.95,104.71.97,9.99,4.55,24.88,8.62,42.18l.48,2c5.17,21.51,11.65,48.32,16.34,78.51,16.75,106.99,4.41,160.62-11.51,202.66-6,15.86-21.37,102.58-30.26,156.89l-.21.9s-7.65,35.36-1.65,75.34c3.72,24.68,11.78,45.77,24.05,63.01.21.41.49.82.83,1.24.28.41.62.82.9,1.24,7.17,9.72,15.85,18.26,25.91,25.3.35.2.69.48,1.04.68,7.44,5.17,15.37,9.52,23.71,13.03,23.64,10.07,54.39,17.72,91.61,22.82-16.89,7.17-30.33,14.06-40.88,21.02-23.5-4.89-44.11-11.09-61.41-18.4-15.79-6.69-29.71-15.37-41.64-25.92-.89-.76-1.72-1.52-2.55-2.27-7.85-7.04-15.02-15.31-21.37-24.61-14.13-20.54-23.36-45.5-27.57-74.04ZM523.15,3680.11c-3.86-.68-23.64-4.2-34.46-8.13-50.39-18.54-75.69-56.11-79.55-118.22-2.48-39.36,22.13-75.13,71.07-103.53,1.37,2,2.82,3.93,4.27,5.79,1.38,1.86,2.9,3.72,4.48,5.51,1.1,1.31,2.28,2.62,3.52,3.86,1.3,1.45,2.68,2.9,4.13,4.28.62.69,1.31,1.31,1.93,1.93-30.19,16.61-64.17,43.63-61.9,80.37,4,64.38,31.99,83.27,61.56,94.09,6.89,2.55,22.12,5.65,30.05,6.9l1.17.27c23.3,5.93,65.9,8,114.15,5.52l2.82-.14c11.38-.62,22.54-1.38,33.16-2.35l1.79-.2c21.57-2,43.29-4.69,64.72-8.14.21,1.73.35,3.45.56,5.24.34,2.62.75,5.31,1.17,8,.55,2.96,1.17,6,1.86,9.03.34,1.58.69,3.17,1.1,4.82-21.09,3.45-42.73,6.21-64.38,8.28l-1.44.13c-12.55,1.18-23.92,2-34.75,2.62-55.62,3.1-99.94.83-127.03-5.93ZM751.99,3679.7h.07c2.62,9.03,6,18.13,10,27.09,2.34,5.17,4.54,10.62,6.68,16.61-4.27-.62-8.34-1.31-12.27-1.93l-2.41-.34c-4-.76-7.79-1.38-11.44-1.93-21.3-3.24-39.77-13.72-51.84-29.5-.48-.62-.96-1.24-1.38-1.86,21.03-2,42.05-4.76,62.59-8.14ZM749.51,3753.11l-11.86-1.93c-29.56-4.48-55.41-19.3-72.58-41.7-4.82-6.27-8.61-12.61-11.23-18.82,4.2-.27,8.48-.55,12.96-.89,5.44-.35,11.16-.83,17.09-1.38.97,1.38,1.93,2.82,3.03,4.2,12.89,16.82,32.4,27.92,55.01,31.43,3.65.56,7.31,1.18,11.3,1.87l2.48.34c4.69.83,9.59,1.59,14.75,2.34,3.11,9.45,5.45,19.1,6.9,28.68-10.34-1.17-19.58-2.69-27.85-4.14ZM881.16,3723.82l17.86-3.93c76.23-16.55,157.02-15.65,233.53,2.55l2.27.55c91.13,21.37,146.89,47.36,158.4,53.01l-12.54,24.54c-11.45-5.45-66.45-30.61-152.13-50.73l-2.28-.56c-38.11-9.03-77.33-13.58-116.35-13.58-35.43,0-70.72,3.73-105.04,11.17l-17.79,3.93c-25.36,5.51-48.87,8.27-71.82,8.55-1.03-9.1-2.76-18.34-5.17-27.58,22.19.21,45.49-2.34,71.06-7.92ZM791.7,3693.56l-.07-.07c4.96,11.1,9.09,22.26,12.13,33.22.27.83.48,1.66.69,2.48.07.21.13.49.2.69.14.56.28,1.18.42,1.73,2.48,9.3,4.27,18.54,5.31,27.71.13.82.2,1.58.27,2.41.07,0,.07.21.07.28.07.69.14,1.44.21,2.13,8.47,88.79-45.01,148.96-57.28,161.51l-18.68-20.33c9.85-9.93,57.9-63.08,48.04-142.62-.07-.83-.14-1.66-.28-2.49,0-.2-.07-.34-.07-.55-.06-.62-.2-1.31-.34-1.93-1.45-9.51-3.65-19.02-6.62-28.47-.2-.89-.48-1.72-.75-2.55-.14-.34-.21-.76-.35-1.1-.14-.48-.34-.97-.48-1.45-2.41-7.1-4.97-13.37-7.65-19.3-3.86-8.68-7.1-17.37-9.58-25.92h-.07l-.62-2.34v-.21c-.21-.69-.35-1.44-.55-2.13-1.25-4.69-2.21-9.31-2.97-13.86-.83-4.48-1.45-8.96-1.79-13.3h.07c-.14-.76-.14-1.45-.21-2.14v-.21s-.07-.07,0-.07c-.07-.82-.14-1.65-.14-2.41-.41-7.86-.13-15.44.62-22.54.07-.76.21-1.52.28-2.21v-.2c.14-.83.21-1.59.34-2.41,1.18-9.17,3.38-18.34,6.55-27.37.14-.55.35-1.1.55-1.66.07-.2.14-.48.28-.68.28-.76.55-1.59.9-2.35,1.44-4,3.1-7.99,4.96-11.92h-.07l.48-.9c.35-.76.69-1.52,1.1-2.21.49-1.1,1.04-2.06,1.52-3.1,2.97-5.79,5.86-10.75,8.55-15.23,1.45-2.41,2.62-4.41,3.38-6.07,1.03-2,3.03-4.89,5.79-8.06l.27-.35,10-9.79,4.2-4.06,4.27-4.21,14.13-13.78.76-.69c14.27-12.27,30.4-24.61,46.53-35.57-.1,0-.17,0-.25.03l.59-.31c2-1.38,3.93-2.69,6-4.06h.07c2.21-1.45,4.41-2.97,6.76-4.35,6.13-4,12.54-7.92,19.3-11.78,2.41-1.38,4.75-2.76,7.23-4.14,17.51-9.72,36.74-18.82,56.59-25.51,2.69-.96,5.45-1.86,8.14-2.68h.34c3.04-.97,6.14-1.8,9.17-2.62,3.24-.83,6.55-1.59,9.79-2.35,2.82-.55,5.65-1.1,8.48-1.58h.27c3.03-.55,6.07-.97,9.1-1.31,3.1-.42,6.2-.62,9.24-.83,3.24-.21,6.48-.28,9.78-.28,2.76,0,5.59.07,8.41.21,2.28.07,4.62.28,6.96.42.69.06,1.38.13,2.14.2,2.41.21,4.83.49,7.31.83,1.72.21,3.45.48,5.24.83h.07c1.51.13,3.03.41,4.54.69.21,0,.35.07.56.13h.07c15.57,2.9,31.56,7.52,47,13.72-1.99.07-3.99.14-5.92.21-5.24.2-10.14.48-14.55.89-2.96.21-5.79.49-8.41.76-7.92.9-15.92,2.07-23.91,3.59-7.93,1.44-15.86,3.17-23.79,5.24h-.06c-4.83-.21-9.45-.21-13.79.06-46.87,2.76-97.33,30.4-131.52,53.29-.06,0-.13,0-.13.07-.14.07-.21.14-.35.21-2.82,1.86-5.51,3.72-8.2,5.58-2,1.38-4,2.76-6,4.2-.13.07-.2.14-.34.21-.76.34-1.79.97-3.1,1.79-8.14,5.38-25.16,19.72-39.64,32.26-.2.21-.48.42-.69.62-8.41,7.52-15.02,14-19.16,18.75-.14.14-.21.28-.34.42-1.04,1.17-1.93,2.27-2.76,3.3-.62.83-1.17,1.66-1.66,2.42-.13.27-.27.62-.48.96-.69,1.45-1.79,3.24-2.96,5.38l-.9,1.52c-3.1,5.3-6.41,11.02-9.72,17.85l-.62,1.31c-.2.41-.34.76-.55,1.17-.34.83-.69,1.65-1.03,2.48-.97,2.28-1.86,4.55-2.69,6.83-.07.13-.07.27-.14.41-.83,2.21-1.52,4.48-2.2,6.76-.76,2.48-1.45,4.96-2.07,7.44-.48,2.14-.9,4.21-1.31,6.34v.14c-.14.62-.21,1.31-.35,1.93v.55l-.41,2.41c-.83,6.07-1.1,12.41-.9,18.89,0,.76,0,1.52.07,2.28v.2c.07.83.07,1.59.21,2.42.62,8.96,2.14,18.06,4.69,27.02.2.82.41,1.58.69,2.41,0,.14,0,.21.06.34.21.69.42,1.31.63,2,1.93,6.21,4.34,12.41,7.1,18.48ZM1013.92,3438.09c-7.99,2.42-15.78,5.17-23.43,8.14-29.58,11.58-56.32,21.92-81.34,31.5,30.54-18.34,68.65-36.26,104.77-39.64ZM1271.65,3602.57h.2c1.24,12.75-.82,22.74-6.48,31.02-16.54-2.83-35.56-6-57.35-9.52-31.63-5.1-64.03-7.3-96.22-6.55-8.55.21-18.61.49-29.85.76-.27-.96-.27-1.86-.27-2.48.07-2,.76-6.82,6.06-9.58,11.45-6,23.44-9.65,35.71-13.17,12.75.76,29.36,1.86,51.56,3.38l10.82.76c30.26,2,59.07,3.86,85.82,5.38ZM1271.58,3600.15h.07v.14s0-.07-.07-.14ZM1271.16,3597.74c-26.52-1.58-55.1-3.38-85.06-5.38l-10.82-.75c-15.09-1.04-27.64-1.87-38.11-2.49-1.24-.13-2.42-.2-3.52-.27-3.72-.21-7.17-.41-10.41-.62-37.84-2.28-40.94-1.45-52.87,1.65-4.55,1.24-10.68,2.9-19.92,4.76l-1.24.21c-5.72,1.1-12.2,2.27-19.92,3.51-35.57,5.86-212.44,14.48-244.49,15.99.07-.34.14-.75.21-1.1.41-2,.83-3.93,1.38-5.93.13-.69.34-1.38.55-2.13.41-1.59.89-3.24,1.38-4.83.62-2,1.31-3.93,2.07-5.93.62-1.79,1.31-3.51,2.06-5.31.14-.41.35-.82.56-1.24.2-.48.41-1.03.62-1.51,132.61-6.69,210.43-11.79,231.25-15.17,21.02-3.38,31.16-6.06,38.74-8.06,13.37-3.52,17.78-4.76,47.15-3.24,1.17.07,2.41.14,3.65.2,1.59,0,3.17.21,4.89.28,13.86.83,32.4,2.07,57.83,3.79l4.07.28,6.76.41c25.71,1.72,50.38,3.31,73.61,4.69,2.62,4.55,4.69,9.3,6.34,14.27.42,1.1.76,2.27,1.04,3.44.48,1.66.89,3.31,1.24,4.97.2.89.41,1.79.55,2.69.07.34.14.75.21,1.1,0,.14,0,.2.07.34,0,.21.06.42.06.55.07.28.07.56.14.83.05.36.11.76.16,1.15-.06-.39-.13-.79-.23-1.15ZM1044.53,3619.45c-76.03,2.83-181.91,8.28-261.52,18.27-.21-6.34.14-12.61,1.03-18.54h-.07l.18-.93c-.04.31-.07.62-.11.93,29.09-1.38,209.82-10.06,246.08-15.99,6.41-1.04,11.99-2.07,17.02-2.97-1.65,4.62-2.55,9.45-2.68,14.34-.07,1.79,0,3.38.07,4.89ZM1188.31,3560.04l-3.1-.21c7.58-9.79,12.75-21.99,15.65-36.95,6.89,2.83,13.58,5.79,19.98,8.89,15.79,7.52,28.75,18.75,37.78,32.75-22.2-1.31-45.84-2.83-70.31-4.48ZM1179.21,3559.48l-1.72-.13c-3.17-.21-6.27-.42-9.24-.62-5.44-.42-10.54-.69-15.37-1.04-3.72-.27-7.24-.48-10.48-.69-1.72-.07-3.3-.2-4.89-.34-1.58-.07-3.1-.21-4.55-.28,21.09-7.1,32.95-15.92,36.88-44.32,6.13,1.86,21.09,6.55,26.4,9.03-2.97,15.99-8.55,28.61-17.03,38.39ZM1119.18,3555.55c-37.5-2.13-41.64-1.1-56.94,2.97-7.31,1.93-17.23,4.55-38.12,7.86-14.06,2.34-65.13,6.75-228.08,15.02,3.03-6.2,6.13-11.44,8.27-15.16l.89-1.52c1.59-2.75,2.9-5.1,3.59-6.48.69-1.1,1.86-2.62,3.38-4.27,17.99-6.69,36.39-13.51,54.79-20.4h.28c18.34-1.11,37.22-.97,56.25.41,28.19,2,84.23,1.79,141.78-22.34,27.02-11.23,60.66-11.58,99.95-.89-4.21,31.29-17.3,36.46-46.04,44.8ZM819.54,3546.04c3.24-3.24,7.17-6.89,11.44-10.75,6.9-.28,13.58-.55,19.92-.9-10.54,3.93-21.02,7.79-31.36,11.65ZM787.97,3669.64c-2.55-8.96-4.2-18.06-4.68-27.02,79.75-10.07,185.9-15.51,261.92-18.34,1.66,10.68,6.83,20.06,14.69,27.16-66.66,2.21-184.18,7.31-271.93,18.2ZM1226.91,3690.25c-45.97,9.72-97.19-1.86-152.33-34.47-1.31-.69-2.55-1.45-3.86-2.27-.21-.07-.41-.21-.62-.35l-.76-.48c-.48-.34-.96-.62-1.52-1.03-.2-.14-.41-.28-.55-.42-9.24-6.55-15.23-16.13-17.23-27.09-.14-.76-.28-1.58-.34-2.41-.07-.07-.07-.21-.07-.28-.14-.69-.21-1.38-.28-2.13-.07-1.38-.14-2.9-.07-4.62.21-5.38,1.31-10.62,3.38-15.58.76-.14,1.45-.28,2.14-.48,3.24-.69,6.06-1.31,8.54-1.93.83-.21,1.66-.42,2.42-.62,2.27-.55,4.34-1.11,6.2-1.59,3.38-.89,6-1.58,8.96-2.07.76-.13,1.52-.2,2.34-.34.76-.07,1.59-.14,2.42-.21,3.86-.2,8.75-.2,16.13.07,1.44,0,3.1,0,4.82.21.83,0,1.65.07,2.62.14-8.06,2.55-15.92,5.58-23.71,9.65-7.79,3.99-8.62,11.51-8.69,13.78,0,.69.07,1.66.14,2.69h.07c0,.76.28,1.59.55,2.41.07.21.14.49.21.69.2.55.41,1.11.69,1.73.2.41.41.75.69,1.17.2.34.41.69.69,1.03.68.97,1.58,1.93,2.75,2.83.56.48,1.11.89,1.8,1.31,13.44,8.2,26.19,14.82,38.59,20.2,2,.82,4,1.65,6,2.48,2.07.82,4.07,1.58,6.14,2.34l.62.14c29.98,10.96,58.03,13.92,82.78,8.82h.14c2.48.41,4.96.83,7.44,1.24,9.58,1.59,18.68,3.1,27.16,4.55,6,.97,11.65,1.93,17.09,2.9.35.07.76.13,1.11.2-11.72,7.93-26.68,13.93-44.6,17.79ZM1154.6,3655.58c15.86.89,31.78,2.75,47.5,5.3-14.96.97-30.88-.82-47.5-5.3ZM1380.35,3661.16l-18.34,22.95c-12.27-2.75-40.32-7.99-78.65-14.54l-5.37-.9c-16.82-2.96-36.26-6.2-58.59-9.92h-.07c-5.31-.9-10.82-1.8-16.47-2.69-21.86-3.59-43.98-5.65-66.31-6.14h-.14c-15.86-5.86-32.05-13.85-49.49-24.47-.35-.21-.69-.41-.97-.69-.34-.2-.62-.41-.82-.69-.42-.34-.76-.69-1.04-1.03,10.41-.28,19.78-.48,27.85-.69,31.98-.76,63.96,1.45,95.26,6.55,22.47,3.65,41.98,6.89,58.93,9.72,12.62,2.14,23.85,4,33.78,5.72l1.86.34c61.21,10.69,74.3,14.2,78.58,16.48ZM1298.73,3639.24l.07.07c-4.2-.76-8.68-1.52-13.37-2.35-2.96-.48-6.06-1.03-9.24-1.58-1.86-.35-3.72-.62-5.58-.97,5.24-8.68,7.24-19.09,6.07-31.57h-.21v-2.55c0-.62-.07-1.17-.14-1.58,0-.21-.07-.49-.14-.69-.27-2.48-.75-4.9-1.3-7.31-.28-1.24-.56-2.41-.9-3.58-.14-.69-.35-1.38-.55-2-.35-1.11-.69-2.21-1.04-3.31-.48-1.38-.96-2.69-1.51-4.07-.49-1.31-1.11-2.69-1.73-4-.34-.89-.75-1.72-1.24-2.62-.2-.41-.41-.82-.62-1.24-.41-.82-.89-1.72-1.38-2.55-.2-.48-.48-.89-.75-1.38-.28-.41-.49-.75-.76-1.1-9.45-16.06-23.78-29.02-41.5-37.5-7.3-3.51-15.09-6.89-23.02-10.06l-2.76-1.17c-6.61-2.76-21.36-7.31-26.67-8.9-.35-.07-.62-.2-.9-.27-.14-.07-.27-.14-.34-.14-.14,0-.21-.07-.28-.07-.2,0-.34-.14-.41-.14h-.07c-41.15-11.51-76.51-11.3-104.98.62-56.73,23.72-111.87,23.92-139.65,21.92-14.27-1.03-28.53-1.37-42.46-.96-2.55,0-5.03,0-7.58.27-2.21,0-4.48.14-6.69.28-.34,0-.76,0-.89.07h-1.38c-8.62.55-17.99.96-28.06,1.38,16.82-14.41,34.12-28.47,36.54-29.37,17.16-.76,34.81-.41,52.38.83,2.76.21,5.79.34,9.03.48.35.07.69.07,1.1.07,2,.07,4.14.14,6.28.14h6.2l.86-.13c-.06.03-.2.08-.31.13,25.64-.28,64.24-4.07,103.88-20.61,24.05-10.13,51.76-13.44,82.44-10,0,0,.62,0,1.72.21,7.44,1.17,36.95,6,55.35,13.03.21.07.41.14.55.21h.28v.13h.13c13.72,4.69,27.71,10.48,41.57,17.17,28.47,13.65,50.11,36.32,61.28,64.17h.13l2.55.14h1.11c.48.07,1.03.14,1.51.14-11.3-29.92-34.18-54.39-64.51-68.86-13.72-6.55-27.58-12.27-41.22-17.03-3.38-6.14-8.07-12.48-14.06-18.68-.69-.69-1.38-1.45-2.07-2.14,17.85,1.45,37.15,4.34,58.72,8.83,19.99,4.13,41.22,5.17,63.63,6.27l2.34.14c23.23,1.24,49.63,2.68,81.27,7.3,58.24,8.34,91.95,29.51,90.02,56.53-1.24,17.23-18.13,34.74-33.16,34.74-.07,0-1.58-.07-4.27-.21-43.84-1.93-89.75-4.2-136.62-6.89.21.48.35,1.03.55,1.51.14.35.21.63.35.97-.9-.07-1.72-.07-2.62-.14-.9-.07-1.72-.07-2.62-.14l.34.97c.21.48.35,1.03.49,1.52h.07c.27.75.55,1.58.75,2.34.28.76.56,1.52.76,2.27.21.69.49,1.45.69,2.14.35,1.24.62,2.41.9,3.59.07.2.07.34.14.55.48,2,.89,3.93,1.31,5.93.41,2.2.75,4.48,1.03,6.75.21,1.45.41,2.9.48,4.41,0,.76.14,1.59.14,2.41v2.42c.69,12.68-1.17,24.4-5.45,34.81ZM1125.79,3466.08c-27.57-1.86-52.73,2-74.85,11.31-32.4,13.51-64.04,18.33-88.23,19.71,14.68-5.72,28.74-11.17,41.77-16.27,25.98-10.2,52.8-16.89,79.61-19.85,8-.83,17.65-1.45,28.81-1.79,4.48,2.13,8.76,4.41,12.89,6.89ZM1123.03,3459.05v-.07c7.17-.07,14.96-.07,23.23,0,3.93.07,7.93.14,12.07.21,4.41.07,8.96.27,13.58.55,2.34,2.07,4.41,4.07,6.27,6,4.13,4.27,7.58,8.61,10.34,12.89-20.27-6.69-47.63-10.89-52.04-11.51h-.14c-4.27-2.83-8.62-5.45-13.31-8.07ZM1507.86,3541.84l-.06-.07c-2.49,34.46-33.44,64.73-66.11,64.73h-2.13c-38.88-1.73-85.13-4-130.56-6.55,0-.21,0-.42-.06-.62v-.42c0-.34,0-.76-.07-1.1-.07-.41-.07-.76-.14-1.1-.07-.76-.14-1.45-.21-2.07-.2-1.86-.55-3.79-.89-5.65-.14-.76-.28-1.45-.42-2.21-.34-1.79-.69-3.58-1.17-5.31-.48-2.06-1.03-4.06-1.65-6.06,0-.07-.07-.14-.07-.21-.35-1.1-.69-2.14-1.04-3.24,46.19,2.62,91.47,4.89,134.69,6.76,2.48.13,3.86.2,4.27.2,17.79,0,36.74-19.44,38.19-39.22,2.07-29.85-33.09-52.94-94.16-61.69-31.84-4.62-58.31-6.07-81.68-7.31l-2.34-.14c-22.26-1.1-43.29-2.14-62.93-6.13-24.26-5.04-45.7-8.14-65.42-9.38h-.82c-4.9-.34-9.86-.55-14.62-.62-16.88-.34-31.98-.34-45.01,0-1.44.07-2.82.07-4.27.14-1.86.07-3.72.14-5.51.21-7.52.41-14.2.89-20.06,1.44-27.23,3.04-54.46,9.86-80.85,20.13-16.82,6.62-35.3,13.79-54.8,21.3-8.07,0-15.58-.27-21.72-.76-15.09-1.1-30.05-1.44-44.87-1.1,2.48-1.72,4.89-3.45,7.24-5.03.07,0,.14-.07.21-.07,30.94-11.72,64.79-24.68,103.53-39.84,12.96-5.1,26.67-9.52,40.53-13.17.13,0,.2-.07.34-.07,15.79-4.06,31.71-7.03,47.35-8.75,10.41-1.17,23.37-1.86,39.64-2.14,11.1-.21,23.78-.14,38.74.14,25.98.48,53.28,3.86,85.95,10.55,16.68,3.51,35.64,4.48,57.49,5.65l2.13.14c24.34,1.24,51.91,2.75,85.68,7.65,28.06,4,117.87,21.92,117.87,85.89,0,1.65-.07,3.37-.21,5.1Z"/>
      <path class="cls-11" d="M1164.48,2608.03h-.04c-.61.05-1.21.11-1.78.19.58-.09,1.17-.16,1.77-.21-.03-.03-.05-.06-.07-.09.02.02.05.05.08.08,0,0,0,0,.02.01l.02.02Z"/>
      <path class="cls-11" d="M1323.48,3176.08c0,34.81-5.31,68.66-21.3,92.24-32.46,47.83-108.98,90.78-240.77,135.1-2.89-.48-5.72-.96-8.54-1.31-3.04-.41-6-.76-8.97-1.03-2.75-.28-5.51-.48-8.2-.55-6.55-.42-13.02-.35-19.23,0-.8.05-1.6.1-2.41.16-.7.05-1.4.11-2.11.17-.88.08-1.76.16-2.63.25-.66.07-1.32.13-1.98.21-1.32.15-2.64.31-3.96.49-.66.09-1.32.18-1.98.28-1.41.21-2.82.43-4.23.67-1.61.27-3.22.57-4.84.88-.8.16-1.61.32-2.41.49-2.42.5-4.83,1.05-7.24,1.64-1.6.39-3.21.81-4.81,1.24-2.82.75-5.65,1.51-8.48,2.41-2.13.62-4.27,1.31-6.41,2.07-3.03.96-5.99,2-8.96,3.1-3.44,1.24-6.96,2.62-10.41,4-13.3,5.44-26.19,11.78-38.32,18.4-4.34,2.35-8.48,4.69-12.54,7.17-3.73,2.14-7.38,4.34-10.9,6.55-6.41,3.93-12.4,7.93-18.05,11.72l-4.97,1.45c-39.7,11.09-80.71,22.67-117.73,34.32l-.41.14c-32.6,10.27-57.9,19.23-77.34,27.37-2.83,1.17-5.58,2.34-8.2,3.58-25.71,11.31-40.26,21.37-44.53,30.68-1.03,2.34-1.03,3.93,0,6.27,3.51,7.38,11.72,12.2,21.02,12.2,13.99-.07,80.72-23.02,134.41-42.32,4.35.07,8.61.07,12.88.07h.01c-.17.24-.34.47-.51.7-.49.71-.95,1.37-1.42,1.98-.36.62-.72,1.25-1.05,1.84-.12.2-.22.39-.33.58-.19.39-.4.81-.63,1.25-.7,1.31-1.62,2.86-2.81,4.88-1.24,2.07-2.55,4.34-3.86,6.76-.48.82-.97,1.65-1.38,2.48-1.79,3.17-3.58,6.62-5.52,10.41-72.58,25.78-116.21,38.87-129.93,38.94-19.91,0-37.91-11.03-45.83-28.19-4.41-9.51-4.48-19.71-.07-29.37,2.3-4.94,5.72-9.68,10.31-14.33.27-.28.54-.55.82-.82.28-.28.56-.55.85-.82,1.71-1.64,3.58-3.26,5.59-4.87.67-.54,1.36-1.08,2.06-1.61.71-.53,1.43-1.07,2.17-1.61.36-.27.74-.54,1.11-.8.76-.53,1.53-1.07,2.32-1.6l.82-.56c6.07-4.03,13.11-8.05,21.27-12.12,1.02-.51,2.06-1.02,3.11-1.53,1.59-.77,3.21-1.54,4.87-2.31,1.11-.52,2.24-1.03,3.38-1.55,1.72-.78,3.48-1.56,5.28-2.34.9-.39,1.81-.79,2.73-1.18.69-.3,1.39-.6,2.09-.89,2.12-.89,4.28-1.78,6.49-2.68,3.66-1.46,7.45-2.93,11.38-4.41,1.31-.5,2.63-.99,3.97-1.48,1.79-.66,3.6-1.32,5.43-1.98,1.63-.59,3.28-1.18,4.95-1.77,2.51-.89,5.06-1.78,7.65-2.67,3.47-1.19,7.01-2.39,10.63-3.6,3.62-1.2,7.32-2.42,11.09-3.64,2.83-.91,5.7-1.83,8.62-2.76,37.91-12.03,83-24.89,134.04-39.25,163.56-45.98,367.04-103.12,420.67-182.33,20.33-30.05,21.98-96.91,4.41-178.88-4.55-21.09-8.14-42.39-10.62-63.41-4.89-40.74-10.47-94.92-9.16-122.15,1.24-26.13,1.37-52.04,1.37-80.72v-43.84c0-3.47-.22-6.92-.66-10.32-.17-1.36-.38-2.72-.62-4.07-.24-1.34-.52-2.68-.83-4.01-.15-.66-.32-1.33-.49-1.99-.34-1.32-.72-2.63-1.12-3.93-.41-1.3-.85-2.58-1.32-3.86-.7-1.91-1.48-3.79-2.33-5.64-1.13-2.47-2.38-4.88-3.76-7.22-.69-1.17-1.41-2.33-2.15-3.46-.74-1.14-1.52-2.25-2.33-3.35-.91-1.24-1.85-2.45-2.82-3.63-.32-.39-.65-.78-.99-1.17-.89-1.03-1.81-2.05-2.75-3.04-.95-.99-1.92-1.96-2.92-2.9-5.85-4.48-17.85-13.44-32.6-22.27-.44-.26-.88-.53-1.33-.8-1.07-.64-2.15-1.31-3.23-1.97-7.34-4.52-14.95-9.57-22.17-14.94-.92-.7-1.84-1.39-2.75-2.09-.94-.72-1.87-1.45-2.8-2.19-13.26-10.54-24.41-22.06-28.71-33.2.9-2.57,6.06-14.82,22.24-13.91,5.47,6.89,14.1,16.46,25.08,25.9.86.74,1.73,1.48,2.62,2.21.84.7,1.69,1.39,2.55,2.08,6.83,5.47,14.43,10.74,22.63,15.27,12.35,7.4,21.84,13.59,28.69,18.72.57.43,1.12.85,1.66,1.26.53.41,1.05.82,1.55,1.22.25.19.49.39.73.59.72.59,1.4,1.16,2.04,1.72l.97.82s.62.55.89.76l1.31,1.24c21.16,20.13,33.3,48.6,33.3,78.17v43.84c0,26.06-.14,53.91-1.45,82.03-.9,19.92,2.27,61.62,8.96,117.53,2.41,19.85,5.86,40.32,10.27,60.87,6,28.19,12.82,68.65,12.82,107.87Z"/>
    </g>
    <path class="cls-13" d="M778.93,3536.19c-.17.24-.33.47-.5.7.17-.23.34-.46.51-.7h-.01ZM1166.86,2607.9c-.81,0-1.61.03-2.4.11-.01-.01-.02-.01-.02-.01-.03-.03-.06-.06-.08-.08.02.03.04.06.07.09,0,.01.01.01.01.02h.04c1.2-.1,2.47-.13,3.79-.09-.47-.03-.94-.04-1.41-.04ZM1246.87,2712.46c.97,1.18,1.91,2.39,2.82,3.63-.9-1.24-1.84-2.45-2.82-3.63ZM1252.02,2719.44c.74,1.13,1.46,2.29,2.15,3.46-.68-1.17-1.4-2.33-2.15-3.46ZM1261.58,2739.62c.4,1.3.78,2.61,1.12,3.93-.34-1.32-.71-2.63-1.12-3.93Z"/>
  </g>
  <path class="cls-11" d="M1508,3536.67c0,1.65-.07,3.37-.21,5.1-2.48,34.46-33.43,64.73-66.1,64.73h-2.13c-38.88-1.73-85.13-4-130.56-6.55,0-.21,0-.42-.06-.62v-.42c0-.34,0-.76-.07-1.1-.07-.41-.07-.76-.14-1.1-.07-.76-.14-1.45-.21-2.07-.21-1.86-.55-3.79-.89-5.65-.14-.76-.28-1.45-.42-2.21-.34-1.79-.69-3.58-1.17-5.31-.48-2.07-1.03-4.06-1.65-6.06,0-.07-.07-.14-.07-.21-.35-1.1-.69-2.14-1.04-3.24,46.19,2.62,91.47,4.89,134.69,6.76,2.48.13,3.86.2,4.27.2,17.79,0,36.74-19.44,38.19-39.22,2.07-29.85-33.09-52.94-94.16-61.69-31.84-4.62-58.31-6.07-81.68-7.31l-2.34-.14c-22.26-1.1-43.29-2.14-62.93-6.13-24.26-5.04-45.7-8.14-65.41-9.38h-.83c-4.89-.34-9.86-.55-14.61-.62-16.89-.34-31.98-.34-45.01,0-1.45.07-2.83.07-4.27.14-1.86.07-3.72.14-5.51.21-7.51.41-14.2.89-20.06,1.44-27.23,3.04-54.45,9.86-80.85,20.13-16.82,6.62-35.29,13.79-54.8,21.3-8.07,0-15.58-.27-21.71-.76-15.09-1.1-30.05-1.44-44.87-1.1,2.48-1.72,4.89-3.45,7.24-5.03.07,0,.14-.07.21-.07,30.95-11.72,64.79-24.68,103.53-39.84,12.96-5.1,26.67-9.52,40.53-13.17.14,0,.21-.07.34-.07,15.79-4.07,31.71-7.03,47.35-8.75,10.41-1.17,23.37-1.86,39.63-2.14,11.1-.21,23.78-.14,38.74.14,25.99.48,53.28,3.86,85.95,10.55,16.68,3.51,35.64,4.48,57.49,5.65l2.13.14c24.34,1.24,51.91,2.75,85.68,7.65,28.06,3.99,117.87,21.92,117.87,85.89l-.07-.07Z"/>
  <path class="cls-13" d="M1302.04,3568.51c-.2-.48-.34-1.03-.55-1.51h-.07c-.48,0-1.03-.07-1.51-.07h-1.11l-2.55-.21.42,1.24.48,1.24c.9.07,1.72.07,2.62.14.89.07,1.72.07,2.62.14-.14-.35-.21-.62-.35-.97ZM1298.05,3571.68h-.07c.27.76.55,1.52.82,2.35-.2-.76-.48-1.59-.75-2.35Z"/>
  <path class="cls-11" d="M1375.18,3706.28s-24.13-11.62-9.48-29.77c14.66-18.15,13.61-24.84,26.48-22.91l12.8,1.94"/>
  <path class="cls-7" d="M1375.18,3706.28s-24.13-11.62-9.48-29.77c14.66-18.15,13.61-24.84,26.48-22.91l12.8,1.94"/>
  <path class="cls-1" d="M1468.98,3658.88l-8.16,15.29c-4.69-3.08-8.49-5.18-10.03-5.18-2.02,3.64-26.67,47.23-37.5,68.9,0,0,4.12,3.07,9.78,7.03l-9.78,18.36s-.08-.08-.16-.08c-2.99-1.38-56.17-26.44-43.08-56.69.4-.97.81-1.86,1.29-2.83,8.41-19,18.03-37.6,27.32-49.25,5.58-6.79,11.08-11.24,16.09-11.96,15.19-2.11,49.78,14.31,53.83,16.25.16.08.24.08.4.16Z"/>
  <path class="cls-1" d="M1433.98,3752.17c-2.31,3.4-4.7,6.56-7.01,9.31-3.96,4.7-9.65,4.7-13.6,1.86-.08,0-.08-.08-.16-.08-3.39-2.43-5.61-6.96-4.53-12.39.74-3.72,2.22-8.01,4.7-12.95,0,0,4.2,3.08,9.97,7.04,3.21,2.27,6.92,4.78,10.63,7.2Z"/>
  <path class="cls-1" d="M1469.99,3681.28c-3.15-2.32-6.3-4.56-9.12-6.38-4.81-3.15-8.7-5.3-10.28-5.3.08-.17.16-.25.16-.25,0,0,6.22-14.58,18.08-10.27.16.08.24.08.42.16,5.64,2.24,4.06,12.1.74,22.04Z"/>
  <path class="cls-1" d="M1453.39,3763.28l-40.41-24.59c10.89-21.82,36.75-67.75,38.78-71.41,1.55,0,41.22,20.84,41.22,20.84l-39.59,75.08v.08Z"/>
  <path class="cls-1" d="M1464.29,3741.28l-23.31-11.15,20.77-35.85,23.23,10.03-20.69,36.97Z"/>
  <path class="cls-11" d="M1296.94,3842.28s-35.9-13.78-31.6-38.1c1.71-9.69,6.18-18.7,11.08-25.93,7.81-11.82,22.32-17.43,36.24-13.95,7.64,1.87,17.77,6.81,19.32,9.19"/>
  <path class="cls-3" d="M1296.94,3842.28s-35.9-13.78-31.6-38.1c1.71-9.69,6.18-18.7,11.08-25.93,7.81-11.82,22.32-17.43,36.24-13.95,7.64,1.87,17.77,6.81,19.32,9.19"/>
  <path class="cls-6" d="M1401.89,3833.64c.68,6.01-.69,12.11-3.7,17.35-1.37,2.37-3,4.57-4.88,6.52-.94,1.01-1.97,1.94-3,2.88-.94.76-2.15,2.03-3.34,2.45-.77.26-1.29.76-1.46,1.44l-12.52-5.5c5.31-10.41,10.72-21.92,14.92-32.92l14.49,6.34s-.6.94-.51,1.44Z"/>
  <path class="cls-6" d="M1388.3,3824.58c-4.23,11.16-9.66,22.83-15.01,33.39-4.14,8.32-8.28,15.96-11.55,21.97-4.4,7.89-14.32,10.64-22.25,6.26-15.35-8.32-38.04-23.86-43.3-45.23-1.2-4.54-1.55-9.35-.86-14.41,1.9-14.08,6.56-25.49,11.99-34.59,5.86-9.61,14.83-16.48,25.1-20,8.36-2.91,17.59-3.51,26.56-1.54,14.31,3.18,29.84,7.29,33.63,11.33,6.47,6.78,2.85,23.94-4.31,42.82Z"/>
  <path class="cls-11" d="M1402.68,3832.28l3.73,1.7,30.51,13.57,3.81,1.78,23.99,10.61,4.32,1.95,22.8,10.18c41.44,34.28-10,35.21-10,35.21l-31.19-13.91-6.19-2.8-25.43-11.37-5.08-2.21-23.82-10.69-4.15-1.87"/>
  <path class="cls-3" d="M1402.68,3832.28l3.73,1.7,30.51,13.57,3.81,1.78,23.99,10.61,4.32,1.95,22.8,10.18c41.44,34.28-10,35.21-10,35.21l-31.19-13.91-6.19-2.8-25.43-11.37-5.08-2.21-23.82-10.69-4.15-1.87"/>
  <path class="cls-10" d="M1445.66,3892.71c5.87,1.72,12-.66,16.32-4.77s6.86-10.45,7.1-16.52c.17-3.45-.41-6.9-1.71-10.11-.41-1.07-1.39-1.73-2.53-1.4-.98.25-1.88,1.48-1.39,2.55,2.45,6.08,1.95,13.15-1.39,18.82-3.11,5.09-9.8,9.95-15.92,8.22-2.53-.74-3.02,2.47-.48,3.21Z"/>
  <path class="cls-10" d="M1416.06,3879.28c8.11,0,13.84-5.67,17.52-11.43,3.67-5.75,5.9-12.52,5.04-19.22-.35-2.53-4.79-1.95-4.45.6.68,5.67-1.02,11.25-4.1,16.25-1.54,2.45-3.5,4.82-5.65,6.94-1.97,1.95-4.78,4.06-7.86,4.15-1.19,0-2.39.59-2.56,1.77-.17.93.85.93,2.05.93Z"/>
  <path class="cls-8" d="M1398.72,3852.26c-1.5,2.72-3.31,5.26-5.36,7.55-.94,1.11-2.05,2.13-3.07,3.05-.88.77-1.67,1.53-2.61,2.13-.47.26-.94.59-1.49.76-1.74.59-2.76-1.19-2.37-2.63.15-.68.63-1.19,1.34-1.44,1.11-.42,2.2-1.7,3.08-2.46.94-.93,1.89-1.87,2.75-2.89,1.73-1.95,3.23-4.15,4.49-6.53,2.76-5.26,4.02-11.37,3.39-17.39-.08-.51.16-1.02.48-1.44.39-.43.94-.68,1.49-.68,1.11,0,1.82,1.02,1.97,2.13v.25c.71,6.79-.94,13.75-4.1,19.61Z"/>
  <path class="cls-11" d="M700.98,3909.4s14.34-26.48,37.18-9.35c21.56,16.15,33.62,18.12,30.26,33.57-3.36,15.46-7.51,15.66-7.51,15.66"/>
  <path class="cls-3" d="M700.98,3909.4s14.34-26.48,37.18-9.35c21.56,16.15,33.62,18.12,30.26,33.57-3.36,15.46-7.51,15.66-7.51,15.66"/>
  <path class="cls-6" d="M751.8,4018.28c-1.77-8.78-11.91-13.96-11.91-13.96,0,0-54.51-35.91-81.17-51.57-5.8-3.29-10.92-5.38-15.35-6.58-1.77-.5-3.44-.6-5.02-.5l-1.38-.89s26.17-61.84,62.97-42.89c1.18.6,2.26,1.2,3.44,1.79,23.71,12.47,46.24,26.93,59.72,41.39,6.79,7.29,11.32,14.57,12.59,21.55,3.25,17.85-23.91,51.66-23.91,51.66Z"/>
  <path class="cls-6" d="M751.98,4018.54l-18.65,26.74c-21.8-12.98-113.35-71.55-113.35-71.55,0,0,14.95-25.27,16.81-27.25.78-.2,1.47-.2,2.25-.2,1.56,0,3.23,0,4.99.5,4.4,1.19,9.48,3.27,15.25,6.54,26.5,15.56,80.67,51.24,80.67,51.24,0,0,10.07,5.16,11.83,13.88,0,0,0,.1.1.1h.1Z"/>
  <path class="cls-3" d="M640.98,3985.28l20-29"/>
  <path class="cls-3" d="M713.98,4033.28l20-32"/>
  <path class="cls-3" d="M676.98,4010.28l21-31"/>
  <g>
    <path class="cls-13" d="M1141.72,2624.13c-.37.83-.7,1.69-.99,2.56h-.02c.01-.05.31-1.05,1.01-2.56Z"/>
    <path class="cls-13" d="M1162.19,2608.3c-7.14,1.21-13.34,5.16-17.46,10.72,3.2-4.41,8.66-9.35,17.46-10.72Z"/>
    <path class="cls-13" d="M1169.68,2608.01v.04c-.46-.05-.94-.09-1.41-.11.46.01.93.04,1.41.07Z"/>
  </g>
</svg>